<svg width="803" height="157" viewBox="0 0 803 157" fill="none" xmlns="http://www.w3.org/2000/svg">
<path fill-rule="evenodd" clip-rule="evenodd" d="M58.1323 26.8336C58.1336 26.7343 58.1342 26.6348 58.1342 26.5351C58.1342 12.2087 44.6999 0 28.8107 0C12.9214 0 0.040585 12.2087 0.040585 26.5351C0.040585 26.6348 0.0412082 26.7343 0.0424512 26.8336H0.0405273V155.89H58.1451V26.8336H58.1323Z" fill="#DC5041"/>
<circle cx="28.9948" cy="84.2246" r="24.7028" fill="white"/>
<circle cx="28.8229" cy="84.0529" r="9.95421" fill="#DC5041"/>
<path d="M33.5363 83.9487C33.5363 86.5141 31.4566 88.5938 28.8912 88.5938C26.3258 88.5938 24.2461 86.5141 24.2461 83.9487C24.2461 81.3833 26.3258 79.3036 28.8912 79.3036C31.4566 79.3036 33.5363 81.3833 33.5363 83.9487Z" fill="#0063BD"/>
<ellipse cx="28.7329" cy="91.6988" rx="0.288528" ry="2.01969" fill="#0063BD"/>
<ellipse cx="36.5231" cy="84.1972" rx="0.288528" ry="2.01969" transform="rotate(-90 36.5231 84.1972)" fill="#0063BD"/>
<ellipse cx="36.2535" cy="85.4091" rx="0.288528" ry="2.01969" transform="rotate(-80 36.2535 85.4091)" fill="#0063BD"/>
<ellipse cx="35.9228" cy="86.6016" rx="0.288528" ry="2.01969" transform="rotate(-70 35.9228 86.6016)" fill="#0063BD"/>
<ellipse cx="35.5311" cy="87.7651" rx="0.288528" ry="2.01969" transform="rotate(-60 35.5311 87.7651)" fill="#0063BD"/>
<ellipse cx="34.7932" cy="88.8902" rx="0.288528" ry="2.01969" transform="rotate(-50 34.7932 88.8902)" fill="#0063BD"/>
<ellipse cx="33.7141" cy="89.9692" rx="0.288528" ry="2.01969" transform="rotate(-40 33.7141 89.9692)" fill="#0063BD"/>
<ellipse cx="32.3007" cy="90.707" rx="0.288528" ry="2.01969" transform="rotate(-30 32.3007 90.707)" fill="#0063BD"/>
<ellipse cx="31.1372" cy="91.3873" rx="0.288528" ry="2.01969" transform="rotate(-20 31.1372 91.3873)" fill="#0063BD"/>
<ellipse cx="29.9444" cy="91.7183" rx="0.288528" ry="2.01969" transform="rotate(-10 29.9444 91.7183)" fill="#0063BD"/>
<ellipse cx="21.2694" cy="83.9086" rx="0.288528" ry="2.01969" transform="rotate(90 21.2694 83.9086)" fill="#0063BD"/>
<ellipse cx="28.771" cy="91.6989" rx="0.288528" ry="2.01969" fill="#0063BD"/>
<ellipse cx="27.5594" cy="91.4298" rx="0.288528" ry="2.01969" transform="rotate(10 27.5594 91.4298)" fill="#0063BD"/>
<ellipse cx="26.367" cy="91.0987" rx="0.288528" ry="2.01969" transform="rotate(20 26.367 91.0987)" fill="#0063BD"/>
<ellipse cx="25.2034" cy="90.707" rx="0.288528" ry="2.01969" transform="rotate(30 25.2034 90.707)" fill="#0063BD"/>
<ellipse cx="24.0781" cy="89.9692" rx="0.288528" ry="2.01969" transform="rotate(40 24.0781 89.9692)" fill="#0063BD"/>
<ellipse cx="22.9991" cy="88.8902" rx="0.288528" ry="2.01969" transform="rotate(50 22.9991 88.8902)" fill="#0063BD"/>
<ellipse cx="22.2614" cy="87.4767" rx="0.288528" ry="2.01969" transform="rotate(60 22.2614 87.4767)" fill="#0063BD"/>
<ellipse cx="21.5807" cy="86.3131" rx="0.288528" ry="2.01969" transform="rotate(70 21.5807 86.3131)" fill="#0063BD"/>
<ellipse cx="21.2501" cy="85.1206" rx="0.288528" ry="2.01969" transform="rotate(80 21.2501 85.1206)" fill="#0063BD"/>
<ellipse cx="29.0215" cy="76.4458" rx="0.288528" ry="2.01969" transform="rotate(-180 29.0215 76.4458)" fill="#0063BD"/>
<ellipse cx="21.2308" cy="83.9474" rx="0.288528" ry="2.01969" transform="rotate(90 21.2308 83.9474)" fill="#0063BD"/>
<ellipse cx="21.5004" cy="82.7356" rx="0.288528" ry="2.01969" transform="rotate(100 21.5004 82.7356)" fill="#0063BD"/>
<ellipse cx="21.8311" cy="81.543" rx="0.288528" ry="2.01969" transform="rotate(110 21.8311 81.543)" fill="#0063BD"/>
<ellipse cx="22.2228" cy="80.3796" rx="0.288528" ry="2.01969" transform="rotate(120 22.2228 80.3796)" fill="#0063BD"/>
<ellipse cx="22.9607" cy="79.2545" rx="0.288528" ry="2.01969" transform="rotate(130 22.9607 79.2545)" fill="#0063BD"/>
<ellipse cx="24.0398" cy="78.1755" rx="0.288528" ry="2.01969" transform="rotate(140 24.0398 78.1755)" fill="#0063BD"/>
<ellipse cx="25.4537" cy="77.4377" rx="0.288528" ry="2.01969" transform="rotate(150 25.4537 77.4377)" fill="#0063BD"/>
<ellipse cx="26.6167" cy="76.7574" rx="0.288528" ry="2.01969" transform="rotate(160 26.6167 76.7574)" fill="#0063BD"/>
<ellipse cx="27.8095" cy="76.4263" rx="0.288528" ry="2.01969" transform="rotate(170 27.8095 76.4263)" fill="#0063BD"/>
<ellipse cx="36.5231" cy="84.197" rx="0.288528" ry="2.01969" transform="rotate(-90 36.5231 84.197)" fill="#0063BD"/>
<ellipse cx="29.0215" cy="76.4068" rx="0.288528" ry="2.01969" transform="rotate(-180 29.0215 76.4068)" fill="#0063BD"/>
<ellipse cx="30.2336" cy="76.6759" rx="0.288528" ry="2.01969" transform="rotate(-170 30.2336 76.6759)" fill="#0063BD"/>
<ellipse cx="31.4255" cy="77.0071" rx="0.288528" ry="2.01969" transform="rotate(-160 31.4255 77.0071)" fill="#0063BD"/>
<ellipse cx="32.5891" cy="77.3988" rx="0.288528" ry="2.01969" transform="rotate(-150 32.5891 77.3988)" fill="#0063BD"/>
<ellipse cx="33.7144" cy="78.1365" rx="0.288528" ry="2.01969" transform="rotate(-140 33.7144 78.1365)" fill="#0063BD"/>
<ellipse cx="34.7934" cy="79.2155" rx="0.288528" ry="2.01969" transform="rotate(-130 34.7934 79.2155)" fill="#0063BD"/>
<ellipse cx="35.5311" cy="80.6292" rx="0.288528" ry="2.01969" transform="rotate(-120 35.5311 80.6292)" fill="#0063BD"/>
<ellipse cx="36.2113" cy="81.7925" rx="0.288528" ry="2.01969" transform="rotate(-110 36.2113 81.7925)" fill="#0063BD"/>
<ellipse cx="36.5424" cy="82.9853" rx="0.288528" ry="2.01969" transform="rotate(-100 36.5424 82.9853)" fill="#0063BD"/>
<circle cx="32.3291" cy="80.4073" r="2.5806" fill="white"/>
<path d="M53.3937 114.792C53.3937 118.441 50.7252 121.85 46.1793 124.376C41.6504 126.892 35.3599 128.464 28.3843 128.464C21.4087 128.464 15.1182 126.892 10.5893 124.376C6.04349 121.85 3.375 118.441 3.375 114.792C3.375 111.143 6.04349 107.734 10.5893 105.208C15.1182 102.692 21.4087 101.12 28.3843 101.12C35.3599 101.12 41.6504 102.692 46.1793 105.208C50.7252 107.734 53.3937 111.143 53.3937 114.792Z" stroke="white"/>
<path d="M53.3937 130.381C53.3937 131.336 52.8134 132.326 51.5795 133.298C50.3513 134.266 48.5431 135.16 46.264 135.919C41.7112 137.437 35.3898 138.384 28.3843 138.384C21.3789 138.384 15.0574 137.437 10.5046 135.919C8.2256 135.16 6.41736 134.266 5.18914 133.298C3.95528 132.326 3.375 131.336 3.375 130.381C3.375 129.426 3.95528 128.436 5.18914 127.464C6.41736 126.496 8.2256 125.602 10.5046 124.843C15.0574 123.325 21.3789 122.378 28.3843 122.378C35.3898 122.378 41.7112 123.325 46.264 124.843C48.5431 125.602 50.3513 126.496 51.5795 127.464C52.8134 128.436 53.3937 129.426 53.3937 130.381Z" stroke="white"/>
<path d="M53.3937 140.301C53.3937 140.53 53.2918 140.796 53.0076 141.105C52.7209 141.416 52.2741 141.741 51.6565 142.065C50.4222 142.714 48.6033 143.313 46.3137 143.822C41.7425 144.837 35.4033 145.47 28.3843 145.47C21.3654 145.47 15.0261 144.837 10.455 143.822C8.16533 143.313 6.34647 142.714 5.1122 142.065C4.49455 141.741 4.04773 141.416 3.76107 141.105C3.47688 140.796 3.375 140.53 3.375 140.301C3.375 140.073 3.47688 139.806 3.76107 139.498C4.04773 139.186 4.49455 138.862 5.1122 138.537C6.34647 137.889 8.16533 137.29 10.455 136.781C15.0261 135.765 21.3654 135.133 28.3843 135.133C35.4033 135.133 41.7425 135.765 46.3137 136.781C48.6033 137.29 50.4222 137.889 51.6565 138.537C52.2741 138.862 52.7209 139.186 53.0076 139.498C53.2918 139.806 53.3937 140.073 53.3937 140.301Z" stroke="white"/>
<path d="M53.3937 145.261L53.3936 145.262L53.3935 145.263C53.3932 145.265 53.3926 145.267 53.3908 145.272C53.3872 145.282 53.3785 145.301 53.3584 145.329C53.3161 145.386 53.2354 145.466 53.0946 145.562C52.8112 145.754 52.3608 145.959 51.733 146.166C50.4842 146.576 48.6507 146.952 46.3534 147.271C41.7662 147.909 35.4129 148.304 28.3843 148.304C21.3557 148.304 15.0025 147.909 10.4153 147.271C8.11799 146.952 6.28444 146.576 5.03564 146.166C4.40784 145.959 3.9575 145.754 3.67406 145.562C3.53326 145.466 3.45258 145.386 3.41031 145.329C3.39016 145.301 3.38148 145.282 3.37789 145.272C3.37611 145.267 3.37546 145.265 3.37521 145.263L3.37502 145.262L3.375 145.261L3.37502 145.261L3.37521 145.26C3.37546 145.258 3.37611 145.255 3.37789 145.251C3.38148 145.241 3.39016 145.222 3.41031 145.194C3.45258 145.137 3.53326 145.057 3.67406 144.961C3.9575 144.769 4.40784 144.564 5.03564 144.357C6.28444 143.947 8.11799 143.571 10.4153 143.251C15.0025 142.614 21.3557 142.219 28.3843 142.219C35.4129 142.219 41.7662 142.614 46.3534 143.251C48.6507 143.571 50.4842 143.947 51.733 144.357C52.3608 144.564 52.8112 144.769 53.0946 144.961C53.2354 145.057 53.3161 145.137 53.3584 145.194C53.3785 145.222 53.3872 145.241 53.3908 145.251C53.3926 145.255 53.3932 145.258 53.3935 145.26L53.3936 145.261L53.3937 145.261Z" stroke="white"/>
<path d="M34.0527 51.0186L35.314 51.2479V52.5092L34.0527 53.3118V51.0186Z" fill="white"/>
<path d="M24.1323 9.92022L25.3936 10.1495V11.4108L24.1323 12.2134V9.92022Z" fill="white"/>
<path d="M26.9673 32.5952L28.2285 32.8245V34.0858H27.3113L26.9673 32.5952Z" fill="white"/>
<path d="M15.981 22.5257H17.0129V23.787L16.2103 23.3283L15.981 22.5257Z" fill="white"/>
<path d="M36.0991 13.3774H37.1311V14.6387L36.3284 14.1801L36.0991 13.3774Z" fill="white"/>
<path d="M17.0464 39.6811H18.0783V40.9424L17.2757 40.4837L17.0464 39.6811Z" fill="white"/>
<path d="M46.4561 22.9674L47.7173 23.1968V24.458L46.8 24.3433L46.4561 22.9674Z" fill="white"/>
<path d="M42.5054 28.5629L42.7347 27.3017H43.9959L43.8813 28.2189L42.5054 28.5629Z" fill="white"/>
<path d="M48.9106 39.7381L48.5428 40.9661L47.2893 40.8262L46.6316 39.4836L48.9106 39.7381Z" fill="white"/>
<path d="M13.7969 20.0951L13.429 21.3231L12.1755 21.1831L11.5179 19.8406L13.7969 20.0951Z" fill="white"/>
<path d="M5.70898 48.1842L6.97024 48.4135V49.6748L5.70898 50.4774V48.1842Z" fill="white"/>
<path d="M132.942 0.393982V155.969C175.905 155.969 210.729 121.145 210.729 78.1815C210.729 35.2186 175.905 0.393982 132.942 0.393982Z" fill="#F2CA46"/>
<path d="M107.012 0.393982V26.3232V45.772V67.8099V78.1815V104.111V155.969H132.941V104.111V78.1815V67.8099V45.772V26.3232C132.941 11.9997 121.336 0.393982 107.012 0.393982Z" fill="#0063BD"/>
<path fill-rule="evenodd" clip-rule="evenodd" d="M285.539 30.6076L312.377 3.02443L351.108 3.02444V31.5447H286.825V64.8916H343.597V92.5343H286.825V128.075H353.379V156.595H258.702V58.1907L285.539 30.6076Z" fill="#38805E"/>
<path d="M295.124 38.4885C278.83 43.414 272.926 50.1118 258.702 58.1907C258.702 58.1907 268.287 40.4587 281.705 26.6671C295.124 12.8756 312.377 3.02445 312.377 3.02445C306.816 14.137 298.229 30.0229 297.425 35.5331C297.281 36.5182 297.344 37.17 297.041 37.6019C296.738 38.0337 295.327 38.427 295.124 38.4885Z" fill="#F2CA46"/>
<path d="M416.388 43.2919C424.897 43.2919 431.796 36.3935 431.796 27.884C431.796 19.3745 424.897 12.4761 416.388 12.4761C407.878 12.4761 400.98 19.3745 400.98 27.884C400.98 36.3935 407.878 43.2919 416.388 43.2919Z" fill="#DC5041"/>
<path d="M502.404 149.845H486.938V107.188C486.938 107.106 486.95 107.036 486.95 106.965C486.985 106.285 486.997 105.604 486.997 104.912V81.8058V53.5599H486.961C486.938 52.5742 486.879 51.6002 486.797 50.6379C486.774 50.3563 486.738 50.0864 486.715 49.8047C486.644 49.0889 486.562 48.3848 486.457 47.6807C486.421 47.3991 486.375 47.1292 486.328 46.8475C486.199 46.0613 486.058 45.2868 485.893 44.5123C485.858 44.3598 485.835 44.1955 485.8 44.043C480.859 21.5824 460.863 4.77805 436.936 4.77805C434.823 4.77805 432.735 4.9189 430.693 5.17706C430.61 5.1888 430.517 5.2005 430.434 5.21223C429.636 5.31784 428.839 5.43519 428.041 5.57601C427.149 5.7403 426.257 5.91636 425.377 6.12758C426.362 6.36228 427.348 6.63218 428.31 6.92555C428.498 6.98422 428.698 7.04285 428.885 7.10153C429.812 7.3949 430.74 7.71175 431.643 8.0638C431.807 8.12247 431.972 8.19286 432.136 8.26327C433.004 8.60358 433.861 8.96742 434.706 9.35467C434.788 9.38988 434.882 9.42506 434.964 9.47199C435.856 9.89445 436.736 10.3404 437.593 10.8098C437.769 10.9037 437.933 10.9975 438.109 11.0914C438.966 11.5725 439.799 12.0654 440.632 12.5818C440.726 12.6404 440.82 12.7108 440.925 12.7695C441.712 13.2741 442.474 13.8021 443.225 14.3537C443.331 14.4358 443.437 14.5062 443.542 14.5766C444.329 15.1634 445.103 15.7619 445.854 16.3956C445.983 16.5012 446.112 16.6185 446.253 16.7241C447.016 17.3696 447.767 18.0385 448.494 18.7426C448.494 18.7426 448.494 18.7425 448.506 18.7542C449.234 19.4583 449.938 20.1859 450.618 20.9252C450.712 21.0309 450.806 21.1247 450.9 21.2304C451.569 21.9697 452.214 22.7207 452.836 23.4952C452.918 23.6008 453.001 23.6947 453.071 23.8003C454.338 25.408 455.512 27.086 456.592 28.8463C456.662 28.9636 456.732 29.0692 456.803 29.1866C457.331 30.0667 457.824 30.9586 458.305 31.8622C458.34 31.9208 458.363 31.9912 458.399 32.0499C458.868 32.9652 459.314 33.904 459.736 34.8545C459.748 34.8897 459.772 34.925 459.783 34.9484C460.194 35.899 460.581 36.8729 460.933 37.8587C460.98 37.976 461.016 38.1051 461.062 38.2224C461.415 39.2199 461.743 40.2291 462.025 41.25C463.128 45.1812 463.773 49.3001 463.879 53.5482H463.914V62.7248V74.6358L463.644 74.4128C463.316 74.0842 462.975 73.7674 462.635 73.4388V73.427C462.588 73.3918 462.553 73.3567 462.506 73.3097C462.201 73.0281 461.896 72.7582 461.59 72.4883C461.426 72.3475 461.262 72.2066 461.098 72.0658C460.781 71.7959 460.452 71.5377 460.124 71.2678C459.959 71.1387 459.807 71.0097 459.643 70.8923C459.302 70.6224 458.95 70.3642 458.598 70.1178C458.446 70.0122 458.305 69.9066 458.152 69.8009C457.777 69.5428 457.401 69.2846 457.014 69.0382C456.885 68.9561 456.756 68.8622 456.615 68.78C456.204 68.5218 455.782 68.2637 455.371 68.0173C455.265 67.9586 455.16 67.8882 455.054 67.8295C454.608 67.5713 454.151 67.3249 453.693 67.0785C453.611 67.0316 453.529 66.9963 453.447 66.9494C452.954 66.7029 452.461 66.4565 451.968 66.2218C451.909 66.1983 451.862 66.1749 451.804 66.1514C451.276 65.9167 450.748 65.6821 450.208 65.4591C450.196 65.4591 450.184 65.4473 450.184 65.4473C445.514 63.558 440.409 62.5019 435.046 62.5019C413.36 62.5019 395.664 79.5761 394.655 101.016H394.608V104.865V112.563V115.133H394.62C394.643 116.834 394.784 118.501 395.019 120.144C395.875 126.281 398.105 131.961 401.391 136.889C401.402 136.901 401.402 136.913 401.414 136.924C401.719 137.382 402.024 137.828 402.353 138.262C402.4 138.321 402.435 138.38 402.482 138.438C402.787 138.849 403.092 139.248 403.409 139.647C403.479 139.729 403.538 139.811 403.609 139.893C403.914 140.269 404.219 140.644 404.547 141.008C404.629 141.102 404.712 141.196 404.806 141.302C405.111 141.654 405.427 141.994 405.756 142.334C405.85 142.44 405.956 142.534 406.049 142.639C406.366 142.968 406.695 143.296 407.023 143.613C407.129 143.719 407.246 143.825 407.352 143.918C407.681 144.224 408.009 144.54 408.349 144.834C408.467 144.928 408.572 145.033 408.69 145.127C409.03 145.42 409.382 145.726 409.734 146.007C409.84 146.089 409.945 146.172 410.039 146.242C410.415 146.535 410.79 146.829 411.178 147.122C412.093 147.803 413.055 148.436 414.029 149.035C414.064 149.058 414.1 149.082 414.135 149.105C414.44 149.293 414.757 149.469 415.074 149.645C415.308 149.774 415.531 149.915 415.766 150.032C416.047 150.185 416.341 150.326 416.623 150.478C416.892 150.619 417.162 150.76 417.444 150.889C417.714 151.018 417.995 151.147 418.277 151.276C418.57 151.405 418.864 151.546 419.157 151.675C419.427 151.793 419.709 151.898 419.979 152.015C420.284 152.145 420.601 152.262 420.917 152.379C421.187 152.485 421.457 152.579 421.727 152.673C422.056 152.79 422.384 152.896 422.713 153.001C422.983 153.083 423.253 153.166 423.523 153.248C423.863 153.353 424.215 153.447 424.555 153.541C424.825 153.611 425.083 153.682 425.353 153.752C425.717 153.846 426.069 153.917 426.433 153.999C426.691 154.057 426.961 154.116 427.219 154.163C427.595 154.233 427.982 154.304 428.369 154.362C428.616 154.409 428.874 154.445 429.12 154.48C429.531 154.538 429.942 154.585 430.352 154.632C430.587 154.656 430.822 154.691 431.045 154.715C431.514 154.761 431.983 154.797 432.453 154.82C432.641 154.832 432.828 154.855 433.016 154.855C433.673 154.891 434.342 154.902 434.999 154.902H436.865C436.9 154.902 436.924 154.902 436.959 154.902C437.816 154.902 438.672 154.879 439.529 154.832C449.985 154.304 459.596 150.56 467.388 144.576C471.107 150.795 477.444 154.902 484.661 154.902H502.404V149.845ZM439.224 148.483C427.841 147.779 418.711 138.802 417.784 127.478V127.49C417.737 126.973 417.69 126.469 417.679 125.941H417.667V122.268V118.266V117.914V114.241V113.138V112.633V110.92V107.071V105.792H417.702C418.5 88.7763 432.547 75.2225 449.762 75.2225C454.761 75.2225 459.49 76.3725 463.715 78.4144L463.891 78.5434V81.8292V104.935C463.891 105.628 463.879 106.308 463.844 106.989C463.844 107.012 463.844 107.047 463.855 107.071H463.891V108.784V131.89C463.891 134.425 464.266 136.866 464.947 139.142C457.612 144.435 448.788 147.803 439.224 148.483Z" fill="#DC5041"/>
<path fill-rule="evenodd" clip-rule="evenodd" d="M646.174 29.3981L540.2 5.11419L537.994 14.7415L583.294 25.122L581.451 154.75L598.311 154.99L600.103 28.9738L643.968 39.0254L646.174 29.3981Z" fill="#0063BD"/>
<circle cx="537.116" cy="21.9018" r="17.1237" fill="#F2CA46"/>
<circle cx="648.42" cy="22.5867" r="17.1237" fill="#F2CA46"/>
<path d="M796.98 145.78C800.545 145.78 802.327 147.165 802.327 149.935C802.327 151.182 801.558 152.29 800.021 153.259C798.483 154.229 795.827 154.714 792.052 154.714H703.247V7.72017C730.787 7.72017 758.327 7.72017 785.866 7.72017L794.464 7.40852C799.706 7.40852 802.327 8.93213 802.327 11.9793C802.327 13.1567 801.873 14.2648 800.964 15.3036C800.126 16.2731 799.147 16.7579 798.029 16.7579C796.211 16.7579 794.289 16.5502 792.262 16.1346C789.256 15.5113 785.132 15.1997 779.89 15.1997H756.719V46.8838H775.801C775.801 46.8838 780.1 46.7107 788.697 46.3644C790.235 46.3644 791.528 46.7453 792.577 47.5071C793.695 48.1996 794.254 49.2038 794.254 50.5197C794.254 53.4284 792.297 54.8827 788.383 54.8827L783.874 54.7789C781.568 54.5711 779.645 54.4672 778.108 54.4672H756.719V147.13H779.89C785.063 147.13 788.732 146.922 790.899 146.507C793.485 146.022 795.512 145.78 796.98 145.78Z" fill="#F2CA46"/>
</svg>
