<svg width="704" height="108" viewBox="0 0 704 108" fill="none" xmlns="http://www.w3.org/2000/svg">
<path fill-rule="evenodd" clip-rule="evenodd" d="M39.8937 18.4276C39.8946 18.3594 39.895 18.2911 39.895 18.2226C39.895 8.38418 30.6692 0 19.7575 0C8.84571 0 0 8.38418 0 18.2226C0 18.2911 0.000427967 18.3594 0.00128162 18.4276H0V107.056H39.9025V18.4276H39.8937Z" fill="#DC5041"/>
<circle cx="19.8837" cy="57.8401" r="16.9643" fill="white"/>
<circle cx="19.7661" cy="57.7221" r="6.83592" fill="#DC5041"/>
<path d="M23.003 57.6506C23.003 59.4124 21.5748 60.8406 19.813 60.8406C18.0512 60.8406 16.6231 59.4124 16.6231 57.6506C16.6231 55.8888 18.0512 54.4607 19.813 54.4607C21.5748 54.4607 23.003 55.8888 23.003 57.6506Z" fill="#0063BD"/>
<ellipse cx="19.704" cy="62.9729" rx="0.198143" ry="1.387" fill="#0063BD"/>
<ellipse cx="25.054" cy="57.8213" rx="0.198143" ry="1.387" transform="rotate(-90 25.054 57.8213)" fill="#0063BD"/>
<ellipse cx="24.8686" cy="58.6535" rx="0.198143" ry="1.387" transform="rotate(-80 24.8686 58.6535)" fill="#0063BD"/>
<ellipse cx="24.6416" cy="59.4725" rx="0.198143" ry="1.387" transform="rotate(-70 24.6416 59.4725)" fill="#0063BD"/>
<ellipse cx="24.3725" cy="60.2715" rx="0.198143" ry="1.387" transform="rotate(-60 24.3725 60.2715)" fill="#0063BD"/>
<ellipse cx="23.8661" cy="61.0441" rx="0.198143" ry="1.387" transform="rotate(-50 23.8661 61.0441)" fill="#0063BD"/>
<ellipse cx="23.1249" cy="61.7851" rx="0.198143" ry="1.387" transform="rotate(-40 23.1249 61.7851)" fill="#0063BD"/>
<ellipse cx="22.1542" cy="62.2918" rx="0.198143" ry="1.387" transform="rotate(-30 22.1542 62.2918)" fill="#0063BD"/>
<ellipse cx="21.3554" cy="62.759" rx="0.198143" ry="1.387" transform="rotate(-20 21.3554 62.759)" fill="#0063BD"/>
<ellipse cx="20.5361" cy="62.9863" rx="0.198143" ry="1.387" transform="rotate(-10 20.5361 62.9863)" fill="#0063BD"/>
<ellipse cx="14.5788" cy="57.6231" rx="0.198143" ry="1.387" transform="rotate(90 14.5788 57.6231)" fill="#0063BD"/>
<ellipse cx="19.7304" cy="62.9729" rx="0.198143" ry="1.387" fill="#0063BD"/>
<ellipse cx="18.8986" cy="62.7881" rx="0.198143" ry="1.387" transform="rotate(10 18.8986 62.7881)" fill="#0063BD"/>
<ellipse cx="18.0795" cy="62.5608" rx="0.198143" ry="1.387" transform="rotate(20 18.0795 62.5608)" fill="#0063BD"/>
<ellipse cx="17.2808" cy="62.2918" rx="0.198143" ry="1.387" transform="rotate(30 17.2808 62.2918)" fill="#0063BD"/>
<ellipse cx="16.5078" cy="61.7851" rx="0.198143" ry="1.387" transform="rotate(40 16.5078 61.7851)" fill="#0063BD"/>
<ellipse cx="15.767" cy="61.0441" rx="0.198143" ry="1.387" transform="rotate(50 15.767 61.0441)" fill="#0063BD"/>
<ellipse cx="15.2602" cy="60.0734" rx="0.198143" ry="1.387" transform="rotate(60 15.2602 60.0734)" fill="#0063BD"/>
<ellipse cx="14.7927" cy="59.2744" rx="0.198143" ry="1.387" transform="rotate(70 14.7927 59.2744)" fill="#0063BD"/>
<ellipse cx="14.5659" cy="58.4554" rx="0.198143" ry="1.387" transform="rotate(80 14.5659 58.4554)" fill="#0063BD"/>
<ellipse cx="19.902" cy="52.4981" rx="0.198143" ry="1.387" transform="rotate(-180 19.902 52.4981)" fill="#0063BD"/>
<ellipse cx="14.552" cy="57.6497" rx="0.198143" ry="1.387" transform="rotate(90 14.552 57.6497)" fill="#0063BD"/>
<ellipse cx="14.7369" cy="56.8176" rx="0.198143" ry="1.387" transform="rotate(100 14.7369 56.8176)" fill="#0063BD"/>
<ellipse cx="14.9638" cy="55.9985" rx="0.198143" ry="1.387" transform="rotate(110 14.9638 55.9985)" fill="#0063BD"/>
<ellipse cx="15.233" cy="55.1996" rx="0.198143" ry="1.387" transform="rotate(120 15.233 55.1996)" fill="#0063BD"/>
<ellipse cx="15.7398" cy="54.4269" rx="0.198143" ry="1.387" transform="rotate(130 15.7398 54.4269)" fill="#0063BD"/>
<ellipse cx="16.4806" cy="53.6859" rx="0.198143" ry="1.387" transform="rotate(140 16.4806 53.6859)" fill="#0063BD"/>
<ellipse cx="17.4518" cy="53.1792" rx="0.198143" ry="1.387" transform="rotate(150 17.4518 53.1792)" fill="#0063BD"/>
<ellipse cx="18.2506" cy="52.7121" rx="0.198143" ry="1.387" transform="rotate(160 18.2506 52.7121)" fill="#0063BD"/>
<ellipse cx="19.0694" cy="52.4847" rx="0.198143" ry="1.387" transform="rotate(170 19.0694 52.4847)" fill="#0063BD"/>
<ellipse cx="25.054" cy="57.8211" rx="0.198143" ry="1.387" transform="rotate(-90 25.054 57.8211)" fill="#0063BD"/>
<ellipse cx="19.9024" cy="52.4713" rx="0.198143" ry="1.387" transform="rotate(-180 19.9024 52.4713)" fill="#0063BD"/>
<ellipse cx="20.7347" cy="52.6561" rx="0.198143" ry="1.387" transform="rotate(-170 20.7347 52.6561)" fill="#0063BD"/>
<ellipse cx="21.5533" cy="52.8836" rx="0.198143" ry="1.387" transform="rotate(-160 21.5533 52.8836)" fill="#0063BD"/>
<ellipse cx="22.3525" cy="53.1525" rx="0.198143" ry="1.387" transform="rotate(-150 22.3525 53.1525)" fill="#0063BD"/>
<ellipse cx="23.125" cy="53.6592" rx="0.198143" ry="1.387" transform="rotate(-140 23.125 53.6592)" fill="#0063BD"/>
<ellipse cx="23.8658" cy="54.4002" rx="0.198143" ry="1.387" transform="rotate(-130 23.8658 54.4002)" fill="#0063BD"/>
<ellipse cx="24.3726" cy="55.371" rx="0.198143" ry="1.387" transform="rotate(-120 24.3726 55.371)" fill="#0063BD"/>
<ellipse cx="24.8396" cy="56.1699" rx="0.198143" ry="1.387" transform="rotate(-110 24.8396 56.1699)" fill="#0063BD"/>
<ellipse cx="25.0674" cy="56.989" rx="0.198143" ry="1.387" transform="rotate(-100 25.0674 56.989)" fill="#0063BD"/>
<circle cx="22.1736" cy="55.2186" r="1.77219" fill="white"/>
<path d="M36.4831 78.8318C36.4831 81.2553 34.7091 83.5544 31.6094 85.2765C28.5266 86.9892 24.2339 88.0641 19.465 88.0641C14.6961 88.0641 10.4033 86.9892 7.32056 85.2765C4.22083 83.5544 2.44678 81.2553 2.44678 78.8318C2.44678 76.4083 4.22083 74.1092 7.32056 72.3871C10.4033 70.6744 14.6961 69.5995 19.465 69.5995C24.2339 69.5995 28.5266 70.6744 31.6094 72.3871C34.7091 74.1092 36.4831 76.4083 36.4831 78.8318Z" stroke="white"/>
<path d="M36.4827 89.5373C36.4827 90.1247 36.126 90.7639 35.2965 91.4176C34.4727 92.0669 33.2495 92.6734 31.6936 93.1921C28.5869 94.2276 24.2632 94.8767 19.4645 94.8767C14.6657 94.8767 10.3421 94.2276 7.23536 93.1921C5.67939 92.6734 4.45629 92.0669 3.63244 91.4176C2.80296 90.7639 2.44629 90.1247 2.44629 89.5373C2.44629 88.95 2.80296 88.3108 3.63244 87.6571C4.45629 87.0078 5.67939 86.4013 7.23536 85.8826C10.3421 84.847 14.6657 84.1979 19.4645 84.1979C24.2632 84.1979 28.5869 84.847 31.6936 85.8826C33.2495 86.4013 34.4727 87.0078 35.2965 87.6571C36.126 88.3108 36.4827 88.95 36.4827 89.5373Z" stroke="white"/>
<path d="M36.4827 96.35C36.4827 96.4557 36.4367 96.6028 36.2589 96.7958C36.0787 96.9915 35.7889 97.2043 35.3734 97.4226C34.5435 97.8586 33.3098 98.2664 31.7432 98.6146C28.6182 99.309 24.2767 99.7429 19.4645 99.7429C14.6522 99.7429 10.3108 99.309 7.18571 98.6146C5.61913 98.2664 4.3854 97.8586 3.55551 97.4226C3.14004 97.2043 2.85022 96.9915 2.67001 96.7958C2.49227 96.6028 2.44629 96.4557 2.44629 96.35C2.44629 96.2442 2.49227 96.0971 2.67001 95.9041C2.85022 95.7084 3.14004 95.4956 3.55551 95.2773C4.3854 94.8413 5.61913 94.4335 7.18571 94.0853C10.3108 93.3909 14.6522 92.957 19.4645 92.957C24.2767 92.957 28.6182 93.3909 31.7432 94.0853C33.3098 94.4335 34.5435 94.8413 35.3734 95.2773C35.7889 95.4956 36.0787 95.7084 36.2589 95.9041C36.4367 96.0971 36.4827 96.2442 36.4827 96.35Z" stroke="white"/>
<path d="M36.4916 99.705C36.4917 99.705 36.4915 99.7054 36.491 99.7062L36.4916 99.705ZM36.3459 99.6797C36.3916 99.7107 36.4235 99.7363 36.4456 99.7563C36.4235 99.7763 36.3916 99.8019 36.3459 99.8329C36.1689 99.9531 35.8756 100.089 35.45 100.228C34.6056 100.506 33.3572 100.763 31.7829 100.982C28.6419 101.418 24.2864 101.689 19.4645 101.689C14.6426 101.689 10.2871 101.418 7.14603 100.982C5.57178 100.763 4.32337 100.506 3.47894 100.228C3.05334 100.089 2.75999 99.9531 2.58299 99.8329C2.53729 99.8019 2.5054 99.7763 2.48338 99.7563C2.5054 99.7363 2.53729 99.7107 2.58299 99.6797C2.75999 99.5595 3.05334 99.424 3.47894 99.2843C4.32337 99.007 5.57178 98.7497 7.14603 98.5311C10.2871 98.0948 14.6426 97.8232 19.4645 97.8232C24.2864 97.8232 28.6419 98.0948 31.7829 98.5311C33.3572 98.7497 34.6056 99.007 35.45 99.2843C35.8756 99.424 36.1689 99.5595 36.3459 99.6797ZM2.4373 99.705C2.43732 99.705 2.43755 99.7053 2.43792 99.7061L2.4373 99.705ZM2.4373 99.8076C2.43727 99.8076 2.43746 99.8072 2.43792 99.8065L2.4373 99.8076ZM36.491 99.8064C36.4915 99.8072 36.4917 99.8076 36.4916 99.8076L36.491 99.8064Z" stroke="white"/>
<path d="M23.3579 35.0363L24.2241 35.1938V36.06L23.3579 36.6111V35.0363Z" fill="white"/>
<path d="M16.5449 6.81258L17.4111 6.97006V7.83621L16.5449 8.38739V6.81258Z" fill="white"/>
<path d="M18.4917 22.3843L19.3578 22.5418V23.4079H18.7279L18.4917 22.3843Z" fill="white"/>
<path d="M10.9473 15.4692H11.6559V16.3354L11.1047 16.0204L10.9473 15.4692Z" fill="white"/>
<path d="M24.7632 9.18677H25.4719V10.0529L24.9207 9.73796L24.7632 9.18677Z" fill="white"/>
<path d="M11.6787 27.2505H12.3874V28.1166L11.8362 27.8016L11.6787 27.2505Z" fill="white"/>
<path d="M31.8755 15.7726L32.7416 15.9301V16.7962L32.1117 16.7175L31.8755 15.7726Z" fill="white"/>
<path d="M29.1626 19.6152L29.3201 18.749H30.1862L30.1075 19.379L29.1626 19.6152Z" fill="white"/>
<path d="M33.561 27.2896L33.3084 28.1329L32.4476 28.0368L31.996 27.1148L33.561 27.2896Z" fill="white"/>
<path d="M9.44727 13.8L9.19462 14.6433L8.33382 14.5472L7.88218 13.6252L9.44727 13.8Z" fill="white"/>
<path d="M3.89307 33.0898L4.75921 33.2473V34.1135L3.89307 34.6647V33.0898Z" fill="white"/>
<path d="M114.709 0V106.839C144.213 106.839 168.129 82.9238 168.129 53.4195C168.129 23.9153 144.213 0 114.709 0Z" fill="#F2CA46"/>
<path d="M96.9023 0V17.8065V31.1627V46.2969V53.4195V71.226V106.839H114.709V71.226V53.4195V46.2969V31.1627V17.8065C114.709 7.97004 106.739 0 96.9023 0Z" fill="#0063BD"/>
<path fill-rule="evenodd" clip-rule="evenodd" d="M243.559 20.9423L261.99 2L288.588 2.00001V21.5859H244.442V44.4864H283.429V63.4697H244.442V87.8768H290.147V107.463H225.129V39.8847L243.559 20.9423Z" fill="#38805E"/>
<path d="M250.141 26.3544C238.951 29.737 234.897 34.3366 225.129 39.8847C225.129 39.8847 231.711 27.7075 240.926 18.2363C250.141 8.76513 261.989 2.00001 261.989 2.00001C258.171 9.63139 252.273 20.5408 251.721 24.3249C251.622 25.0014 251.666 25.449 251.458 25.7456C251.25 26.0422 250.281 26.3122 250.141 26.3544Z" fill="#F2CA46"/>
<path d="M362.104 29.4488C367.948 29.4488 372.685 24.7115 372.685 18.8677C372.685 13.0239 367.948 8.28653 362.104 8.28653C356.26 8.28653 351.523 13.0239 351.523 18.8677C351.523 24.7115 356.26 29.4488 362.104 29.4488Z" fill="#DC5041"/>
<path d="M421.175 102.622H410.553V73.3288C410.553 73.2724 410.561 73.2241 410.561 73.1757C410.586 72.7083 410.594 72.2409 410.594 71.7654V55.8977V36.5003H410.569C410.553 35.8233 410.513 35.1545 410.457 34.4937C410.44 34.3002 410.416 34.1149 410.4 33.9215C410.352 33.4299 410.295 32.9464 410.223 32.4628C410.199 32.2694 410.166 32.084 410.134 31.8906C410.046 31.3507 409.949 30.8188 409.836 30.287C409.812 30.1822 409.796 30.0694 409.772 29.9646C406.379 14.5402 392.647 3 376.215 3C374.764 3 373.33 3.09673 371.928 3.27402C371.871 3.28208 371.807 3.29011 371.75 3.29817C371.202 3.3707 370.654 3.45128 370.106 3.54799C369.494 3.66081 368.881 3.78172 368.277 3.92678C368.954 4.08795 369.631 4.2733 370.292 4.47477C370.421 4.51506 370.558 4.55533 370.687 4.59562C371.323 4.79709 371.96 5.01468 372.58 5.25644C372.693 5.29674 372.806 5.34508 372.919 5.39343C373.515 5.62713 374.104 5.877 374.684 6.14294C374.74 6.16711 374.805 6.19127 374.861 6.2235C375.474 6.51362 376.078 6.81986 376.666 7.14221C376.787 7.20669 376.9 7.27115 377.021 7.33562C377.609 7.66603 378.181 8.00451 378.753 8.3591C378.818 8.39939 378.882 8.44772 378.955 8.48801C379.495 8.83454 380.019 9.19717 380.534 9.57593C380.607 9.63234 380.679 9.68069 380.752 9.72905C381.292 10.132 381.824 10.543 382.34 10.9782C382.428 11.0507 382.517 11.1313 382.614 11.2038C383.137 11.647 383.653 12.1064 384.153 12.5899C384.153 12.5899 384.153 12.5899 384.161 12.598C384.66 13.0815 385.144 13.5812 385.611 14.0889C385.676 14.1614 385.74 14.2259 385.805 14.2984C386.264 14.8061 386.707 15.3219 387.135 15.8537C387.191 15.9263 387.247 15.9907 387.296 16.0633C388.166 17.1673 388.972 18.3197 389.713 19.5285C389.762 19.6091 389.81 19.6816 389.858 19.7622C390.221 20.3666 390.559 20.9791 390.89 21.5996C390.914 21.6399 390.93 21.6883 390.954 21.7286C391.277 22.3571 391.583 23.0018 391.873 23.6546C391.881 23.6788 391.897 23.703 391.905 23.7191C392.187 24.3719 392.453 25.0407 392.695 25.7176C392.727 25.7982 392.751 25.8869 392.784 25.9675C393.025 26.6525 393.251 27.3455 393.445 28.0466C394.202 30.7463 394.645 33.5749 394.718 36.4922H394.742V42.7942V50.9738L394.557 50.8207C394.331 50.5951 394.097 50.3775 393.864 50.1518V50.1437C393.831 50.1196 393.807 50.0954 393.775 50.0632C393.565 49.8698 393.356 49.6844 393.146 49.4991C393.034 49.4024 392.921 49.3057 392.808 49.209C392.59 49.0236 392.365 48.8463 392.139 48.6609C392.026 48.5723 391.921 48.4837 391.809 48.4031C391.575 48.2177 391.333 48.0404 391.091 47.8712C390.987 47.7986 390.89 47.7261 390.785 47.6536C390.527 47.4763 390.269 47.299 390.003 47.1298C389.915 47.0734 389.826 47.0089 389.729 46.9525C389.447 46.7752 389.157 46.5979 388.875 46.4287C388.803 46.3884 388.73 46.34 388.658 46.2997C388.351 46.1224 388.037 45.9532 387.723 45.784C387.666 45.7517 387.61 45.7275 387.554 45.6953C387.215 45.5261 386.877 45.3568 386.538 45.1957C386.498 45.1795 386.466 45.1634 386.425 45.1473C386.063 44.9861 385.7 44.825 385.329 44.6719C385.321 44.6719 385.313 44.6638 385.313 44.6638C382.106 43.3663 378.6 42.641 374.917 42.641C360.025 42.641 347.872 54.3666 347.179 69.0899H347.147V71.7332V77.0197V78.7846H347.155C347.171 79.9531 347.268 81.0975 347.429 82.2257C348.017 86.4404 349.548 90.3409 351.805 93.7255C351.813 93.7336 351.813 93.7416 351.821 93.7497C352.031 94.064 352.24 94.3702 352.466 94.6684C352.498 94.7087 352.522 94.749 352.554 94.7893C352.764 95.0714 352.973 95.3453 353.191 95.6193C353.239 95.6757 353.28 95.7322 353.328 95.7886C353.538 96.0465 353.747 96.3044 353.973 96.5542C354.029 96.6186 354.086 96.6831 354.15 96.7556C354.36 96.9974 354.577 97.2311 354.803 97.4648C354.867 97.5373 354.94 97.6018 355.004 97.6743C355.222 97.8999 355.447 98.1256 355.673 98.3432C355.746 98.4157 355.826 98.4883 355.899 98.5527C356.124 98.7623 356.35 98.9798 356.584 99.1813C356.664 99.2458 356.737 99.3183 356.817 99.3828C357.051 99.5842 357.293 99.7938 357.535 99.9872C357.607 100.044 357.68 100.1 357.744 100.148C358.002 100.35 358.26 100.551 358.526 100.753C359.155 101.22 359.815 101.655 360.484 102.066C360.508 102.082 360.533 102.099 360.557 102.115C360.766 102.244 360.984 102.365 361.201 102.485C361.363 102.574 361.516 102.671 361.677 102.751C361.87 102.856 362.072 102.953 362.265 103.058C362.451 103.154 362.636 103.251 362.829 103.34C363.015 103.428 363.208 103.517 363.401 103.606C363.603 103.694 363.804 103.791 364.006 103.88C364.191 103.96 364.385 104.033 364.57 104.113C364.78 104.202 364.997 104.283 365.215 104.363C365.4 104.436 365.585 104.5 365.771 104.565C365.996 104.645 366.222 104.718 366.448 104.79C366.633 104.847 366.818 104.903 367.004 104.959C367.237 105.032 367.479 105.096 367.713 105.161C367.898 105.209 368.076 105.258 368.261 105.306C368.511 105.37 368.753 105.419 369.002 105.475C369.18 105.515 369.365 105.556 369.542 105.588C369.8 105.636 370.066 105.685 370.332 105.725C370.501 105.757 370.679 105.781 370.848 105.806C371.13 105.846 371.412 105.878 371.694 105.91C371.855 105.927 372.016 105.951 372.169 105.967C372.492 105.999 372.814 106.023 373.136 106.039C373.265 106.047 373.394 106.063 373.523 106.063C373.975 106.088 374.434 106.096 374.885 106.096H376.167C376.191 106.096 376.207 106.096 376.231 106.096C376.819 106.096 377.408 106.08 377.996 106.047C385.176 105.685 391.776 103.114 397.127 99.004C399.682 103.275 404.034 106.096 408.99 106.096H421.175V102.622ZM377.786 101.688C369.969 101.204 363.7 95.0391 363.063 87.2624V87.2705C363.031 86.9159 362.999 86.5694 362.99 86.2067H362.982V83.6843V80.9363V80.6945V78.1721V77.4146V77.068V75.8915V73.2482V72.3698H363.007C363.555 60.6846 373.201 51.3768 385.023 51.3768C388.456 51.3768 391.704 52.1665 394.605 53.5687L394.726 53.6574V55.9138V71.7815C394.726 72.257 394.718 72.7244 394.694 73.1918C394.694 73.2079 394.694 73.2321 394.702 73.2482H394.726V74.4248V90.2925C394.726 92.0332 394.984 93.7094 395.451 95.2728C390.414 98.9073 384.354 101.22 377.786 101.688Z" fill="#DC5041"/>
<path fill-rule="evenodd" clip-rule="evenodd" d="M564.829 19.9075L492.052 3.23082L490.537 9.84224L521.646 16.9709L520.38 105.991L531.959 106.156L533.19 19.6161L563.314 26.5189L564.829 19.9075Z" fill="#0063BD"/>
<circle cx="489.934" cy="14.7595" r="11.7595" fill="#F2CA46"/>
<circle cx="566.371" cy="15.2298" r="11.7595" fill="#F2CA46"/>
<path d="M699.5 100.025C701.948 100.025 703.172 100.976 703.172 102.878C703.172 103.734 702.644 104.495 701.588 105.161C700.532 105.827 698.708 106.16 696.116 106.16H635.13V5.21402C654.043 5.21402 672.955 5.21402 691.868 5.21402L697.772 5C701.372 5 703.172 6.04632 703.172 8.13895C703.172 8.94747 702.86 9.70842 702.236 10.4218C701.66 11.0877 700.988 11.4206 700.22 11.4206C698.972 11.4206 697.652 11.2779 696.26 10.9925C694.196 10.5645 691.364 10.3505 687.764 10.3505H671.851V32.1091H684.956C684.956 32.1091 687.908 31.9902 693.812 31.7524C694.868 31.7524 695.756 32.014 696.476 32.5371C697.244 33.0127 697.628 33.7024 697.628 34.606C697.628 36.6035 696.284 37.6023 693.596 37.6023L690.5 37.5309C688.916 37.3882 687.596 37.3169 686.54 37.3169H671.851V100.952H687.764C691.316 100.952 693.836 100.809 695.324 100.524C697.1 100.191 698.492 100.025 699.5 100.025Z" fill="#F2CA46"/>
</svg>
