<svg width="1440" height="973" viewBox="0 0 1440 973" fill="none" xmlns="http://www.w3.org/2000/svg">
<path d="M0 -1.5H1440V973H0V-1.5Z" fill="#333232"/>
<path d="M1440.99 482L1137 268.676L1150.24 249.818L1440.99 453.848V482Z" fill="#0063BD"/>
<path d="M1440.99 401.013L1244.01 262.787L1257.25 243.916L1440.99 372.861V401.013Z" fill="#DC5041"/>
<path d="M1440.99 328.155L1192.82 154.006L1206.06 135.148L1440.99 300.003V328.155Z" fill="#F2CA46"/>
<path d="M1440.99 254.35L1279.26 140.858L1292.5 122L1440.99 226.198V254.35Z" fill="#38805E"/>
<rect x="106.221" y="395.428" width="36.2207" height="36.2207" transform="rotate(180 106.221 395.428)" fill="#F2CA46"/>
<rect x="106.221" y="69.4414" width="36.2207" height="36.2207" transform="rotate(180 106.221 69.4414)" fill="#0063BD" fill-opacity="0.8"/>
<rect x="106.221" y="33.2207" width="36.2207" height="36.2207" transform="rotate(180 106.221 33.2207)" fill="#0063BD"/>
<rect x="106.221" y="105.662" width="36.2207" height="36.2207" transform="rotate(180 106.221 105.662)" fill="#0063BD" fill-opacity="0.6"/>
<rect x="106.221" y="141.883" width="36.2207" height="36.2207" transform="rotate(180 106.221 141.883)" fill="#0063BD" fill-opacity="0.4"/>
<rect x="106.221" y="178.103" width="36.2207" height="36.2207" transform="rotate(180 106.221 178.103)" fill="#0063BD" fill-opacity="0.2"/>
<rect x="106.221" y="250.545" width="36.2207" height="36.2207" transform="rotate(180 106.221 250.545)" fill="#F2CA46" fill-opacity="0.2"/>
<rect x="106.221" y="286.765" width="36.2207" height="36.2207" transform="rotate(180 106.221 286.765)" fill="#F2CA46" fill-opacity="0.4"/>
<rect x="106.221" y="322.986" width="36.2207" height="36.2207" transform="rotate(180 106.221 322.986)" fill="#F2CA46" fill-opacity="0.6"/>
<rect x="106.221" y="359.207" width="36.2207" height="36.2207" transform="rotate(180 106.221 359.207)" fill="#F2CA46" fill-opacity="0.8"/>
<path d="M267.342 92.0473H182.56V176.829C229.235 176.492 267.004 138.723 267.342 92.0473Z" fill="#DC5041"/>
<path d="M106.22 140.397C119.94 111.973 148.935 92.3003 182.559 92.0541V176.836H106.22V140.397Z" fill="#DC5041"/>
<path d="M502.43 -3L300.498 226.467L106.22 47.8775V-3L502.43 -3Z" fill="#38805E"/>
<path d="M230.213 161.878L158.243 95.7625C165.94 93.4125 174.102 92.1179 182.559 92.0616V92.0546H267.341C267.13 121.042 252.474 146.597 230.213 161.878Z" fill="#F2CA46"/>
<path d="M543.874 156.58C517.384 186.12 469.581 186.493 437.096 157.414L454.368 138.154C475.154 156.761 505.744 156.522 522.694 137.621C539.645 118.719 536.535 88.3139 515.749 69.7072L533.021 50.4474C565.505 79.5261 570.364 127.041 543.874 156.58Z" fill="#0063BD"/>
<path d="M540.352 52.412L439.864 164.386C438.533 165.869 436.288 166.035 434.857 164.755L418.952 150.528C417.521 149.248 417.44 147.002 418.772 145.519L421.172 142.844L424.164 145.521C424.841 146.126 425.905 146.049 426.533 145.349C427.165 144.645 427.121 143.586 426.444 142.98L423.452 140.304L434.513 127.978L440.378 133.223C441.055 133.829 442.118 133.752 442.746 133.052C443.374 132.352 443.335 131.288 442.658 130.683L436.793 125.437L447.855 113.112L450.847 115.788C451.524 116.394 452.588 116.316 453.215 115.617C453.843 114.917 453.804 113.853 453.127 113.247L450.135 110.571L461.196 98.2453L467.06 103.491C467.737 104.096 468.801 104.019 469.429 103.319C470.057 102.62 470.017 101.556 469.34 100.95L463.476 95.7047L474.538 83.379L477.53 86.0554C478.207 86.661 479.27 86.5837 479.898 85.884C480.526 85.1844 480.487 84.1204 479.81 83.5148L476.818 80.8384L487.879 68.5127L493.743 73.7581C494.42 74.3637 495.484 74.2863 496.112 73.5867C496.74 72.887 496.7 71.8231 496.023 71.2175L490.159 65.9721L501.22 53.6464L504.213 56.3228C504.89 56.9284 505.953 56.8511 506.581 56.1514C507.209 55.4518 507.17 54.3879 506.492 53.7823L503.5 51.1058L514.562 38.7801L520.426 44.0255C521.103 44.6311 522.167 44.5538 522.794 43.8541C523.422 43.1545 523.383 42.0905 522.706 41.4849L516.842 36.2395L519.242 33.565C520.573 32.0813 522.818 31.9158 524.249 33.1955L540.154 47.4225C541.603 48.6823 541.684 50.9283 540.352 52.412Z" fill="#F3CA45"/>
<path d="M443.782 133.807C443.144 134.518 441.999 134.522 441.223 133.827L434.479 127.787L436.783 125.217L443.526 131.257C444.298 131.958 444.415 133.101 443.782 133.807Z" fill="#0063BD"/>
<path d="M470.393 104.123C469.755 104.835 468.611 104.839 467.834 104.143L461.091 98.1029L463.394 95.5329L470.138 101.573C470.909 102.274 471.026 103.417 470.393 104.123Z" fill="#0063BD"/>
<path d="M497.004 74.4395C496.366 75.1509 495.221 75.1549 494.445 74.4596L487.701 68.4192L490.005 65.8492L496.748 71.8897C497.52 72.59 497.637 73.7332 497.004 74.4395Z" fill="#0063BD"/>
<path d="M523.615 44.7559C522.978 45.4672 521.833 45.4713 521.057 44.776L514.313 38.7355L516.612 36.1705L523.355 42.211C524.131 42.9063 524.248 44.0495 523.615 44.7559Z" fill="#0063BD"/>
<path d="M427.162 145.684C426.526 146.394 425.383 146.398 424.608 145.704L421.173 142.628L423.472 140.063L426.907 143.14C427.677 143.839 427.798 144.974 427.162 145.684Z" fill="#0063BD"/>
<path d="M453.773 116C453.137 116.71 451.994 116.714 451.219 116.02L447.784 112.944L450.082 110.38L453.518 113.456C454.288 114.155 454.409 115.291 453.773 116Z" fill="#0063BD"/>
<path d="M480.384 86.3168C479.748 87.0265 478.605 87.0303 477.83 86.3363L474.395 83.2602L476.694 80.6961L480.129 83.7722C480.899 84.4712 481.021 85.607 480.384 86.3168Z" fill="#0063BD"/>
<path d="M506.995 56.633C506.359 57.3428 505.216 57.3466 504.441 56.6526L501.006 53.5764L503.305 51.0123L506.74 54.0885C507.51 54.7874 507.631 55.9232 506.995 56.633Z" fill="#0063BD"/>
<path d="M501.723 684.647L493.175 672.299C492.547 671.393 491.315 671.169 490.41 671.795L449.657 700.009L451.594 702.807L373.458 756.9C372.562 757.521 372.33 758.759 372.957 759.665L373.117 759.896L371.706 760.873C370.81 761.493 370.578 762.732 371.205 763.638L375.233 769.456C375.854 770.353 377.092 770.587 377.997 769.96L379.408 768.983L379.568 769.214C380.189 770.112 381.427 770.345 382.332 769.719L460.477 715.619L461.461 714.937L501.221 687.411C502.12 686.776 502.344 685.544 501.723 684.647Z" fill="#0063BD"/>
<path d="M373.388 766.791L369.36 760.973C368.739 760.076 368.956 758.835 369.861 758.208L372.834 756.15C373.73 755.53 374.971 755.748 375.598 756.654L379.626 762.473C380.247 763.37 380.03 764.611 379.125 765.237L376.152 767.295C375.25 767.907 374.009 767.688 373.388 766.791Z" fill="#DC5041"/>
<path d="M377.732 766.543L371.121 756.994C370.5 756.097 370.717 754.856 371.622 754.229L450.743 699.454C451.639 698.834 452.88 699.052 453.507 699.958L460.118 709.507C460.739 710.405 460.522 711.646 459.617 712.272L380.496 767.047C379.585 767.665 378.353 767.44 377.732 766.543Z" fill="#F3CA45"/>
<path d="M458.626 712.945L447.821 697.338L488.566 669.13C489.471 668.504 490.703 668.729 491.33 669.635L499.878 681.982C500.499 682.879 500.282 684.12 499.377 684.747L458.632 712.954L458.626 712.945Z" fill="#DC5041"/>
<path d="M800.133 748.331C800.621 748.884 800.879 749.613 800.749 750.331C800.749 750.331 800.079 754.129 795.811 758.858C791.548 763.581 787.833 764.642 787.833 764.642C787.068 764.859 786.234 764.622 785.614 764.103C785.71 764.222 785.818 764.339 785.936 764.445L862.566 833.601C863.491 834.436 864.858 834.443 865.602 833.619L877.297 820.66C878.041 819.836 877.894 818.477 876.969 817.642L800.339 748.486C800.277 748.43 800.2 748.381 800.133 748.331Z" fill="#F3CA45"/>
<path d="M876.343 820.168L865.011 832.715C864.165 833.652 864.224 835.098 865.144 835.928L871.384 841.554C871.997 842.108 872.846 842.244 873.592 841.999C873.651 841.98 873.72 841.959 873.788 841.928C873.825 841.91 873.872 841.891 873.909 841.873C875.31 841.218 878.239 838.983 881.088 835.829C883.9 832.715 885.795 829.62 886.335 828.137C886.691 827.273 886.509 826.242 885.79 825.593L879.55 819.967C878.636 819.142 877.19 819.23 876.343 820.168Z" fill="#EE2638"/>
<path d="M874.785 815.671L860.373 831.627L866.927 837.537L881.339 821.581L874.785 815.671Z" fill="#0063BD"/>
<path d="M797.106 746.753L781.923 743.289C781.865 744.027 781.541 744.812 780.949 745.467C780.356 746.123 779.614 746.531 778.88 746.659L783.88 761.397C784.25 762.49 785.434 763.096 786.512 762.744C786.512 762.744 789.908 761.641 793.937 757.18C797.966 752.719 798.716 749.231 798.716 749.231C798.956 748.124 798.232 747.009 797.106 746.753Z" fill="#F8F0E7"/>
<path d="M781.872 743.236L779.366 742.658C778.241 742.402 777.629 743.08 777.999 744.173L778.819 746.605C779.547 746.471 780.295 746.069 780.887 745.414C781.484 744.753 781.814 743.973 781.872 743.236Z" fill="#333232"/>
<path d="M143.266 542.848L160.828 526.257L149.511 542.423L164.341 529.976L150.809 546.28L169.771 529.929L151.073 551.113L166.306 538.677L159.775 549.148" stroke="white" stroke-width="3.00293" stroke-linecap="round" stroke-linejoin="round"/>
<path d="M199.368 556.356C200.401 552.853 198.729 549.359 195.633 548.551L165.354 540.651C162.258 539.844 158.911 542.029 157.878 545.531L152.879 562.48L194.369 573.305L199.368 556.356Z" fill="white"/>
<path d="M177.588 631.149L195.011 572.181L154.326 561.589L136.903 620.557C135.89 623.985 137.531 627.405 140.566 628.195L170.258 635.924C173.293 636.715 176.576 634.576 177.588 631.149Z" fill="#0063BD"/>
<rect x="432.96" y="847" width="34.36" height="34.36" transform="rotate(90 432.96 847)" fill="#F2CA46"/>
<rect x="123.72" y="847" width="34.36" height="34.36" transform="rotate(90 123.72 847)" fill="#38805E" fill-opacity="0.8"/>
<rect x="89.3599" y="847" width="34.36" height="34.36" transform="rotate(90 89.3599 847)" fill="#38805E"/>
<rect x="158.08" y="847" width="34.36" height="34.36" transform="rotate(90 158.08 847)" fill="#38805E" fill-opacity="0.6"/>
<rect x="192.44" y="847" width="34.36" height="34.36" transform="rotate(90 192.44 847)" fill="#38805E" fill-opacity="0.4"/>
<rect x="226.8" y="847" width="34.36" height="34.36" transform="rotate(90 226.8 847)" fill="#38805E" fill-opacity="0.2"/>
<rect x="295.52" y="847" width="34.36" height="34.36" transform="rotate(90 295.52 847)" fill="#F2CA46" fill-opacity="0.2"/>
<rect x="329.88" y="847" width="34.36" height="34.36" transform="rotate(90 329.88 847)" fill="#F2CA46" fill-opacity="0.4"/>
<rect x="364.24" y="847" width="34.36" height="34.36" transform="rotate(90 364.24 847)" fill="#F2CA46" fill-opacity="0.6"/>
<rect x="398.6" y="847" width="34.36" height="34.36" transform="rotate(90 398.6 847)" fill="#F2CA46" fill-opacity="0.8"/>
<circle cx="1244.89" cy="719.886" r="108.072" fill="#F8F0E7" stroke="#4E4E4E" stroke-width="1.62852"/>
<path d="M1241.3 612.126L1239.62 637.077V659.495V680.998L1249.23 743.676V782.792V802.922V829M1241.3 612.126L1264.56 647.829L1275.08 672.534V699.755L1296.58 730.637V753.054V775.701L1281.03 802.922L1249.23 829M1241.3 612.126L1216.98 637.077L1209.43 659.495V680.998V699.755L1201.65 725.604V743.676L1209.43 759.002V782.792L1216.98 802.922L1249.23 829M1241.3 612.126L1201.65 629.071L1186.33 653.09V680.998L1171.23 725.604V759.002L1186.33 775.701L1194.1 802.922L1249.23 829M1241.3 612.126L1184.95 630.672L1158.87 667.273L1152.93 699.755L1149.5 740.244L1165.51 775.701L1171.23 790.341L1197.76 814.36L1249.23 829" stroke="#4E4E4E" stroke-width="0.814261"/>
<path d="M1184.04 629.986L1185.18 630.901L1198.45 634.104L1216.98 637.077L1239.4 638.908H1257.92L1264.79 647.6L1275.31 672.305L1239.4 670.933H1209.43L1186.78 669.103L1163.68 661.783L1158.19 655.149M1275.31 699.984H1243.06H1209.43L1181.29 696.095L1155.67 689.233L1143.78 681.227M1296.58 730.408H1247.17L1201.42 726.291L1171.69 723.774L1151.56 716.226L1137.6 703.187M1296.58 775.015H1249.46L1209.43 769.525L1171.69 759.231L1149.5 741.388L1136 728.121M1281.26 802.922H1249.46H1216.98L1192.27 795.602L1171 789.426L1155.67 780.276" stroke="#4E4E4E" stroke-width="0.814261"/>
<path d="M1262.5 644.5L1241.5 611.5L1251 612L1264.56 612.601L1280.8 617.176L1291.78 621.522L1304.82 629.071L1313.74 635.476L1322.89 643.94L1332.5 654.92L1339.82 666.815L1344.85 676.88L1349.98 690.834H1352.86L1371.39 682.828L1395.18 678.024L1422.4 665.214L1459.23 661.096L1447.1 793.772L1249 829L1281.03 802.694L1296.58 775.472V730.637L1275.08 699.756V672.5L1265 647.5L1262.5 644.5Z" fill="#363636" fill-opacity="0.88"/>
<path d="M1020.89 230.291L960.748 208.351C959.77 207.994 959.26 206.893 959.61 205.894L971.747 171.248C972.097 170.249 973.175 169.728 974.153 170.084L1034.3 192.024C1035.28 192.381 1035.79 193.482 1035.44 194.481L1023.3 229.128C1022.95 230.126 1021.87 230.648 1020.89 230.291Z" fill="#F3CA45"/>
<path d="M1019.18 226.387L958.799 204.359C957.817 204 957.304 202.895 957.655 201.893L969.833 167.131C970.184 166.129 971.266 165.606 972.248 165.964L1032.63 187.992C1033.62 188.351 1034.13 189.456 1033.78 190.458L1021.6 225.22C1021.25 226.222 1020.17 226.745 1019.18 226.387Z" fill="#DC5041"/>
<path d="M1024.78 197.47L974.289 179.053C973.807 178.877 973.558 178.341 973.73 177.849C973.903 177.357 974.428 177.103 974.91 177.279L1025.4 195.696C1025.88 195.872 1026.13 196.408 1025.96 196.9C1025.79 197.386 1025.26 197.646 1024.78 197.47Z" fill="#1E1E1D"/>
<path d="M1021.58 206.605L971.089 188.188C970.606 188.012 970.358 187.476 970.53 186.984C970.703 186.492 971.228 186.239 971.71 186.415L1022.2 204.832C1022.68 205.008 1022.93 205.544 1022.76 206.036C1022.58 206.528 1022.06 206.781 1021.58 206.605Z" fill="#1E1E1D"/>
<path d="M1018.38 215.741L967.888 197.324C967.406 197.148 967.158 196.612 967.33 196.12C967.502 195.628 968.028 195.374 968.51 195.55L1019 213.967C1019.48 214.143 1019.73 214.679 1019.56 215.171C1019.38 215.663 1018.86 215.917 1018.38 215.741Z" fill="#1E1E1D"/>
</svg>
