<svg width="1440" height="654" viewBox="0 0 1440 654" fill="none" xmlns="http://www.w3.org/2000/svg">
<path d="M1126.55 275H641.553V288.7H1126.55V275Z" fill="#DC5041"/>
<path d="M1142.15 363.176C1193.22 363.176 1234.62 321.774 1234.62 270.702C1234.62 219.63 1193.22 178.228 1142.15 178.228C1091.08 178.228 1049.68 219.63 1049.68 270.702C1049.68 321.774 1091.08 363.176 1142.15 363.176Z" fill="#0063BD"/>
<path d="M1407.55 688.969V516.981H1235.56C1236.26 611.664 1312.87 688.282 1407.55 688.969Z" fill="#0063BD"/>
<path d="M1235.55 345V516.988H1407.54C1406.85 422.299 1330.24 345.688 1235.55 345Z" fill="#0063BD"/>
<path d="M1212.71 0L1081.07 480L1439.8 415.421V0H1212.71Z" fill="#DC5041"/>
<path d="M1439.88 354.095C1439.8 354.095 1439.71 354.095 1439.63 354.095C1415.31 354.095 1395.61 334.384 1395.61 310.076C1395.61 285.76 1415.32 266.056 1439.63 266.056C1439.71 266.056 1439.8 266.056 1439.88 266.056V257C1439.8 257 1439.71 257 1439.63 257C1410.32 257 1386.55 280.764 1386.55 310.076C1386.55 339.387 1410.32 363.151 1439.63 363.151C1439.71 363.151 1439.8 363.151 1439.88 363.151V354.095Z" fill="white"/>
<path d="M1142.15 363.176C1193.22 363.176 1234.62 321.774 1234.62 270.702C1234.62 226.833 1204.08 190.099 1163.09 180.61L1114.28 358.903C1123.08 361.679 1132.44 363.176 1142.15 363.176Z" fill="#F2CA46"/>
<path d="M548.553 415.055V835.945H243.073V415.055H548.553ZM566.553 397H225.073V854H566.553V397Z" fill="white"/>
<path d="M521.803 437.75H167.763V684H521.803V437.75Z" fill="#38805E"/>
<path d="M167.65 591.612C167.557 591.612 167.465 591.612 167.373 591.612C140.427 591.612 118.588 569.773 118.588 542.827C118.588 515.882 140.427 494.042 167.373 494.042C167.465 494.042 167.557 494.042 167.65 494.042V484.007C167.557 484.007 167.465 484 167.373 484C134.888 484 108.553 510.335 108.553 542.82C108.553 575.305 134.888 601.64 167.373 601.64C167.465 601.64 167.557 601.64 167.65 601.64V591.612Z" fill="#333232"/>
<path d="M167.649 591.612C167.742 591.612 167.834 591.612 167.926 591.612C194.872 591.612 216.711 569.773 216.711 542.827C216.711 515.882 194.872 494.042 167.926 494.042C167.834 494.042 167.742 494.042 167.649 494.042V484.007C167.742 484.007 167.834 484 167.926 484C200.412 484 226.746 510.335 226.746 542.82C226.746 575.305 200.412 601.64 167.926 601.64C167.834 601.64 167.742 601.64 167.649 601.64V591.612Z" fill="white"/>
<path d="M743.553 572H425.553V598.317H743.553V572Z" fill="#F2CA46"/>
<path d="M459.555 248.902C459.458 248.902 459.361 248.902 459.264 248.902C430.994 248.902 408.081 225.989 408.081 197.719C408.081 169.449 430.994 146.536 459.264 146.536C459.361 146.536 459.458 146.536 459.555 146.536V136.007C459.458 136.007 459.361 136 459.264 136C425.182 136 397.553 163.629 397.553 197.712C397.553 231.794 425.182 259.423 459.264 259.423C459.361 259.423 459.458 259.423 459.555 259.423V248.902Z" fill="white"/>
<path d="M459.551 248.902C459.647 248.902 459.744 248.902 459.841 248.902C488.111 248.902 511.024 225.989 511.024 197.719C511.024 169.449 488.111 146.536 459.841 146.536C459.744 146.536 459.647 146.536 459.551 146.536V136.007C459.647 136.007 459.744 136 459.841 136C493.923 136 521.553 163.629 521.553 197.712C521.553 231.794 493.923 259.423 459.841 259.423C459.744 259.423 459.647 259.423 459.551 259.423V248.902Z" fill="white"/>
<path d="M960.207 439.551L1001.28 554.974L865.001 487.346L960.207 439.551ZM968.873 418L830.553 487.436L1028.55 585.692L968.873 418Z" fill="white"/>
<path d="M-1 467L298 253.13L65.2944 0H-1V467Z" fill="#0063BD"/>
<path d="M122.938 210.095V99.543H233.49C233.049 160.406 183.801 209.655 122.938 210.095Z" fill="#DC5041"/>
<path d="M185.984 0C148.919 17.8902 123.267 55.6981 122.946 99.5428H233.498V0H185.984Z" fill="#DC5041"/>
<path d="M213.994 161.681L127.782 67.8359C124.717 77.8728 123.029 88.5151 122.956 99.5428H122.947V210.095C160.745 209.82 194.067 190.709 213.994 161.681Z" fill="#F2CA46"/>
</svg>
