<svg width="1440" height="654" viewBox="0 0 1440 654" fill="none" xmlns="http://www.w3.org/2000/svg">
<path d="M1222 275H423V288.7H1222V275Z" fill="#38805E"/>
<path d="M623 345H-20V358.7H623V345Z" fill="#DC5041"/>
<path d="M1234.61 250.386C1269.82 250.386 1298.37 221.842 1298.37 186.631C1298.37 151.42 1269.82 122.876 1234.61 122.876C1199.4 122.876 1170.86 151.42 1170.86 186.631C1170.86 221.842 1199.4 250.386 1234.61 250.386Z" fill="#0063BD"/>
<path d="M1417.59 475V356.426H1299.02C1299.5 421.703 1352.31 474.526 1417.59 475Z" fill="#0063BD"/>
<path d="M1299.01 237.855V356.43H1417.58C1417.11 291.148 1364.29 238.329 1299.01 237.855Z" fill="#0063BD"/>
<path d="M1283.26 0L1192.5 330.929L1439.82 286.406V0H1283.26Z" fill="#DC5041"/>
<path d="M1439.88 244.126C1439.82 244.126 1439.76 244.126 1439.71 244.126C1422.94 244.126 1409.36 230.537 1409.36 213.777C1409.36 197.013 1422.95 183.429 1439.71 183.429C1439.76 183.429 1439.82 183.429 1439.88 183.429V177.185C1439.82 177.185 1439.76 177.185 1439.71 177.185C1419.5 177.185 1403.11 193.569 1403.11 213.777C1403.11 233.986 1419.5 250.37 1439.71 250.37C1439.76 250.37 1439.82 250.37 1439.88 250.37V244.126Z" fill="white"/>
<path d="M1234.61 250.386C1269.83 250.386 1298.37 221.842 1298.37 186.631C1298.37 156.387 1277.31 131.061 1249.05 124.519L1215.4 247.44C1221.47 249.354 1227.92 250.386 1234.61 250.386Z" fill="#F2CA46"/>
<path d="M970 543H696V556.7H970V543Z" fill="#0063BD"/>
<path d="M437.464 469.314V779.686H212.197V469.314H437.464ZM450.737 456H198.924V793H450.737V456Z" fill="white"/>
<path d="M417.738 486.05H156.663V667.639H417.738V486.05Z" fill="#38805E"/>
<path d="M156.579 599.51C156.511 599.51 156.443 599.51 156.375 599.51C136.505 599.51 120.4 583.406 120.4 563.535C120.4 543.665 136.505 527.561 156.375 527.561C156.443 527.561 156.511 527.561 156.579 527.561V520.161C156.511 520.161 156.443 520.155 156.375 520.155C132.42 520.155 113 539.575 113 563.53C113 587.485 132.42 606.905 156.375 606.905C156.443 606.905 156.511 606.905 156.579 606.905V599.51Z" fill="#333232"/>
<path d="M156.579 599.51C156.647 599.51 156.715 599.51 156.783 599.51C176.653 599.51 192.758 583.406 192.758 563.535C192.758 543.665 176.653 527.561 156.783 527.561C156.715 527.561 156.647 527.561 156.579 527.561V520.161C156.647 520.161 156.715 520.155 156.783 520.155C180.739 520.155 200.158 539.575 200.158 563.53C200.158 587.485 180.739 606.905 156.783 606.905C156.715 606.905 156.647 606.905 156.579 606.905V599.51Z" fill="white"/>
<path d="M581.261 585.048H346.762V604.455H581.261V585.048Z" fill="#F2CA46"/>
<path d="M469.695 223.925C469.63 223.925 469.565 223.925 469.5 223.925C450.489 223.925 435.08 208.516 435.08 189.505C435.08 170.494 450.489 155.085 469.5 155.085C469.565 155.085 469.63 155.085 469.695 155.085V148.005C469.63 148.005 469.565 148 469.5 148C446.58 148 428 166.58 428 189.5C428 212.42 446.58 231 469.5 231C469.565 231 469.63 231 469.695 231V223.925Z" fill="white"/>
<path d="M469.692 223.925C469.757 223.925 469.823 223.925 469.888 223.925C488.899 223.925 504.307 208.516 504.307 189.505C504.307 170.494 488.899 155.085 469.888 155.085C469.823 155.085 469.757 155.085 469.692 155.085V148.005C469.757 148.005 469.823 148 469.888 148C492.807 148 511.388 166.58 511.388 189.5C511.388 212.42 492.807 231 469.888 231C469.823 231 469.757 231 469.692 231V223.925Z" fill="white"/>
<path d="M936.614 474.735L960.886 542.939L880.356 502.977L936.614 474.735ZM941.735 462L860 503.03L977 561.091L941.735 462Z" fill="white"/>
<path d="M-1 314L200 170.199L43.5658 0H-1V314Z" fill="#0063BD"/>
<path d="M82 148.333V74H156.333C156.037 114.923 122.923 148.037 82 148.333Z" fill="#DC5041"/>
<path d="M156.33 0V74.33H82.0001C82.2999 33.4072 115.41 0.297135 156.33 0Z" fill="#DC5041"/>
<path d="M143.557 108.711L85.5898 45.6113C83.5294 52.3599 82.3944 59.5155 82.345 66.9303H82.3389V141.263C107.754 141.078 130.159 128.229 143.557 108.711Z" fill="#F2CA46"/>
</svg>
