<svg width="245" height="199" viewBox="0 0 245 199" fill="none" xmlns="http://www.w3.org/2000/svg">
<path d="M43.5314 39.4861L57.323 78.2395L11.5662 55.5333L43.5314 39.4861ZM46.4413 32.2502L0 55.5634L66.4787 88.5531L46.4413 32.2502Z" fill="white"/>
<path d="M214.825 4.59221V111.642H134.052V4.59221H214.825ZM219.585 0H129.292V116.234H219.585V0Z" fill="white"/>
<path d="M48.1831 67.7415L188.3 23.012V137.321L48.1831 182.05V67.7415Z" fill="#0063BD"/>
<path d="M44.0923 62.1164L183.698 17.3868V131.696L44.0923 176.425V62.1164Z" fill="#1669B5" fill-opacity="0.4"/>
<path d="M48.1831 67.1485L188.3 23.012V32.0586L48.1831 76.1952V67.1485Z" fill="#F2CA46"/>
<path d="M63.5244 120.897C68.3564 126.556 82.1622 136.936 98.7291 133.181C119.438 128.488 110.188 78.797 130.897 77.2786C151.605 75.7603 149.949 103.229 163.754 101.71" stroke="#F2CA46" stroke-width="5"/>
<path d="M217.579 59.4432C206.001 51.8414 190.068 55.4772 181.989 67.5644L189.537 72.5209C194.707 64.7866 204.903 62.46 212.311 67.3242C219.719 72.1884 221.533 82.4013 216.363 90.1356L223.912 95.092C231.991 83.0048 229.156 67.0451 217.579 59.4432Z" fill="#F2CA46"/>
<path d="M226.814 93.5103L182.443 64.2614C181.855 63.8738 181.085 63.9988 180.724 64.54L176.719 70.5574C176.359 71.0987 176.544 71.8536 177.131 72.2412L178.191 72.9398L178.945 71.8078C179.115 71.5516 179.48 71.4921 179.758 71.6748C180.037 71.8589 180.122 72.2153 179.952 72.4714L179.198 73.6034L184.082 76.8231L185.559 74.6045C185.729 74.3484 186.094 74.2888 186.372 74.4715C186.649 74.6543 186.736 75.012 186.566 75.2681L185.089 77.4867L189.973 80.7063L190.727 79.5743C190.897 79.3182 191.262 79.2586 191.539 79.4414C191.817 79.6241 191.904 79.9818 191.733 80.238L190.98 81.37L195.864 84.5896L197.341 82.371C197.511 82.1149 197.876 82.0553 198.153 82.2381C198.431 82.4208 198.518 82.7785 198.347 83.0347L196.871 85.2532L201.755 88.4729L202.508 87.3409C202.679 87.0847 203.044 87.0251 203.321 87.2079C203.598 87.3906 203.686 87.7483 203.515 88.0045L202.762 89.1365L207.646 92.3561L209.123 90.1376C209.293 89.8814 209.658 89.8218 209.935 90.0046C210.213 90.1874 210.3 90.545 210.129 90.8012L208.652 93.0198L213.537 96.2394L214.29 95.1074C214.461 94.8513 214.826 94.7917 215.103 94.9744C215.38 95.1572 215.467 95.5149 215.297 95.771L214.543 96.903L219.428 100.123L220.904 97.9041C221.075 97.648 221.44 97.5884 221.717 97.7711C221.994 97.9539 222.082 98.3116 221.911 98.5677L220.434 100.786L221.494 101.485C222.082 101.872 222.853 101.747 223.213 101.206L227.218 95.1888C227.586 94.6528 227.402 93.8978 226.814 93.5103Z" fill="#DC5041"/>
<path d="M186.593 73.933C186.322 73.7551 185.951 73.8419 185.763 74.1234L184.128 76.5691L185.107 77.2117L186.742 74.766C186.928 74.4833 186.862 74.1096 186.593 73.933Z" fill="#F2CA46"/>
<path d="M198.436 81.7931C198.164 81.6152 197.793 81.702 197.605 81.9835L195.97 84.4292L196.949 85.0718L198.584 82.6261C198.771 82.3434 198.705 81.9697 198.436 81.7931Z" fill="#F2CA46"/>
<path d="M210.278 89.6534C210.007 89.4756 209.636 89.5623 209.447 89.8438L207.812 92.2893L208.792 92.9319L210.427 90.4864C210.613 90.2036 210.547 89.83 210.278 89.6534Z" fill="#F2CA46"/>
<path d="M222.12 97.5135C221.848 97.3357 221.477 97.4225 221.289 97.7039L219.654 100.149L220.632 100.791L222.267 98.3452C222.455 98.0638 222.389 97.6901 222.12 97.5135Z" fill="#F2CA46"/>
<path d="M179.882 71.1892C179.609 71.0103 179.235 71.0972 179.046 71.3798L178.207 72.6326L179.194 73.2788L180.032 72.0261C180.22 71.7422 180.155 71.3681 179.882 71.1892Z" fill="#F2CA46"/>
<path d="M191.724 79.05C191.451 78.8712 191.077 78.958 190.888 79.2407L190.049 80.4934L191.035 81.1396L191.874 79.8869C192.062 79.603 191.997 79.2289 191.724 79.05Z" fill="#F2CA46"/>
<path d="M203.565 86.9101C203.292 86.7313 202.919 86.8181 202.73 87.1008L201.891 88.3535L202.877 88.9998L203.716 87.747C203.903 87.4631 203.838 87.089 203.565 86.9101Z" fill="#F2CA46"/>
<path d="M215.408 94.7703C215.135 94.5914 214.761 94.6783 214.572 94.9609L213.733 96.2138L214.72 96.8601L215.558 95.6072C215.746 95.3233 215.681 94.9492 215.408 94.7703Z" fill="#F2CA46"/>
<path d="M96.5276 175.48L79.0176 197.138C78.7329 197.49 78.2153 197.545 77.8628 197.26L65.6368 187.375C65.2843 187.09 65.2293 186.573 65.5141 186.221L83.0241 164.563C83.3088 164.211 83.8264 164.156 84.1789 164.441L96.4049 174.325C96.7574 174.61 96.8124 175.128 96.5276 175.48Z" fill="#F3CA45"/>
<path d="M94.7075 175.632L77.1272 197.377C76.8413 197.731 76.3219 197.786 75.9682 197.5L63.7014 187.582C63.3478 187.297 63.2928 186.777 63.5787 186.423L81.159 164.678C81.4449 164.325 81.9644 164.27 82.318 164.556L94.5848 174.473C94.9385 174.759 94.9935 175.279 94.7075 175.632Z" fill="#DC5041"/>
<path d="M83.8498 169.25L69.1513 187.431C69.011 187.604 68.759 187.631 68.5854 187.491C68.4118 187.35 68.3851 187.098 68.5255 186.925L83.224 168.744C83.3643 168.571 83.6163 168.544 83.7899 168.684C83.9614 168.823 83.9902 169.077 83.8498 169.25Z" fill="#1E1E1D"/>
<path d="M87.0735 171.856L72.375 190.037C72.2346 190.21 71.9826 190.237 71.809 190.097C71.6354 189.956 71.6087 189.704 71.7491 189.531L86.4476 171.35C86.588 171.177 86.8399 171.15 87.0135 171.29C87.1871 171.431 87.2138 171.683 87.0735 171.856Z" fill="#1E1E1D"/>
<path d="M90.2966 174.463L75.5981 192.643C75.4578 192.817 75.2058 192.843 75.0322 192.703C74.8586 192.563 74.8319 192.311 74.9722 192.137L89.6707 173.957C89.8111 173.783 90.0631 173.756 90.2367 173.897C90.4103 174.037 90.437 174.289 90.2966 174.463Z" fill="#1E1E1D"/>
<path d="M210.587 126.455C197.685 115.422 178.076 117.129 166.79 130.269C155.504 143.408 156.814 163.003 169.716 174.037C182.618 185.07 202.227 183.363 213.513 170.223C224.799 157.084 223.489 137.488 210.587 126.455Z" fill="#38805E"/>
<path d="M210.458 126.408C197.582 115.398 178.013 117.102 166.75 130.213C157.075 141.476 156.675 157.491 164.915 168.762L216.541 133.512C214.936 130.904 212.906 128.502 210.458 126.408Z" fill="#F2CA46"/>
</svg>
