<svg width="257" height="170" viewBox="0 0 257 170" fill="none" xmlns="http://www.w3.org/2000/svg">
<path d="M75.7484 100.569L115.794 95.6583L81.0419 136.158L75.7484 100.569ZM69.9147 96.009L77.6044 147.715L128.094 88.8739L69.9147 96.009Z" fill="white"/>
<path d="M2.25 59.8185V18.25H254.66V59.8185H2.25Z" stroke="white" stroke-width="4.5"/>
<path d="M186.786 17.4431C181.016 5.66677 164.396 -3.96842 145.064 1.6414C135.826 4.29531 127.766 9.98669 122.201 17.7857C116.635 9.98669 108.575 4.29531 99.3374 1.6414C79.9618 -3.88277 63.385 5.66677 57.6154 17.4431C49.5207 33.93 52.8792 52.4724 67.6046 72.5564C79.1438 88.2724 95.6345 104.203 119.574 122.702C120.331 123.289 121.263 123.608 122.222 123.608C123.181 123.608 124.113 123.289 124.87 122.702C148.767 104.245 165.3 88.4437 176.84 72.5564C191.522 52.4724 194.88 33.93 186.786 17.4431Z" fill="#DC5041" fill-opacity="0.4"/>
<path d="M195.513 23.116C190.06 11.9689 174.35 2.84861 156.077 8.15867C147.345 10.6708 139.727 16.058 134.467 23.4403C129.207 16.058 121.588 10.6708 112.856 8.15867C94.5426 2.92968 78.8741 11.9689 73.4206 23.116C65.7695 38.7219 68.9439 56.2735 82.8624 75.2843C93.7693 90.1606 109.356 105.24 131.984 122.751C132.699 123.306 133.58 123.608 134.487 123.608C135.394 123.608 136.275 123.306 136.99 122.751C159.577 105.28 175.205 90.3227 186.112 75.2843C199.99 56.2735 203.164 38.7219 195.513 23.116Z" fill="#DC5041"/>
<path d="M66.5308 65.7008H97.1829L114.792 33.9685L140.226 89.6392L156.531 65.7008H199.574" stroke="#F2CA46" stroke-width="5"/>
<g clip-path="url(#clip0)">
<path d="M256.56 91.0798H163.579V147.842H256.56V91.0798Z" fill="#ECCA5F"/>
<path d="M252.98 94.578H160V151.341H252.98V94.578Z" fill="#38805E"/>
<path d="M206.494 136.58C214.017 136.58 220.115 130.482 220.115 122.959C220.115 115.437 214.017 109.338 206.494 109.338C198.971 109.338 192.873 115.437 192.873 122.959C192.873 130.482 198.971 136.58 206.494 136.58Z" fill="#F7F0E8"/>
<path d="M193.035 93.2368C193.035 85.7153 199.126 79.6157 206.648 79.6157C214.169 79.6157 220.269 85.7153 220.269 93.2368" stroke="#0063BD" stroke-width="4" stroke-miterlimit="10"/>
<path d="M206.494 115.26V130.65" stroke="#38805E" stroke-width="3" stroke-miterlimit="10"/>
<path d="M198.795 122.959H214.185" stroke="#38805E" stroke-width="3" stroke-miterlimit="10"/>
</g>
<rect x="117.848" y="169.125" width="65.1999" height="22.4827" rx="11.2414" transform="rotate(-174.046 117.848 169.125)" fill="#F2CA46"/>
<path d="M85.2007 165.721L64.1809 163.528C58.006 162.884 53.5223 157.357 54.1664 151.182C54.8104 145.007 60.3383 140.523 66.5132 141.167L87.5329 143.359L85.2007 165.721Z" fill="#0063BD"/>
<defs>
<clipPath id="clip0">
<rect width="97" height="75" fill="white" transform="translate(160 76)"/>
</clipPath>
</defs>
</svg>
