<svg width="181" height="161" viewBox="0 0 181 161" fill="none" xmlns="http://www.w3.org/2000/svg">
<g clip-path="url(#clip0)">
<path d="M-14.1973 23.1586C-8.28519 35.478 4.20901 44.004 18.6982 44.1107V7.36601H-14.1973V23.1586Z" fill="#38805E"/>
<path d="M55.256 44.1418H18.6924L18.6924 7.36698C38.8221 7.51347 55.1104 23.8958 55.256 44.1418Z" fill="#38805E"/>
<path d="M39.4253 13.8295L8.36084 42.5322C11.6832 43.5523 15.206 44.1144 18.8564 44.1388V44.1418H55.4511C55.36 31.5575 49.0341 20.4638 39.4253 13.8295Z" fill="#38805E"/>
<path d="M-1.76028 37.6963L29.3042 8.9936C25.9818 7.97342 22.459 7.4114 18.8087 7.38696V7.38391L-17.786 7.38391C-17.6949 19.9682 -11.369 31.062 -1.76028 37.6963Z" fill="#38805E"/>
<path d="M139.601 127.335C145.513 139.654 158.007 148.18 172.496 148.287V111.542H139.601V127.335Z" fill="#0063BD"/>
<path d="M209.054 148.318H172.49V111.543C192.62 111.69 208.908 128.072 209.054 148.318Z" fill="#0063BD"/>
<path d="M193.223 118.006L162.159 146.709C165.481 147.729 169.004 148.291 172.654 148.315V148.318H209.249C209.158 135.734 202.832 124.64 193.223 118.006Z" fill="#0063BD"/>
<path d="M152.038 141.873L183.102 113.17C179.78 112.15 176.257 111.588 172.607 111.563V111.56H136.012C136.103 124.145 142.429 135.238 152.038 141.873Z" fill="#0063BD"/>
<rect x="119.429" y="-19.848" width="94.701" height="67.3857" rx="27.75" stroke="white" stroke-width="4.5"/>
<rect x="149.77" y="126.42" width="94.701" height="67.3857" rx="27.75" stroke="white" stroke-width="4.5"/>
<rect x="-37.5073" y="75.9102" width="94.701" height="67.3857" stroke="white" stroke-width="4.5"/>
<path d="M26.5669 58.2501L149.005 21.8171" stroke="#F2CA46" stroke-width="5" stroke-miterlimit="10"/>
<path d="M90.8345 9.58472V159.958" stroke="#F2CA46" stroke-width="5" stroke-miterlimit="10"/>
<path d="M35.8559 62.3009L10.7568 115.017H60.9549L35.8559 62.3009Z" fill="#0063BD"/>
<path d="M151.789 27.5562L126.69 80.2723H176.889L151.789 27.5562Z" fill="#0063BD"/>
<path d="M31.0751 58.7067L5.97607 111.423H56.1742L31.0751 58.7067Z" fill="#F2CA46"/>
<path d="M147.009 25.16L121.91 77.8762H172.108L147.009 25.16Z" fill="#F2CA46"/>
<path d="M91.026 14.7605C95.0921 14.7605 98.3884 11.4563 98.3884 7.38026C98.3884 3.30426 95.0921 0 91.026 0C86.9598 0 83.6636 3.30426 83.6636 7.38026C83.6636 11.4563 86.9598 14.7605 91.026 14.7605Z" fill="#4B7E60"/>
<path d="M47.8076 153.564C47.8076 150.802 50.0462 148.564 52.8076 148.564H128.862C131.623 148.564 133.862 150.802 133.862 153.564V160.545H47.8076V153.564Z" fill="#DC5041"/>
</g>
<defs>
<clipPath id="clip0">
<rect width="181" height="161" fill="white"/>
</clipPath>
</defs>
</svg>
