<svg width="78" height="76" viewBox="0 0 78 76" fill="none" xmlns="http://www.w3.org/2000/svg">
<path d="M51.0263 16.8287C54.3664 13.7882 57.765 12.4647 60.4304 11.9985C62.9761 11.5533 65.0361 13.5943 64.5504 16.1326C64.0297 18.8534 62.6082 22.2977 59.6045 25.5493L22.3626 62.7835L13.4842 53.7577C23.6596 43.5769 45.4137 21.9379 51.0263 16.8287Z" fill="#F8F0E7"/>
<path d="M32.3016 68.4058L31.6977 69.5243C31.6065 69.6931 31.4907 69.8473 31.3539 69.9818C30.6529 70.6714 29.5447 70.7214 28.7845 70.0977L14.7914 58.6192C13.7611 57.7741 12.8554 56.7874 12.1014 55.6886L7.032 48.3013C6.26253 47.18 6.34953 45.6495 7.37335 44.7544C9.28244 43.0854 12.0665 42.9543 14.6022 42.9319L15.7955 42.9213C20.7777 42.8774 25.6377 41.37 29.7584 38.5691C34.019 35.6731 38.6611 32.4983 40.6151 31.1017C42.5591 29.7122 44.5908 28.6788 46.1372 28.0124C47.4923 27.4285 49.5553 27.235 49.501 28.7096C49.4564 29.9202 46.8735 34.4113 45.5876 36.5056C42.0296 41.4067 34.8435 51.3123 34.5633 51.7252C34.5571 51.7344 34.5508 51.7443 34.5444 51.7549C33.3795 53.6862 33.5799 56.1421 33.5701 58.3976L33.5479 63.5199C33.5404 65.2263 33.1124 66.9044 32.3016 68.4058Z" fill="#0063BD"/>
<path d="M19.0756 52.2899L38.396 32.7703C41.2197 30.1985 46.1013 27.8697 48.1536 27.2523C48.154 27.2069 48.572 27.0742 49.1028 27.5196C49.2473 27.6409 49.3056 27.6959 49.4889 27.9121C50.3455 28.9225 46.326 35.5989 44.2996 38.3358C37.7155 44.8123 24.4105 57.8006 24.4763 58.2163C24.5585 58.736 24.5301 59.0841 24.3528 59.6017C24.211 60.0157 21.5426 63.3488 20.6558 64.2497L19.672 65.1939C19.1828 65.6634 18.407 65.6523 17.9316 65.1689C16.7778 65.8483 15.3112 65.6699 14.361 64.7264C12.7436 63.1207 10.8887 61.2505 10.6145 60.8702C10.2382 60.3481 11.0753 59.1872 11.5409 58.6721C11.1832 58.3085 11.1814 57.7258 11.5368 57.36L12.7731 56.0872C15.8788 52.895 18.2688 52.2256 19.0756 52.2899Z" fill="#DC5041"/>
</svg>
