<svg width="105" height="102" viewBox="0 0 105 102" fill="none" xmlns="http://www.w3.org/2000/svg">
<ellipse cx="52.8948" cy="50.9211" rx="52.1053" ry="50.9211" fill="#E77221"/>
<path d="M40.9489 11.2072C41.7678 6.52924 46.0044 2.92852 49.4821 0C33.1225 2.6774 20.6046 7.62903 11.3741 18.4703C2.14356 29.3115 -1.46957 45.3727 0.537656 61.5268C2.54488 77.6808 15.2894 90.1077 24.6186 95.1621C33.9477 100.217 46.8501 103.254 60.6578 101.185C67.659 95.5254 68.7258 86.9654 60.6578 81.168C56.5383 78.2079 50.1826 82.1775 47.3901 77.9637C43.9855 72.8262 47.455 66.3961 49.4821 61.5268C52.4446 54.4105 54.8639 48.1007 51.7117 40.5504C49.6014 35.4957 46.7198 30.6533 44.0318 25.8936C41.4876 21.3884 40.0307 16.4527 40.9489 11.2072Z" fill="#F79F62"/>
<path d="M60.3885 68.8163C58.6179 63.8587 63.2903 60.1673 66.532 56.9257C67.8807 56.2355 70.6674 60.0095 71.3763 61.2856C73.4136 64.9527 73.6293 70.0681 70.0771 73.1762C65.4038 77.2654 61.9247 73.1179 60.3885 68.8163Z" fill="#F79F62"/>
</svg>
