<svg width="236" height="237.6" viewBox="32.025760650634766 30.653911590576172 231.45050048828125 235.09617614746094" fill="none" xmlns="http://www.w3.org/2000/svg">
<ellipse cx="147.751" cy="148.202" rx="111.411" ry="109.473" transform="rotate(86.6888 147.751 148.202)" fill="#2158E7"/>
<path d="M191.65 88.4153C187.475 89.0333 185.194 89.6187 181.295 91.3458C179.575 92.2784 178.923 93.0034 178.51 94.7795C178.563 96.3799 178.831 96.3519 181.461 97.0436C184.092 97.7352 185.307 98.4713 189.112 97.9399C191.65 97.6247 193.087 97.1486 195.643 95.7891C197.729 94.3543 198.234 93.2961 198.025 90.7999C197.524 88.3427 194.866 88.6543 191.65 88.4153Z" fill="#6271F7" stroke="#6271F7"/>
<path d="M120.357 160.354C117.492 161.833 117.658 162.131 118.159 164.588C118.944 166.967 119.823 167.743 122.305 168.246C125.189 168.496 126.697 168.371 129.156 167.667C132.866 166.666 133.695 165.513 135.845 163.847C137.994 162.181 138.252 162.102 137.674 160.608C136.598 159.136 135.715 158.724 133.767 158.539C130.513 158.491 131.315 159.039 125.356 159.845C121.268 159.818 121.324 160.102 120.357 160.354Z" fill="#6271F7"/>
<path d="M120.357 160.354C117.492 161.833 117.658 162.131 118.159 164.588C118.944 166.967 119.823 167.743 122.305 168.246C125.189 168.496 126.697 168.371 129.156 167.667C132.866 166.666 133.695 165.513 135.845 163.847C137.994 162.181 138.252 162.102 137.674 160.608C136.598 159.136 135.715 158.724 133.767 158.539C130.513 158.491 131.315 159.039 125.356 159.845M120.357 160.354C121.324 160.102 121.268 159.818 125.356 159.845M120.357 160.354L125.356 159.845" stroke="#6271F7"/>
<ellipse rx="8.37745" ry="8.70674" transform="matrix(0.0577588 0.998331 0.998331 -0.0577588 159.195 96.498)" fill="#6271F7"/>
<path d="M220.452 81.1983L232.749 78.7403C238.627 85.7458 241.307 89.9076 244.883 97.6416C243.096 96.0052 241.527 95.7549 235.547 94.0593C229.567 92.3636 228.259 93.0134 225.717 93.2164L214.254 95.9573C211.482 96.6716 209.832 96.9679 206.149 96.7033C203.063 95.1533 202.292 93.9072 203.408 90.7249C205.077 88.1377 206.278 87.0692 208.703 85.5801C213.32 83.5407 215.888 82.557 220.452 81.1983Z" fill="#6271F7" stroke="#6271F7"/>
<path d="M85.3769 132.029C70.5418 126.852 53.5892 132.223 40.1327 139.015C38.8318 150.02 38.8892 156.047 39.9891 166.626C47.6839 168.181 51.7959 168.075 58.9293 166.917C78.9274 163.053 90.04 160.58 109.681 155.547C116.853 153.279 120.898 152.31 128.198 151.261C151.37 146.8 159.089 146.587 174.949 145.299C190.05 143.156 199.255 141.873 212.302 143.295C225.349 144.716 230.758 148.716 243.595 146.608C256.433 144.501 256.21 140.903 256.21 140.903C257.119 130.148 254.721 123.602 249.284 110.857C249.915 110.362 241.155 112.326 239.295 113.034C230.147 116.512 221.995 122.442 212.952 126.178C202.902 130.331 192.671 133.798 181.719 134.403C173.24 134.871 164.733 134.176 156.251 135.011C148.27 135.796 141.602 139.629 134.225 142.373C126.838 145.121 119.919 147.109 111.85 146.131C108.997 145.785 105.591 144.628 103.574 142.462C98.9219 137.465 91.7423 134.25 85.3769 132.029Z" fill="#6271F7"/>
<path d="M80.6717 186.773C69.7419 185.449 56.9895 181.063 47.1575 187.586C46.0059 188.489 46.9595 189.852 47.2517 191.138C48.8374 195 50.3183 198.321 52.1231 201.978C53.6676 205.107 55.5072 207.689 57.3762 210.569C58.0314 211.579 60.0759 214.079 61.1792 214.625C64.3542 216.198 70.4727 217.851 73.7243 215.883C76.332 214.305 78.3831 212.162 80.9364 210.561C85.5705 207.656 90.2564 205.296 95.1566 202.865C101.753 199.592 108.828 198.05 115.485 195.078C118.44 193.759 122.706 193.24 124.185 190.013C124.904 188.444 127.198 185.771 125.562 184.061C122.314 180.664 118.067 182.578 114.015 183.404C108.154 184.6 102.53 186.712 96.5856 187.554C91.5106 188.272 85.723 187.385 80.6717 186.773Z" fill="#6271F7"/>
<path d="M229.734 174.647C238.306 170.172 245.475 166.643 256 165.5C255.5 169.5 255 171 254.5 173.5C253.804 176.979 254 176.5 253 179C252.013 180.581 248.364 182.086 247 183.522C244.479 186.178 239.097 188.618 234.787 189.839C227.034 192.036 219.19 193.717 211.547 196.202C204.5 198.493 198.061 201.402 190.813 203.41C183.63 205.399 173.854 208.104 167.431 204.936C163.332 202.915 161.794 200.395 162.785 197.029C164.318 191.823 184.705 190.654 190.815 189.274C205.07 186.055 217.863 180.845 229.734 174.647Z" fill="#6271F7"/>
</svg>
