<svg width="115" height="113" viewBox="0 0 115 113" fill="none" xmlns="http://www.w3.org/2000/svg">
<ellipse cx="57.5" cy="56.5" rx="57.5" ry="56.5" fill="#A7D5FF"/>
<path d="M25.7854 24.9229C28.9518 16.0614 36.0252 7.07671 43.5919 1.38412C59.976 -1.41994 67.8911 0.04917 80.7504 5.67616C91.9708 11.2692 96.8589 15.1496 103.368 23.2539C110.566 31.9887 112.834 37.0183 114.185 46.1934C115.803 60.6754 115.107 67.2363 111.235 76.3748C106.865 87.4302 103.184 92.7935 93.935 100.538C90.2882 99.8142 87.2869 100.737 83.6566 100.932C80.2448 101.115 74.9468 101.184 73.0519 97.6222C71.1718 94.088 71.6275 89.9991 72.1196 86.2116C72.5241 83.099 74.813 79.5626 73.5647 76.3748C72.3372 73.2402 69.5558 70.9457 66.2463 70.4496C62.4229 69.8765 58.5148 71.6451 54.6861 70.7274C47.296 68.9559 49.1412 61.9956 50.5937 56.5165L50.6306 56.3773C51.6189 52.6478 53.2362 49.4195 55.3153 46.1934C57.2161 43.244 56.4911 40.0339 55.6649 36.889C54.8829 33.9121 50.482 33.2873 47.9737 33.4866C44.1852 33.7876 40.4352 34.8473 36.6465 35.1068C32.5744 35.3857 29.1589 35.2688 26.0651 32.3062C24.3335 30.648 25.0704 26.9239 25.7854 24.9229Z" fill="#D1E9FF"/>
</svg>
