<svg width="271" height="196" viewBox="0 0 271 196" fill="none" xmlns="http://www.w3.org/2000/svg">
<path d="M176.499 63.6563C195.462 88.4377 190.389 124.171 165.169 143.469C139.949 162.768 104.132 158.323 85.1698 133.541C66.2072 108.76 71.2798 73.0266 96.4997 53.7283C121.72 34.4301 157.537 38.875 176.499 63.6563Z" fill="#21E764"/>
<path d="M256.389 124.022C256.253 124.835 255.598 125.789 253.909 126.775C252.236 127.75 249.774 128.618 246.524 129.334C240.041 130.761 230.79 131.507 219.398 131.536C196.637 131.595 165.617 128.798 131.748 123.118C97.8784 117.438 67.6432 109.962 46.1471 102.481C35.3874 98.7367 26.886 95.0143 21.2232 91.5496C18.3853 89.8133 16.3405 88.1896 15.0777 86.7215C13.8021 85.2385 13.4949 84.1235 13.6312 83.3108C13.7675 82.4981 14.4217 81.5442 16.1112 80.5586C17.7839 79.5827 20.2466 78.7149 23.4956 77.9994C29.9789 76.5717 39.2296 75.8264 50.6222 75.7969C73.3828 75.738 104.403 78.5347 138.272 84.2148C172.142 89.8949 202.377 97.3708 223.873 104.852C234.633 108.596 243.134 112.319 248.797 115.783C251.635 117.52 253.68 119.144 254.942 120.612C256.218 122.095 256.525 123.21 256.389 124.022Z" stroke="white" stroke-width="3"/>
<path fill-rule="evenodd" clip-rule="evenodd" d="M183.435 115.991C189.889 98.3791 187.573 78.115 175.477 62.3074C156.515 37.5261 120.697 33.0811 95.4776 52.3794C79.7468 64.4165 71.8545 82.8478 72.7441 101.027L183.435 115.991Z" fill="#21E764"/>
<path d="M86.5828 90.1951C83.7123 81.2334 83.8699 69.7995 86.4198 60.6804C97.7275 48.4969 104.906 44.8537 118.538 41.5079C130.848 39.1311 137.088 39.2424 147.182 41.7231C158.207 44.2856 163.064 46.902 169.713 53.3675C179.799 63.885 183.233 69.5185 185.711 79.1294C188.959 90.5645 189.295 97.0607 186.656 108.832C183.32 110.473 181.497 113.03 178.733 115.391C176.135 117.61 171.969 120.884 168.3 119.207C164.659 117.543 162.536 114.018 160.625 110.712C159.055 107.994 158.723 103.794 155.795 102.021C152.915 100.278 149.312 100.146 146.382 101.763C142.997 103.631 140.968 107.411 137.37 109.009C130.425 112.093 127.66 105.444 125.484 100.21L125.429 100.077C123.947 96.5144 123.27 92.9678 122.961 89.1422C122.678 85.6448 120.151 83.5361 117.584 81.5405C115.154 79.6516 111.279 81.8298 109.408 83.5124C106.582 86.0537 104.248 89.1741 101.397 91.6826C98.3326 94.3786 95.5491 96.3614 91.2917 95.8887C88.9088 95.6241 87.231 92.2188 86.5828 90.1951Z" fill="#88F7BB"/>
<path d="M74.0002 85.2196C54.0505 83.8726 41.0887 84.6958 40.5423 87.9542C39.5608 93.807 79.0063 105.3 128.646 113.625C178.287 121.95 219.324 123.954 220.305 118.101C220.871 114.728 208.006 109.481 187.5 104.046" stroke="white" stroke-width="3"/>
</svg>
