<svg width="175" height="176" viewBox="0 0 175 176" fill="none" xmlns="http://www.w3.org/2000/svg">
<ellipse cx="87" cy="87.5" rx="87" ry="87.5" fill="#ECF3FD"/>
<path fill-rule="evenodd" clip-rule="evenodd" d="M154.247 143.375C166.595 128.139 174 108.689 174 87.5C174 52.2049 153.455 21.7356 123.736 7.52721C118.292 5.16904 112.403 3.49347 105.066 2C113.114 8.55904 117.173 12.5425 123.191 20.4751C124.223 21.5812 125.149 23.058 126.027 24.4589C126.367 25.0017 126.7 25.5331 127.029 26.0271C128.926 28.8727 130.306 32.1854 131.641 35.3927C132.046 36.3642 132.446 37.326 132.856 38.2623C134.565 42.1689 135.208 46.4803 135.839 50.7071C136.161 52.8628 136.479 54.9965 136.934 57.0434C137.696 60.474 137.434 64.376 137.17 68.31C136.798 73.8438 136.422 79.441 138.888 83.8785C139.624 85.2047 140.957 86.2904 142.31 87.3923C143.847 88.6449 145.41 89.9184 146.153 91.5897C147.399 94.3933 148.898 99.4858 147.524 102.385C145.832 105.958 142.357 109.249 139.221 112.218C138.361 113.032 137.527 113.822 136.763 114.586C131.96 119.389 126.527 127.106 127.612 134.156C127.689 134.658 127.778 135.187 127.87 135.734C128.622 140.207 129.59 145.965 126.275 149.407C125.678 150.027 125.216 150.746 124.76 151.455C124.032 152.588 123.318 153.698 122.094 154.342C113.731 159.097 108.747 161.098 99.5774 164.075C98.8824 164.196 98.1966 164.317 97.5178 164.436C91.2285 165.543 85.5507 166.543 78.9113 166.543C73.2225 166.543 65.5665 166.543 60.0665 164.5C55.7739 162.906 51.7692 161.077 47.2027 158.992C43.2587 157.19 38.8957 155.198 33.5662 153C22.0662 148.257 41.0664 161 52.5664 167.777C64.0665 174.553 78.6476 175.241 95.0664 174.5C108.024 173.374 115.487 171.368 125.164 166.774C132.821 162.941 139.844 158.019 146.033 152.21C148.527 149.813 151.165 146.984 154.247 143.375Z" fill="#D5DEED"/>
<path d="M154.247 143.375L154.627 143.7L154.635 143.69L154.247 143.375ZM123.736 7.52721L123.952 7.07611C123.947 7.07344 123.941 7.07087 123.935 7.0684L123.736 7.52721ZM105.066 2L105.166 1.51005C104.941 1.46415 104.713 1.57804 104.615 1.78597C104.516 1.99391 104.572 2.24221 104.751 2.38758L105.066 2ZM123.191 20.4751L122.793 20.7772C122.803 20.7908 122.814 20.8038 122.825 20.8162L123.191 20.4751ZM126.027 24.4589L125.603 24.7244L125.603 24.7244L126.027 24.4589ZM127.029 26.0271L127.445 25.7498V25.7498L127.029 26.0271ZM131.641 35.3927L131.18 35.5849L131.641 35.3927ZM132.856 38.2623L133.314 38.0619V38.0619L132.856 38.2623ZM135.839 50.7071L136.334 50.6333L135.839 50.7071ZM136.934 57.0434L136.446 57.1519V57.1519L136.934 57.0434ZM137.17 68.31L136.671 68.2765L137.17 68.31ZM138.888 83.8785L139.325 83.6357L138.888 83.8785ZM142.31 87.3923L142.625 87.0046L142.31 87.3923ZM146.153 91.5897L146.61 91.3867L146.153 91.5897ZM147.524 102.385L147.072 102.171L147.524 102.385ZM139.221 112.218L139.565 112.581L139.221 112.218ZM127.612 134.156L127.118 134.232L127.612 134.156ZM127.87 135.734L127.377 135.817L127.87 135.734ZM126.275 149.407L125.915 149.06L126.275 149.407ZM124.76 151.455L125.181 151.725L124.76 151.455ZM122.094 154.342L121.861 153.9C121.857 153.902 121.852 153.905 121.847 153.907L122.094 154.342ZM99.5774 164.075L99.6631 164.568C99.6864 164.564 99.7094 164.558 99.7319 164.551L99.5774 164.075ZM97.5178 164.436L97.4311 163.944L97.5178 164.436ZM60.0665 164.5L59.8924 164.969H59.8924L60.0665 164.5ZM47.2027 158.992L46.995 159.446L47.2027 158.992ZM33.5662 153L33.7569 152.538H33.7569L33.5662 153ZM52.5664 167.777L52.8203 167.346L52.5664 167.777ZM95.0664 174.5L95.0889 174.999C95.0959 174.999 95.1028 174.999 95.1097 174.998L95.0664 174.5ZM125.164 166.774L125.378 167.226L125.388 167.221L125.164 166.774ZM146.033 152.21L146.375 152.574L146.379 152.57L146.033 152.21ZM173.5 87.5C173.5 108.571 166.137 127.91 153.858 143.061L154.635 143.69C167.054 128.368 174.5 108.808 174.5 87.5H173.5ZM123.521 7.9783C153.071 22.1062 173.5 52.4035 173.5 87.5H174.5C174.5 52.0063 153.839 21.3649 123.952 7.07611L123.521 7.9783ZM104.967 2.48995C112.283 3.97936 118.136 5.64634 123.538 7.98601L123.935 7.0684C118.448 4.69173 112.522 3.00759 105.166 1.51005L104.967 2.48995ZM123.589 20.1729C117.543 12.203 113.454 8.19154 105.382 1.61242L104.751 2.38758C112.773 8.92653 116.803 12.8821 122.793 20.7772L123.589 20.1729ZM126.45 24.1933C125.579 22.8032 124.628 21.282 123.556 20.1339L122.825 20.8162C123.819 21.8805 124.719 23.3129 125.603 24.7244L126.45 24.1933ZM127.445 25.7498C127.121 25.2627 126.791 24.7374 126.45 24.1933L125.603 24.7244C125.943 25.2659 126.279 25.8035 126.613 26.3045L127.445 25.7498ZM132.103 35.2005C130.771 32.0021 129.374 28.6428 127.445 25.7498L126.613 26.3045C128.479 29.1026 129.84 32.3687 131.18 35.5849L132.103 35.2005ZM133.314 38.0619C132.906 37.1304 132.507 36.1728 132.103 35.2005L131.18 35.5849C131.584 36.5556 131.986 37.5217 132.398 38.4627L133.314 38.0619ZM136.334 50.6333C135.705 46.4187 135.054 42.0398 133.314 38.0619L132.398 38.4627C134.076 42.298 134.712 46.5418 135.345 50.7809L136.334 50.6333ZM137.422 56.935C136.972 54.9083 136.656 52.7923 136.334 50.6333L135.345 50.7809C135.666 52.9333 135.987 55.0848 136.446 57.1519L137.422 56.935ZM137.669 68.3435C137.932 64.428 138.203 60.4493 137.422 56.935L136.446 57.1519C137.19 60.4987 136.937 64.324 136.671 68.2765L137.669 68.3435ZM139.325 83.6357C136.945 79.352 137.294 73.9182 137.669 68.3435L136.671 68.2765C136.302 73.7694 135.9 79.53 138.45 84.1213L139.325 83.6357ZM142.625 87.0046C141.252 85.8857 140.005 84.8611 139.325 83.6357L138.45 84.1213C139.243 85.5482 140.662 86.695 141.994 87.7799L142.625 87.0046ZM146.61 91.3867C145.81 89.5854 144.139 88.2375 142.625 87.0046L141.994 87.7799C143.556 89.0522 145.011 90.2513 145.696 91.7928L146.61 91.3867ZM147.976 102.6C148.732 101.004 148.677 98.8754 148.313 96.8627C147.946 94.8298 147.246 92.8172 146.61 91.3867L145.696 91.7928C146.307 93.1658 146.979 95.1013 147.329 97.0404C147.683 98.9998 147.69 100.867 147.072 102.171L147.976 102.6ZM139.565 112.581C142.68 109.631 146.236 106.274 147.976 102.6L147.072 102.171C145.428 105.642 142.033 108.866 138.877 111.855L139.565 112.581ZM137.116 114.94C137.875 114.181 138.704 113.396 139.565 112.581L138.877 111.855C138.019 112.668 137.18 113.462 136.409 114.233L137.116 114.94ZM128.106 134.08C127.587 130.704 128.624 127.126 130.421 123.764C132.214 120.408 134.739 117.317 137.116 114.94L136.409 114.233C133.983 116.659 131.391 119.827 129.539 123.293C127.689 126.753 126.553 130.558 127.118 134.232L128.106 134.08ZM128.363 135.651C128.271 135.103 128.183 134.578 128.106 134.08L127.118 134.232C127.196 134.738 127.285 135.27 127.377 135.817L128.363 135.651ZM126.636 149.754C128.413 147.907 129.017 145.464 129.097 142.973C129.178 140.486 128.738 137.878 128.363 135.651L127.377 135.817C127.755 138.063 128.174 140.571 128.098 142.941C128.021 145.308 127.452 147.465 125.915 149.06L126.636 149.754ZM125.181 151.725C125.641 151.01 126.078 150.333 126.636 149.754L125.915 149.06C125.278 149.721 124.791 150.482 124.34 151.185L125.181 151.725ZM122.327 154.784C123.686 154.069 124.464 152.84 125.181 151.725L124.34 151.185C123.599 152.337 122.951 153.326 121.861 153.9L122.327 154.784ZM99.7319 164.551C108.925 161.565 113.942 159.552 122.341 154.777L121.847 153.907C113.52 158.642 108.568 160.63 99.423 163.6L99.7319 164.551ZM97.6045 164.929C98.2833 164.809 98.9687 164.689 99.6631 164.568L99.4918 163.583C98.7962 163.704 98.1098 163.824 97.4311 163.944L97.6045 164.929ZM78.9113 167.043C85.6004 167.043 91.319 166.035 97.6045 164.929L97.4311 163.944C91.1379 165.052 85.501 166.043 78.9113 166.043V167.043ZM59.8924 164.969C65.4941 167.049 73.2505 167.043 78.9113 167.043V166.043C73.1946 166.043 65.6389 166.036 60.2406 164.031L59.8924 164.969ZM46.995 159.446C51.5586 161.53 55.5799 163.367 59.8924 164.969L60.2406 164.031C55.9679 162.444 51.9797 160.623 47.4104 158.537L46.995 159.446ZM33.3756 153.462C38.6955 155.656 43.051 157.645 46.995 159.446L47.4104 158.537C43.4664 156.736 39.0958 154.74 33.7569 152.538L33.3756 153.462ZM52.8203 167.346C47.0792 163.963 39.4682 159.092 34.7346 155.664C33.5515 154.807 32.5546 154.045 31.8139 153.422C31.4433 153.11 31.1424 152.838 30.9164 152.609C30.6826 152.373 30.5565 152.21 30.5057 152.116C30.4789 152.067 30.4991 152.083 30.5 152.145C30.5013 152.24 30.4542 152.358 30.3527 152.43C30.2838 152.479 30.2392 152.47 30.2902 152.467C30.3315 152.465 30.4072 152.469 30.5277 152.489C31.0236 152.57 31.9367 152.869 33.3756 153.462L33.7569 152.538C32.3208 151.945 31.312 151.605 30.6907 151.502C30.5319 151.476 30.3786 151.461 30.2389 151.469C30.1089 151.475 29.9312 151.503 29.7749 151.614C29.586 151.747 29.4971 151.952 29.5001 152.159C29.5025 152.333 29.5677 152.484 29.6268 152.593C29.7479 152.817 29.9577 153.062 30.2053 153.312C30.4608 153.57 30.7869 153.864 31.1702 154.187C31.9374 154.832 32.9561 155.61 34.148 156.473C38.9145 159.925 46.5536 164.814 52.3126 168.207L52.8203 167.346ZM95.0439 174.001C78.6271 174.741 64.1815 174.041 52.8203 167.346L52.3126 168.207C63.9514 175.066 78.6681 175.74 95.0889 174.999L95.0439 174.001ZM124.95 166.323C115.333 170.888 107.93 172.88 95.0231 174.002L95.1097 174.998C108.119 173.867 115.641 171.849 125.378 167.226L124.95 166.323ZM145.69 151.845C139.536 157.622 132.553 162.516 124.94 166.327L125.388 167.221C133.088 163.366 140.151 158.416 146.375 152.574L145.69 151.845ZM153.866 143.051C150.792 146.651 148.166 149.467 145.686 151.849L146.379 152.57C148.888 150.159 151.537 147.318 154.627 143.7L153.866 143.051Z" fill="#D5DEED"/>
<circle cx="38" cy="85" r="15" fill="#D5DEED"/>
<circle cx="63" cy="35" r="11" fill="#D5DEED"/>
<circle cx="65" cy="80" r="5" fill="#D5DEED"/>
<circle cx="38" cy="125" r="5" fill="#D5DEED"/>
<circle cx="93" cy="73" r="7" fill="#D5DEED"/>
<circle cx="154.737" cy="120.905" r="3.49784" transform="rotate(127.563 154.737 120.905)" fill="#98A3BB"/>
<circle cx="150.121" cy="52.1207" r="5.07774" transform="rotate(127.563 150.121 52.1207)" fill="#98A3BB"/>
<circle cx="141.816" cy="136.474" r="7" transform="rotate(127.563 141.816 136.474)" fill="#98A3BB"/>
</svg>
