<svg width="2242" height="1090" viewBox="0 0 2242 1090" fill="none" xmlns="http://www.w3.org/2000/svg">
<g clip-path="url(#clip0)" opacity="0.665">
<circle cx="1947.69" cy="224.442" r="3.65646" transform="rotate(82.8732 1947.69 224.442)" fill="white"/>
<circle cx="2057.39" cy="408.193" r="3.65646" transform="rotate(-91.3407 2057.39 408.193)" fill="white"/>
<circle cx="2048.12" cy="608.201" r="5.74587" transform="rotate(4.73577 2048.12 608.201)" fill="white"/>
<circle cx="2127.56" cy="517.007" r="6.31292" transform="rotate(112.179 2127.56 517.007)" stroke="white" stroke-width="2"/>
<circle cx="108.082" cy="1005.08" r="3.65646" transform="rotate(82.8732 108.082 1005.08)" fill="white"/>
<circle cx="177.868" cy="612.666" r="3.65646" transform="rotate(82.8732 177.868 612.666)" fill="white"/>
<circle cx="227.641" cy="201.416" r="6.31292" transform="rotate(80.3117 227.641 201.416)" stroke="white" stroke-width="2"/>
<circle cx="518.195" cy="294.424" r="6.31292" transform="rotate(-32.0792 518.195 294.424)" stroke="white" stroke-width="2"/>
<path d="M117.574 760.467C120.807 763.127 126.507 760.459 129.914 758.949C128.455 760.278 126.239 760.305 124.66 761.46C123.53 762.286 123.62 769.778 125.201 771.064C125.211 771.071 125.221 771.079 125.231 771.087C125.221 771.08 125.211 771.072 125.201 771.064C121.794 768.395 119.958 767.759 116.936 769.067C115.844 769.551 113.904 771.118 113.904 771.118C113.904 771.118 114.941 770.158 115.307 769.521C117.631 766.969 117.045 767.911 117.696 766.885C118.7 765.303 118.249 762.585 117.574 760.467C117.429 760.348 117.289 760.218 117.155 760.077C115.863 758.722 115.685 755.94 116.905 758.692C117.124 759.187 117.36 759.797 117.574 760.467Z" fill="white" fill-opacity="0.75"/>
<path d="M129.914 758.949C126.354 760.527 120.292 763.368 117.155 760.077C115.863 758.722 115.685 755.94 116.905 758.692C117.817 760.751 119.018 764.803 117.696 766.885C117.045 767.911 117.631 766.969 115.307 769.521C114.941 770.158 113.904 771.118 113.904 771.118C113.904 771.118 115.844 769.551 116.936 769.067C119.967 767.755 121.805 768.399 125.231 771.087C123.622 769.872 123.523 762.291 124.66 761.46C126.239 760.305 128.455 760.278 129.914 758.949Z" stroke="white" stroke-width="1.5" stroke-linecap="round" stroke-linejoin="round"/>
<path d="M703.492 385.924C705.951 389.313 712.139 388.166 715.816 387.563C714.07 388.482 711.919 387.95 710.1 388.669C708.798 389.184 706.999 396.458 708.205 398.1C708.213 398.11 708.22 398.12 708.228 398.13C708.22 398.12 708.212 398.11 708.205 398.1C705.579 394.659 703.963 393.582 700.709 394.086C699.531 394.28 697.258 395.308 697.258 395.308C697.258 395.308 698.504 394.639 699.018 394.115C701.91 392.231 701.106 392.995 701.994 392.166C703.364 390.888 703.612 388.143 703.492 385.924C703.382 385.772 703.279 385.611 703.185 385.441C702.276 383.805 702.804 381.068 703.292 384.038C703.379 384.572 703.454 385.222 703.492 385.924Z" fill="white" fill-opacity="0.75"/>
<path d="M715.816 387.563C711.975 388.193 705.392 389.417 703.185 385.441C702.276 383.805 702.804 381.068 703.292 384.038C703.656 386.26 703.797 390.484 701.994 392.166C701.106 392.995 701.91 392.231 699.018 394.115C698.504 394.639 697.258 395.308 697.258 395.308C697.258 395.308 699.531 394.28 700.709 394.086C703.973 393.58 705.589 394.666 708.228 398.13C706.976 396.549 708.79 389.187 710.1 388.669C711.919 387.95 714.07 388.482 715.816 387.563Z" stroke="white" stroke-width="1.5" stroke-linecap="round" stroke-linejoin="round"/>
<path d="M1946.44 791.917C1943.15 794.499 1944.52 800.641 1945.26 804.293C1944.28 802.582 1944.73 800.412 1943.94 798.621C1943.38 797.34 1936.05 795.811 1934.45 797.077C1934.44 797.085 1934.43 797.093 1934.42 797.101C1934.43 797.093 1934.44 797.085 1934.45 797.077C1937.79 794.326 1938.81 792.671 1938.18 789.437C1937.95 788.267 1936.84 786.034 1936.84 786.034C1936.84 786.034 1937.55 787.254 1938.09 787.749C1940.08 790.569 1939.29 789.793 1940.15 790.65C1941.48 791.972 1944.23 792.118 1946.44 791.917C1946.59 791.801 1946.75 791.693 1946.91 791.592C1948.52 790.623 1951.27 791.05 1948.32 791.647C1947.79 791.754 1947.14 791.853 1946.44 791.917Z" fill="white" fill-opacity="0.75"/>
<path d="M1945.26 804.293C1944.49 800.477 1943.02 793.945 1946.91 791.592C1948.52 790.623 1951.27 791.05 1948.32 791.647C1946.11 792.093 1941.9 792.39 1940.15 790.65C1939.29 789.793 1940.08 790.569 1938.09 787.749C1937.55 787.254 1936.84 786.034 1936.84 786.034C1936.84 786.034 1937.95 788.267 1938.18 789.437C1938.81 792.68 1937.79 794.335 1934.42 797.101C1935.95 795.791 1943.38 797.332 1943.94 798.621C1944.73 800.412 1944.28 802.582 1945.26 804.293Z" stroke="white" stroke-width="1.5" stroke-linecap="round" stroke-linejoin="round"/>
<circle cx="491.646" cy="463.734" r="3.65646" transform="rotate(-20.7124 491.646 463.734)" fill="white"/>
<circle cx="564.853" cy="779.413" r="6.31292" transform="rotate(80.3117 564.853 779.413)" stroke="white" stroke-width="2"/>
<circle cx="1317.67" cy="687.357" r="3.65646" transform="rotate(87.7264 1317.67 687.357)" fill="white"/>
<circle cx="266.15" cy="468.711" r="3.65646" transform="rotate(-169.683 266.15 468.711)" fill="white"/>
<ellipse cx="203.35" cy="922.463" rx="7.83527" ry="8.35762" fill="white"/>
<path d="M204.217 921.642C210.889 914.516 238.876 888.267 246.183 881.197" stroke="url(#paint0_linear)" stroke-width="14" stroke-linecap="round" stroke-linejoin="round"/>
<circle cx="1569.74" cy="492.918" r="3.65646" transform="rotate(-91.3407 1569.74 492.918)" fill="white"/>
<circle cx="124.741" cy="175.37" r="3.65646" transform="rotate(-91.3407 124.741 175.37)" fill="white"/>
<circle cx="327.874" cy="136.201" r="5.74587" transform="rotate(4.73577 327.874 136.201)" fill="white"/>
<circle cx="1648.91" cy="717.316" r="6.31292" transform="rotate(112.179 1648.91 717.316)" stroke="white" stroke-width="2"/>
<ellipse cx="1312.7" cy="284.451" rx="7.83527" ry="8.35762" fill="white"/>
<path d="M1313.57 283.629C1320.24 276.504 1348.23 250.254 1355.54 243.185" stroke="url(#paint1_linear)" stroke-width="14" stroke-linecap="round" stroke-linejoin="round"/>
<circle cx="1720.8" cy="785.639" r="3.65646" transform="rotate(82.8732 1720.8 785.639)" fill="white"/>
<circle cx="2043.25" cy="1001.18" r="3.65646" transform="rotate(-169.683 2043.25 1001.18)" fill="white"/>
<circle cx="1405.24" cy="238.886" r="3.65646" transform="rotate(-168.688 1405.24 238.886)" fill="white"/>
<circle cx="978.008" cy="493.62" r="3.65646" transform="rotate(17.0981 978.008 493.62)" fill="white"/>
<circle cx="1222.34" cy="188.001" r="6.31292" transform="rotate(-171.249 1222.34 188.001)" stroke="white" stroke-width="2"/>
<circle cx="877.913" cy="912.974" r="3.65646" transform="rotate(82.8732 877.913 912.974)" fill="white"/>
<circle cx="1257.39" cy="890.944" r="3.65646" transform="rotate(-169.683 1257.39 890.944)" fill="white"/>
<circle cx="1687.28" cy="84.8157" r="3.73593" transform="rotate(-20.7124 1687.28 84.8157)" fill="white"/>
<circle cx="2122.33" cy="88.2411" r="2.51437" transform="rotate(-20.7124 2122.33 88.2411)" fill="white"/>
<circle cx="905.776" cy="188.342" r="2.51437" transform="rotate(-20.7124 905.776 188.342)" fill="white"/>
<circle cx="1624.55" cy="280.756" r="6.47186" transform="rotate(80.3117 1624.55 280.756)" stroke="white" stroke-width="2"/>
<path d="M1834.54 200C1835.32 195.773 1830.07 192.026 1827.01 189.746C1828.92 190.377 1830.06 192.336 1831.88 193.162C1833.01 193.673 1838.12 190.862 1839.7 188.766C1839.96 188.047 1840.19 187.626 1840.16 187.822C1840.12 188.107 1839.96 188.427 1839.7 188.766C1839.19 190.189 1838.55 192.779 1839.46 194.08C1840.65 194.561 1841.47 195.437 1842.52 196.219C1843.5 196.947 1845.09 197.071 1845.87 197.888C1845.88 197.898 1844.67 197.45 1843.92 197.445C1842.74 197.436 1841.61 196.706 1840.37 196.641C1838.45 196.541 1836.14 198.328 1834.54 200C1834.51 200.177 1834.47 200.356 1834.41 200.535C1833.86 202.365 1831.47 203.919 1833.31 201.452C1833.63 201.018 1834.05 200.514 1834.54 200Z" fill="#C4C4C4"/>
<path d="M1827.01 189.746C1830.2 192.122 1835.77 196.091 1834.41 200.535C1833.86 202.365 1831.47 203.919 1833.31 201.452C1834.68 199.607 1837.86 196.51 1840.37 196.641C1841.61 196.706 1842.74 197.436 1843.92 197.445C1844.67 197.45 1845.88 197.898 1845.87 197.888C1845.09 197.071 1843.5 196.947 1842.52 196.219C1841.47 195.437 1840.65 194.561 1839.46 194.08C1838.09 192.122 1840.24 187.239 1840.16 187.822C1839.89 189.864 1833.19 193.756 1831.88 193.162C1830.06 192.336 1828.92 190.377 1827.01 189.746Z" stroke="white" stroke-width="1.5" stroke-linecap="round" stroke-linejoin="round"/>
</g>
<defs>
<linearGradient id="paint0_linear" x1="238.07" y1="890.109" x2="219.404" y2="926.632" gradientUnits="userSpaceOnUse">
<stop stop-color="white" stop-opacity="0"/>
<stop offset="1" stop-color="white"/>
</linearGradient>
<linearGradient id="paint1_linear" x1="1347.42" y1="252.097" x2="1328.76" y2="288.62" gradientUnits="userSpaceOnUse">
<stop stop-color="white" stop-opacity="0"/>
<stop offset="1" stop-color="white"/>
</linearGradient>
<clipPath id="clip0">
<rect width="2242" height="1090" fill="white"/>
</clipPath>
</defs>
</svg>
