<svg width="962" height="360" viewBox="0 0 962 360" fill="none" xmlns="http://www.w3.org/2000/svg">
<ellipse cx="463.086" cy="-161.989" rx="419.6" ry="422.011" fill="#FAD262"/>
<path d="M815.142 -60.6618C829.461 -82.5905 857.081 -97.3745 861.63 -123.517L880.765 -166.844C884.343 -78.7122 872.88 -29.7531 829.033 56.7817C755.14 165.559 705.613 209.876 598.534 250.335C458.784 281.259 386.789 280.998 277.519 227.548C215 196.344 190.961 176.175 151.148 139.454C105.921 87.9804 85.1961 55.1422 61.3948 -14.7775C38.9942 -90.8147 32.8242 -178.083 43.8772 -221.563C54.9301 -265.042 85.1979 -311.208 76.2457 -251.884C67.2936 -192.559 72.5618 -231.108 67.8701 -190.217C64.6446 -162.104 73.4722 -126.25 80.0316 -99.6085C88.5132 -65.16 101.379 -37.6534 115.416 -5.67179C124.291 14.5473 138.274 45.8145 156.155 59.5397C166.892 67.7812 177.916 78.3638 186.961 88.5546C194.162 96.668 205.559 97.0367 214.894 102.445C237.275 115.413 267.104 99.7497 287.858 91.1198C319.623 77.912 362.026 94.4553 390.055 111.41C410.799 123.957 435.8 142.89 459.602 147.739C474.765 150.828 496.886 137.939 508.579 128.871C521.682 118.709 524.859 96.5929 536.314 85.9536C567.006 57.4468 623.184 63.9755 659.734 45.8634C686.562 32.5688 718.336 23.9968 742.986 5.10864C759.814 -7.78591 779.054 -20.434 793.567 -36.284C800.491 -43.8462 809.606 -52.1834 815.142 -60.6618Z" fill="#FFBC12"/>
</svg>
