<svg width="280" height="275" viewBox="0 0 280 275" fill="none" xmlns="http://www.w3.org/2000/svg">
<path d="M153.13 82.3099C154.54 80.4942 156.768 79.2472 159.518 77.5213C168.518 71.8747 173.24 67.8941 174.187 62.6765C174.463 61.1302 174.473 59.3245 174.187 57.6485C173.733 55.0047 172.55 53.8176 172.058 51.1838C171.683 49.1686 172.265 48.0812 171.584 46.1558C170.411 42.8137 166.99 41.4769 165.433 39.4517C162.682 35.8901 163.796 33.2464 161.647 29.635C158.838 24.9162 154.776 23.9385 150.054 21.2549C140.373 15.748 137.367 3.65668 125.921 1.62151C121.446 0.823403 118.961 2.40964 114.328 2.3398C109.36 2.26997 104.687 0.15499 98.9494 1.38208C96.3074 1.95073 92.4134 4.34504 87.8294 4.25525C84.793 4.1954 83.0383 3.14788 80.0217 2.81867C77.0051 2.48945 73.9984 2.64907 71.2676 3.29753C66.5456 4.42485 63.3515 7.63722 60.3842 9.04389C58.1366 10.1114 48.4657 11.2087 45.4787 15.748C43.9408 18.0924 44.7393 19.529 43.3493 21.9732C40.0567 27.7794 32.9687 26.7319 28.6804 32.0293C25.6638 35.7604 27.1524 38.2146 24.6582 42.3249C20.9516 48.4503 12.1877 50.685 12.1187 55.2542C12.0595 58.8656 17.3533 60.3122 19.2165 64.8314C21.0403 69.2509 18.5758 73.2514 21.3459 77.2819C23.2387 80.0353 25.4469 79.746 27.4974 82.0705C30.6224 85.6121 30.1295 90.6302 30.3365 98.8307C30.4548 103.39 30.8886 107.141 31.9927 109.126C33.5306 111.88 38.4498 114.823 38.3808 118.225C38.3414 120.3 36.8035 121.038 36.488 123.492C36.2416 125.378 36.7641 126.794 37.1978 128.041C38.4597 131.693 38.6371 134.636 40.5102 137.14C42.6198 139.963 44.7393 140.542 47.608 142.647C51.3739 145.4 54.0454 148.642 55.6523 151.984C58.107 157.082 57.8014 161.352 58.0183 165.632C58.2351 170.002 59.1914 175 61.094 180.716C63.5388 188.059 67.423 192.359 66.2991 196.998C63.6177 208.131 42.1368 206.585 35.7782 219.025C29.124 232.034 38.9329 254.072 53.9961 264.757C59.9308 268.967 65.8259 270.882 71.9479 272.119C94.2766 276.619 122.106 273.237 145.322 258.771C154.589 252.995 161.874 245.712 164.723 241.532C169.238 234.898 168.873 230.019 173.95 223.814C179.54 216.97 187.229 212.77 193.824 205.378C195.766 203.203 198.192 200.02 197.373 196.998C196.535 193.915 192.75 192.518 191.222 191.97C186.096 190.124 172.274 185.156 171.348 185.026C157.29 183.081 149.177 181.963 144.79 175.818C143.538 174.062 142.877 170.371 141.773 166.59C139.723 159.557 138.303 155.297 139.171 149.59C139.811 145.34 142.039 140.981 142.72 139.773C144.938 135.833 152.124 121.108 151 104.577C150.478 96.8454 148.191 88.6449 153.13 82.3099Z" fill="#C6D4DF" stroke="#0063BD" stroke-width="1.5" stroke-miterlimit="10"/>
<path d="M137.603 150.666C135.01 153.533 132.26 156.539 129.559 159.475C124.205 165.299 120.883 168.691 115.362 170.428C108.707 172.531 102.605 171.072 95.2501 168.523C79.9197 163.205 67.5075 155.328 63.5443 150.666C59.1867 145.527 56.0024 139.684 55.2629 137.094C53.4687 130.785 54.4742 125.795 50.5307 121.856C47.9773 119.317 45.0887 119.277 42.486 117.571C37.1228 114.069 34.668 108.255 33.7314 104.714C32.992 101.926 30.4484 90.0608 37.9904 85.1898C42.4367 82.3228 48.5196 83.1759 53.3701 85.9041" fill="#C6D4DF"/>
<path d="M137.603 150.666C135.01 153.533 132.26 156.539 129.559 159.475C124.205 165.299 120.883 168.691 115.362 170.428C108.707 172.531 102.605 171.072 95.2501 168.523C79.9197 163.205 67.5075 155.328 63.5443 150.666C59.1867 145.527 56.0024 139.684 55.2629 137.094C53.4687 130.785 54.4742 125.795 50.5307 121.856C47.9773 119.317 45.0887 119.277 42.486 117.571C37.1228 114.069 34.668 108.255 33.7314 104.714C32.992 101.926 30.4484 90.0608 37.9904 85.1898C42.4367 82.3228 48.5196 83.1759 53.3701 85.9041" stroke="#0063BD" stroke-width="1.5" stroke-miterlimit="10"/>
<path d="M149.309 80.7356C147.959 78.6519 146.934 76.4775 146.234 74.2126C145.288 71.1222 144.865 67.6694 144.106 64.5489C143.524 62.143 142.854 60.0895 141.031 58.7506C138.784 57.0997 136.754 58.056 133.227 57.7843C128.763 57.442 126.22 54.3315 121.165 55.1267C118.889 55.4891 118.021 56.5864 115.725 56.8179C110.867 57.3011 109.143 54.0698 104.61 54.402C101.111 54.6536 99.1603 57.1702 96.0956 58.2674C91.5626 59.8982 86.2709 60.6934 82.6149 58.2674C81.8956 57.7943 79.6587 54.9355 78.1214 55.1267C75.845 55.4187 75.2439 60.7136 72.6818 63.3409C69.1047 67.0151 62.2954 66.9044 62.0392 69.1391C61.8421 70.8403 65.4291 71.8873 65.8232 74.2126C66.3258 77.162 62.2363 80.5947 56.5996 83.8763" fill="#C6D4DF"/>
<path d="M149.309 80.7356C147.959 78.6519 146.934 76.4775 146.234 74.2126C145.288 71.1222 144.865 67.6694 144.106 64.5489C143.524 62.143 142.854 60.0895 141.031 58.7506C138.784 57.0997 136.754 58.056 133.227 57.7843C128.763 57.442 126.22 54.3315 121.165 55.1267C118.889 55.4891 118.021 56.5864 115.725 56.8179C110.867 57.3011 109.143 54.0698 104.61 54.402C101.111 54.6536 99.1603 57.1702 96.0956 58.2674C91.5626 59.8982 86.2709 60.6934 82.6149 58.2674C81.8956 57.7943 79.6587 54.9355 78.1214 55.1267C75.845 55.4187 75.2439 60.7136 72.6818 63.3409C69.1047 67.0151 62.2954 66.9044 62.0392 69.1391C61.8421 70.8403 65.4291 71.8873 65.8232 74.2126C66.3258 77.162 62.2363 80.5947 56.5996 83.8763" stroke="#0063BD" stroke-width="1.5" stroke-miterlimit="10"/>
<path d="M121.684 118.057C121.724 118.037 124.175 121.203 124.806 125.918C125.246 129.164 124.616 131.645 124.566 131.635C124.506 131.626 125.176 128.459 124.326 124.489C123.485 120.558 121.654 118.077 121.684 118.057Z" fill="#C6D4DF" stroke="#0063BD" stroke-width="1.5" stroke-miterlimit="10"/>
<path d="M102.992 131.331C103.66 131.839 105.419 130.719 106.152 130.584C108.597 130.138 110.656 131.974 110.891 131.58C111.145 131.154 109.265 128.726 106.603 128.094C105.785 127.896 103.519 127.523 102.767 128.841C102.325 129.619 102.409 130.895 102.992 131.331Z" fill="#C6D4DF" stroke="#0063BD" stroke-width="1.5" stroke-miterlimit="10"/>
<path d="M94.562 143.183C94.7401 142.813 95.5711 142.923 96.224 142.943C99.4786 143.043 101.15 140.492 104.059 139.821C108.184 138.871 109.46 141.262 113.793 140.782C114.04 140.752 117.77 139.801 120.203 140.061C121.578 140.211 124.694 140.792 124.951 142.222C125.08 142.923 123.893 144.363 123.764 144.623C123.388 145.434 123.438 146.044 123.052 146.784C121.845 149.105 118.244 149.276 113.081 149.666C108.936 149.976 105.968 150.106 102.872 149.185C101.388 148.745 98.974 147.675 96.6988 145.824C95.482 144.834 94.3048 143.703 94.562 143.183Z" fill="#C6D4DF" stroke="#0063BD" stroke-width="1.5" stroke-miterlimit="10"/>
<path d="M97.8037 144.746C99.2607 145.288 100.757 145.669 102.293 145.854C104.33 146.108 106.142 145.808 107.963 145.854C109.666 145.9 110.985 146.235 112.688 146.131C114.578 146.015 116.006 145.496 117.886 145.3C119.747 145.104 121.637 145.208 123.556 145.577" fill="#C6D4DF"/>
<path d="M97.8037 144.746C99.2607 145.288 100.757 145.669 102.293 145.854C104.33 146.108 106.142 145.808 107.963 145.854C109.666 145.9 110.985 146.235 112.688 146.131C114.578 146.015 116.006 145.496 117.886 145.3C119.747 145.104 121.637 145.208 123.556 145.577" stroke="#0063BD" stroke-width="1.5" stroke-miterlimit="10"/>
<path d="M66.9004 199.997C66.891 199.997 69.9518 208.888 71.8731 221.698C73.4836 232.428 73.4553 240.265 73.4553 240.265C73.4553 240.265 73.5212 231.634 71.6471 220.01C69.7352 208.135 66.9098 199.997 66.9004 199.997Z" fill="#C6D4DF" stroke="#0063BD" stroke-width="1.5" stroke-miterlimit="10"/>
<path d="M66.141 210.298C66.0614 210.298 67.264 217.949 63.2786 225.82C60.4957 231.322 56.5996 234.177 56.5996 234.177C56.5996 234.177 61.6486 230.516 64.4712 223.67C67.3833 216.606 66.2105 210.298 66.141 210.298Z" fill="#C6D4DF" stroke="#0063BD" stroke-width="1.5" stroke-miterlimit="10"/>
<path d="M99.2083 223.408C98.0662 226.869 96.7037 230.237 95.1208 233.512C93.6882 236.49 92.0853 239.365 90.312 242.138C92.6964 238.924 94.7101 235.463 96.3231 231.787C97.5152 229.087 98.477 226.284 99.2083 223.408Z" fill="#C6D4DF" stroke="#0063BD" stroke-width="1.5" stroke-miterlimit="10"/>
<path d="M143.371 177.522C143.361 177.522 144.085 184.488 143.129 193.855C141.871 206.145 138.53 214.512 138.54 214.512C138.55 214.512 142.264 205.375 143.371 192.174C144.085 183.687 143.381 177.522 143.371 177.522Z" fill="#C6D4DF" stroke="#0063BD" stroke-width="1.5" stroke-miterlimit="10"/>
<path d="M158.205 183.609C158.175 183.579 155.944 185.422 153.381 188.416C144.266 199.05 142.256 210.756 142.286 210.766C142.306 210.776 143.613 202.956 149.522 193.943C153.723 187.545 158.255 183.659 158.205 183.609Z" fill="#C6D4DF" stroke="#0063BD" stroke-width="1.5" stroke-miterlimit="10"/>
<path d="M168.975 219.662C168.985 219.634 161.239 216.36 150.246 215.31C144.549 214.766 140.413 215.052 140.413 215.081C140.413 215.119 146.607 214.747 154.694 215.997C163.288 217.333 168.965 219.691 168.975 219.662Z" fill="#C6D4DF" stroke="#0063BD" stroke-width="1.5" stroke-miterlimit="10"/>
<path d="M137.603 216.853C137.583 216.863 138.735 226.478 145.778 236.36C150.386 242.832 155.366 246.381 155.396 246.351C155.426 246.321 150.256 242.525 145.538 235.646C138.886 225.962 137.623 216.853 137.603 216.853Z" fill="#C6D4DF" stroke="#0063BD" stroke-width="1.5" stroke-miterlimit="10"/>
<path d="M42.5533 231.835C42.573 231.883 47.2794 230.576 52.4989 226.99C59.7509 222.011 63.1944 215.945 63.1549 215.917C63.1155 215.888 60.0667 221.059 53.6829 225.837C47.9109 230.162 42.5335 231.787 42.5533 231.835Z" fill="#C6D4DF" stroke="#0063BD" stroke-width="1.5" stroke-miterlimit="10"/>
<path d="M138.072 234.18C138.111 234.281 130.647 237.187 120.443 238.361C115.073 238.975 110.915 238.883 110.915 238.801C110.905 238.7 117.267 238.636 125.208 237.261C132.851 235.941 138.042 234.098 138.072 234.18Z" fill="#C6D4DF" stroke="#0063BD" stroke-width="1.5" stroke-miterlimit="10"/>
<path d="M135.25 210.766C135.346 210.796 134.926 215.407 131.814 219.705C128.521 224.254 124.083 225.855 124.025 225.744C123.968 225.633 128.645 223.63 132.043 218.497C134.659 214.551 135.165 210.746 135.25 210.766Z" fill="#C6D4DF" stroke="#0063BD" stroke-width="1.5" stroke-miterlimit="10"/>
<path d="M94.5258 250.099C94.4879 250.038 89.8029 252.354 86.5595 257.624C82.9367 263.522 83.2023 269.733 83.373 269.763C83.5626 269.793 83.6764 261.64 89.0632 254.954C91.7471 251.626 94.5543 250.149 94.5258 250.099Z" fill="#C6D4DF" stroke="#0063BD" stroke-width="1.5" stroke-miterlimit="10"/>
<path d="M69.7523 160.666C69.7023 160.666 68.9817 177.36 76.2372 196.938C80.8606 209.405 86.4548 216.912 86.5649 216.853C86.725 216.764 76.1671 201.64 71.6738 179.158C69.4721 168.134 69.7823 160.666 69.7523 160.666Z" fill="#C6D4DF" stroke="#0063BD" stroke-width="1.5" stroke-miterlimit="10"/>
<path d="M130.107 169.095C129.969 168.988 126.079 174.947 118.705 179.16C116.013 180.701 114.182 181.237 114.192 181.267C114.222 181.325 120.576 179.531 126.069 174.245C128.87 171.553 130.197 169.164 130.107 169.095Z" fill="#C6D4DF" stroke="#0063BD" stroke-width="1.5" stroke-miterlimit="10"/>
<path d="M104.355 85.6069C104.541 84.9716 99.0909 82.3821 92.8058 81.2173C89.6337 80.63 86.0296 80.4279 81.7282 80.7552C76.1993 81.1787 70.1105 82.4783 70.1793 83.2966C70.2382 83.9801 74.6378 84.1822 76.0716 84.2207C78.8606 84.3074 81.2667 83.98 83.8495 83.7586C86.7563 83.5084 91.1756 84.0956 95.6341 84.6828C101.153 85.4144 104.227 86.0401 104.355 85.6069Z" fill="#C6D4DF" stroke="#0063BD" stroke-width="1.5" stroke-miterlimit="10"/>
<path d="M123.986 84.5372C123.641 83.9344 126.35 81.3352 129.66 79.7934C136.909 76.4234 145.075 79.1609 145.026 79.5563C145.006 79.6847 143.686 79.5661 141.953 79.7934C141.037 79.912 140.239 80.0702 139.352 80.2678C137.609 80.6533 135.649 80.8213 133.678 81.4538C131.965 82.0072 130.645 82.7286 128.95 83.3513C126.212 84.3692 124.242 84.9918 123.986 84.5372Z" fill="#C6D4DF" stroke="#0063BD" stroke-width="1.5" stroke-miterlimit="10"/>
<path d="M110.456 76.8531C110.476 76.844 111.217 78.8184 110.773 80.983C110.529 82.1966 110.013 82.9665 109.98 82.9393C109.94 82.9121 110.641 81.6894 110.773 79.8962C110.906 78.1391 110.443 76.8621 110.456 76.8531Z" fill="#C6D4DF" stroke="#0063BD" stroke-width="1.5" stroke-miterlimit="10"/>
<path d="M120.277 74.7526C120.24 74.7315 119.108 76.4434 119.386 78.5568C119.563 79.9305 120.259 80.8499 120.277 80.8393C120.296 80.8288 119.813 80.1419 119.609 79.064C119.164 76.7604 120.324 74.7843 120.277 74.7526Z" fill="#C6D4DF" stroke="#0063BD" stroke-width="1.5" stroke-miterlimit="10"/>
<path d="M120.096 104.479C120.056 107.187 120.155 109.886 120.402 112.605C120.551 114.234 120.778 116.093 121.045 117.912C121.321 119.771 121.568 122.34 121.756 123.19C122.013 124.339 122.359 125.599 121.993 127.268C121.41 129.967 119.128 132.785 116.539 133.025C113.684 133.285 110.304 130.137 108.951 128.707C108.635 128.367 107.686 127.328 106.342 127.268C105.937 127.248 105.087 127.448 104.208 127.988C103.556 128.387 102.588 129.547 102.074 129.427C101.106 129.207 100.997 126.348 101.125 124.629C101.254 122.91 101.758 121.84 102.311 121.271C102.825 120.741 103.615 120.271 104.919 120.071C105.789 119.941 106.678 120.021 107.528 120.311" fill="#C6D4DF"/>
<path d="M120.096 104.479C120.056 107.187 120.155 109.886 120.402 112.605C120.551 114.234 120.778 116.093 121.045 117.912C121.321 119.771 121.568 122.34 121.756 123.19C122.013 124.339 122.359 125.599 121.993 127.268C121.41 129.967 119.128 132.785 116.539 133.025C113.684 133.285 110.304 130.137 108.951 128.707C108.635 128.367 107.686 127.328 106.342 127.268C105.937 127.248 105.087 127.448 104.208 127.988C103.556 128.387 102.588 129.547 102.074 129.427C101.106 129.207 100.997 126.348 101.125 124.629C101.254 122.91 101.758 121.84 102.311 121.271C102.825 120.741 103.615 120.271 104.919 120.071C105.789 119.941 106.678 120.021 107.528 120.311" stroke="#0063BD" stroke-width="1.5" stroke-miterlimit="10"/>
<rect y="84.5225" width="279.182" height="27.8408" fill="#DC5041"/>
</svg>
