<svg width="348" height="432" viewBox="0 0 348 432" fill="none" xmlns="http://www.w3.org/2000/svg">
<path d="M240.092 129.486C242.302 126.639 245.795 124.684 250.108 121.978C264.22 113.124 271.623 106.883 273.107 98.7025C273.54 96.278 273.555 93.4468 273.107 90.819C272.396 86.6739 270.541 84.8125 269.769 80.6831C269.181 77.5234 270.093 75.8185 269.027 72.7996C267.187 67.5596 261.824 65.4636 259.382 62.2883C255.069 56.7042 256.816 52.5591 253.446 46.8967C249.041 39.4981 242.673 37.9652 235.269 33.7576C220.091 25.1233 215.377 6.1654 197.432 2.97446C190.414 1.72311 186.519 4.21017 179.255 4.10067C171.465 3.99118 164.138 0.675112 155.142 2.59906C151 3.49064 144.895 7.24468 137.707 7.10391C132.947 7.01005 130.195 5.36766 125.466 4.85148C120.736 4.3353 116.022 4.58557 111.74 5.60229C104.337 7.36982 99.3287 12.4065 94.6762 14.612C91.1521 16.2857 75.9892 18.0063 71.3059 25.1233C68.8946 28.7991 70.1466 31.0516 67.9673 34.8838C62.8047 43.9874 51.6915 42.345 44.9678 50.6508C40.2381 56.5008 42.5721 60.3487 38.6616 66.7931C32.8499 76.3972 19.109 79.901 19.0008 87.065C18.908 92.7273 27.2082 94.9954 30.1295 102.081C32.989 109.01 29.1248 115.283 33.4681 121.602C36.4358 125.919 39.8981 125.466 43.1131 129.11C48.0128 134.663 47.24 142.531 47.5645 155.388C47.75 162.537 48.4301 168.418 50.1613 171.531C52.5725 175.848 60.2853 180.462 60.1771 185.796C60.1153 189.05 57.7041 190.207 57.2095 194.055C56.823 197.011 57.6422 199.233 58.3223 201.188C60.3008 206.913 60.579 211.527 63.5158 215.453C66.8235 219.88 70.1466 220.787 74.6445 224.087C80.5489 228.405 84.7377 233.488 87.2571 238.728C91.1058 246.721 90.6266 253.416 90.9667 260.126C91.3067 266.977 92.806 274.814 95.7891 283.777C99.6224 295.289 105.712 302.031 103.95 309.304C99.746 326.76 66.0661 324.336 56.0966 343.841C45.6634 364.238 61.0427 398.791 84.6604 415.544C93.9652 422.144 103.208 425.148 112.807 427.087C147.816 434.142 191.45 428.839 227.85 406.158C242.379 397.102 253.802 385.683 258.269 379.129C265.348 368.728 264.776 361.079 272.736 351.349C281.5 340.619 293.556 334.034 303.897 322.443C306.942 319.033 310.744 314.044 309.461 309.304C308.147 304.471 302.212 302.281 299.816 301.421C291.779 298.527 270.109 290.737 268.656 290.534C246.615 287.484 233.894 285.732 227.016 276.097C225.053 273.344 224.017 267.556 222.286 261.628C219.071 250.6 216.845 243.921 218.205 234.974C219.21 228.311 222.703 221.475 223.77 219.583C227.247 213.404 238.515 190.317 236.753 164.398C235.934 152.276 232.348 139.418 240.092 129.486Z" fill="#C6D4DF" stroke="#0063BD" stroke-width="3" stroke-miterlimit="10"/>
<path d="M215.748 236.66C211.682 241.156 207.37 245.869 203.134 250.473C194.741 259.603 189.532 264.923 180.876 267.645C170.442 270.943 160.874 268.656 149.342 264.659C125.306 256.321 105.845 243.971 99.6308 236.66C92.7986 228.603 87.8058 219.442 86.6465 215.382C83.8332 205.489 85.4099 197.665 79.2268 191.49C75.2233 187.508 70.6943 187.446 66.6135 184.771C58.2046 179.28 54.3557 170.165 52.8872 164.612C51.7279 160.241 47.7399 141.638 59.5649 134.001C66.5362 129.506 76.0735 130.843 83.6786 135.121" fill="#C6D4DF"/>
<path d="M215.748 236.66C211.682 241.156 207.37 245.869 203.134 250.473C194.741 259.603 189.532 264.923 180.876 267.645C170.442 270.943 160.874 268.656 149.342 264.659C125.306 256.321 105.845 243.971 99.6308 236.66C92.7986 228.603 87.8058 219.442 86.6465 215.382C83.8332 205.489 85.4099 197.665 79.2268 191.49C75.2233 187.508 70.6943 187.446 66.6135 184.771C58.2046 179.28 54.3557 170.165 52.8872 164.612C51.7279 160.241 47.7399 141.638 59.5649 134.001C66.5362 129.506 76.0735 130.843 83.6786 135.121" stroke="#0063BD" stroke-width="3" stroke-miterlimit="10"/>
<path d="M234.101 127.017C231.984 123.75 230.378 120.341 229.281 116.79C227.797 111.944 227.133 106.531 225.943 101.638C225.032 97.866 223.981 94.6463 221.123 92.5471C217.6 89.9587 214.417 91.4581 208.886 91.0319C201.887 90.4953 197.901 85.6183 189.974 86.8652C186.405 87.4334 185.046 89.1537 181.446 89.5168C173.829 90.2743 171.125 85.208 164.018 85.7288C158.533 86.1234 155.473 90.0692 150.668 91.7895C143.561 94.3464 135.264 95.5932 129.532 91.7895C128.404 91.0477 124.897 86.5653 122.487 86.8652C118.918 87.3229 117.975 95.6248 113.958 99.7442C108.349 105.505 97.6731 105.331 97.2714 108.835C96.9624 111.503 102.586 113.144 103.204 116.79C103.992 121.414 97.5804 126.796 88.7427 131.942" fill="#C6D4DF"/>
<path d="M234.101 127.017C231.984 123.75 230.378 120.341 229.281 116.79C227.797 111.944 227.133 106.531 225.943 101.638C225.032 97.866 223.981 94.6463 221.123 92.5471C217.6 89.9587 214.417 91.4581 208.886 91.0319C201.887 90.4953 197.901 85.6183 189.974 86.8652C186.405 87.4334 185.046 89.1537 181.446 89.5168C173.829 90.2743 171.125 85.208 164.018 85.7288C158.533 86.1234 155.473 90.0692 150.668 91.7895C143.561 94.3464 135.264 95.5932 129.532 91.7895C128.404 91.0477 124.897 86.5653 122.487 86.8652C118.918 87.3229 117.975 95.6248 113.958 99.7442C108.349 105.505 97.6731 105.331 97.2714 108.835C96.9624 111.503 102.586 113.144 103.204 116.79C103.992 121.414 97.5804 126.796 88.7427 131.942" stroke="#0063BD" stroke-width="3" stroke-miterlimit="10"/>
<path d="M190.788 185.533C190.85 185.502 194.694 190.467 195.683 197.859C196.373 202.948 195.384 206.839 195.306 206.823C195.212 206.807 196.263 201.843 194.929 195.618C193.612 189.455 190.741 185.564 190.788 185.533Z" fill="#C6D4DF" stroke="#0063BD" stroke-width="3" stroke-miterlimit="10"/>
<path d="M161.481 206.345C162.528 207.143 165.285 205.386 166.435 205.174C170.269 204.475 173.498 207.354 173.866 206.736C174.265 206.069 171.316 202.262 167.143 201.27C165.86 200.961 162.307 200.375 161.128 202.441C160.435 203.661 160.567 205.662 161.481 206.345Z" fill="#C6D4DF" stroke="#0063BD" stroke-width="3" stroke-miterlimit="10"/>
<path d="M148.263 224.928C148.543 224.347 149.845 224.52 150.869 224.551C155.972 224.708 158.593 220.708 163.153 219.657C169.621 218.167 171.622 221.916 178.415 221.163C178.803 221.116 184.651 219.626 188.466 220.034C190.622 220.269 195.508 221.179 195.911 223.422C196.113 224.52 194.251 226.779 194.05 227.187C193.46 228.457 193.538 229.414 192.933 230.575C191.041 234.214 185.395 234.481 177.299 235.092C170.8 235.579 166.147 235.783 161.292 234.339C158.966 233.649 155.181 231.971 151.614 229.069C149.706 227.516 147.86 225.744 148.263 224.928Z" fill="#C6D4DF" stroke="#0063BD" stroke-width="3" stroke-miterlimit="10"/>
<path d="M153.347 227.379C155.631 228.23 157.977 228.827 160.385 229.116C163.58 229.514 166.42 229.044 169.275 229.116C171.946 229.189 174.014 229.713 176.684 229.55C179.648 229.369 181.886 228.555 184.834 228.248C187.751 227.94 190.714 228.103 193.724 228.682" fill="#C6D4DF"/>
<path d="M153.347 227.379C155.631 228.23 157.977 228.827 160.385 229.116C163.58 229.514 166.42 229.044 169.275 229.116C171.946 229.189 174.014 229.713 176.684 229.55C179.648 229.369 181.886 228.555 184.834 228.248C187.751 227.94 190.714 228.103 193.724 228.682" stroke="#0063BD" stroke-width="3" stroke-miterlimit="10"/>
<path d="M104.894 314.007C104.879 314.007 109.678 327.948 112.69 348.032C115.215 364.856 115.171 377.143 115.171 377.143C115.171 377.143 115.274 363.611 112.336 345.386C109.338 326.766 104.908 314.007 104.894 314.007Z" fill="#C6D4DF" stroke="#0063BD" stroke-width="3" stroke-miterlimit="10"/>
<path d="M103.703 330.158C103.578 330.158 105.463 342.154 99.2146 354.494C94.8513 363.121 88.7427 367.599 88.7427 367.599C88.7427 367.599 96.6589 361.858 101.085 351.125C105.65 340.048 103.812 330.158 103.703 330.158Z" fill="#C6D4DF" stroke="#0063BD" stroke-width="3" stroke-miterlimit="10"/>
<path d="M155.549 350.714C153.758 356.139 151.622 361.42 149.14 366.555C146.894 371.224 144.38 375.732 141.6 380.079C145.339 375.04 148.496 369.614 151.025 363.851C152.894 359.617 154.402 355.221 155.549 350.714Z" fill="#C6D4DF" stroke="#0063BD" stroke-width="3" stroke-miterlimit="10"/>
<path d="M224.79 278.769C224.775 278.769 225.911 289.69 224.412 304.377C222.439 323.647 217.201 336.765 217.216 336.765C217.232 336.765 223.055 322.439 224.79 301.741C225.911 288.435 224.806 278.769 224.79 278.769Z" fill="#C6D4DF" stroke="#0063BD" stroke-width="3" stroke-miterlimit="10"/>
<path d="M248.049 288.313C248.002 288.265 244.504 291.154 240.486 295.849C226.194 312.522 223.043 330.876 223.09 330.892C223.121 330.907 225.17 318.646 234.435 304.515C241.022 294.483 248.128 288.391 248.049 288.313Z" fill="#C6D4DF" stroke="#0063BD" stroke-width="3" stroke-miterlimit="10"/>
<path d="M264.935 344.84C264.95 344.795 252.806 339.662 235.57 338.016C226.638 337.163 220.153 337.612 220.153 337.657C220.153 337.717 229.865 337.133 242.544 339.094C256.018 341.189 264.92 344.885 264.935 344.84Z" fill="#C6D4DF" stroke="#0063BD" stroke-width="3" stroke-miterlimit="10"/>
<path d="M215.748 340.436C215.717 340.451 217.523 355.526 228.565 371.02C235.791 381.169 243.597 386.732 243.644 386.686C243.692 386.639 235.587 380.687 228.188 369.901C217.759 354.718 215.779 340.436 215.748 340.436Z" fill="#C6D4DF" stroke="#0063BD" stroke-width="3" stroke-miterlimit="10"/>
<path d="M66.7188 363.926C66.7498 364.001 74.1289 361.951 82.3126 356.33C93.683 348.523 99.082 339.013 99.0201 338.967C98.9582 338.922 94.178 347.031 84.169 354.521C75.119 361.303 66.6879 363.85 66.7188 363.926Z" fill="#C6D4DF" stroke="#0063BD" stroke-width="3" stroke-miterlimit="10"/>
<path d="M216.482 367.603C216.544 367.761 204.841 372.317 188.843 374.157C180.423 375.12 173.902 374.976 173.902 374.847C173.887 374.689 183.862 374.588 196.313 372.432C208.296 370.362 216.435 367.473 216.482 367.603Z" fill="#C6D4DF" stroke="#0063BD" stroke-width="3" stroke-miterlimit="10"/>
<path d="M212.059 330.892C212.209 330.939 211.55 338.168 206.671 344.906C201.508 352.04 194.549 354.549 194.459 354.376C194.37 354.202 201.703 351.062 207.031 343.013C211.131 336.826 211.924 330.86 212.059 330.892Z" fill="#C6D4DF" stroke="#0063BD" stroke-width="3" stroke-miterlimit="10"/>
<path d="M148.207 392.561C148.148 392.466 140.802 396.098 135.717 404.361C130.037 413.607 130.453 423.345 130.721 423.393C131.018 423.44 131.197 410.657 139.642 400.174C143.85 394.956 148.252 392.64 148.207 392.561Z" fill="#C6D4DF" stroke="#0063BD" stroke-width="3" stroke-miterlimit="10"/>
<path d="M109.364 252.34C109.286 252.34 108.156 278.514 119.532 309.211C126.781 328.757 135.552 340.528 135.725 340.435C135.976 340.296 119.422 316.584 112.377 281.333C108.925 264.048 109.412 252.34 109.364 252.34Z" fill="#C6D4DF" stroke="#0063BD" stroke-width="3" stroke-miterlimit="10"/>
<path d="M203.995 265.556C203.778 265.388 197.679 274.731 186.118 281.336C181.897 283.752 179.026 284.593 179.042 284.639C179.088 284.731 189.051 281.917 197.664 273.63C202.056 269.41 204.135 265.663 203.995 265.556Z" fill="#C6D4DF" stroke="#0063BD" stroke-width="3" stroke-miterlimit="10"/>
<path d="M163.617 134.655C163.91 133.659 155.364 129.599 145.51 127.772C140.536 126.852 134.885 126.535 128.141 127.048C119.472 127.712 109.926 129.75 110.034 131.032C110.126 132.104 117.024 132.421 119.272 132.481C123.645 132.617 127.417 132.104 131.467 131.757C136.025 131.364 142.954 132.285 149.944 133.206C158.598 134.353 163.417 135.334 163.617 134.655Z" fill="#C6D4DF" stroke="#0063BD" stroke-width="3" stroke-miterlimit="10"/>
<path d="M194.397 132.978C193.856 132.033 198.103 127.957 203.293 125.54C214.66 120.256 227.463 124.548 227.386 125.168C227.355 125.37 225.285 125.184 222.567 125.54C221.131 125.726 219.88 125.974 218.49 126.284C215.756 126.888 212.683 127.152 209.594 128.143C206.907 129.011 204.837 130.142 202.181 131.118C197.887 132.714 194.798 133.691 194.397 132.978Z" fill="#C6D4DF" stroke="#0063BD" stroke-width="3" stroke-miterlimit="10"/>
<path d="M173.183 120.93C173.214 120.916 174.376 124.011 173.681 127.405C173.297 129.308 172.488 130.515 172.437 130.472C172.374 130.43 173.474 128.513 173.681 125.701C173.889 122.946 173.163 120.944 173.183 120.93Z" fill="#C6D4DF" stroke="#0063BD" stroke-width="3" stroke-miterlimit="10"/>
<path d="M188.583 117.637C188.525 117.603 186.749 120.287 187.186 123.601C187.462 125.755 188.554 127.196 188.583 127.18C188.612 127.163 187.855 126.086 187.535 124.396C186.836 120.784 188.656 117.686 188.583 117.637Z" fill="#C6D4DF" stroke="#0063BD" stroke-width="3" stroke-miterlimit="10"/>
<path d="M188.298 164.244C188.236 168.491 188.391 172.722 188.778 176.985C189.011 179.539 189.367 182.454 189.785 185.306C190.219 188.221 190.606 192.249 190.901 193.581C191.303 195.383 191.846 197.358 191.272 199.975C190.358 204.207 186.78 208.626 182.721 209.002C178.244 209.41 172.946 204.473 170.823 202.232C170.328 201.699 168.84 200.069 166.734 199.975C166.098 199.944 164.766 200.257 163.387 201.104C162.365 201.73 160.847 203.548 160.041 203.36C158.523 203.015 158.353 198.533 158.554 195.838C158.755 193.142 159.545 191.465 160.413 190.572C161.219 189.742 162.458 189.005 164.503 188.692C165.866 188.488 167.26 188.613 168.593 189.068" fill="#C6D4DF"/>
<path d="M188.298 164.244C188.236 168.491 188.391 172.722 188.778 176.985C189.011 179.539 189.367 182.454 189.785 185.306C190.219 188.221 190.606 192.249 190.901 193.581C191.303 195.383 191.846 197.358 191.272 199.975C190.358 204.207 186.78 208.626 182.721 209.002C178.244 209.41 172.946 204.473 170.823 202.232C170.328 201.699 168.84 200.069 166.734 199.975C166.098 199.944 164.766 200.257 163.387 201.104C162.365 201.73 160.847 203.548 160.041 203.36C158.523 203.015 158.353 198.533 158.554 195.838C158.755 193.142 159.545 191.465 160.413 190.572C161.219 189.742 162.458 189.005 164.503 188.692C165.866 188.488 167.26 188.613 168.593 189.068" stroke="#0063BD" stroke-width="3" stroke-miterlimit="10"/>
<rect y="133" width="348" height="44" fill="#DC5041"/>
</svg>
