<svg width="53" height="1113" viewBox="0 0 53 1113" fill="none" xmlns="http://www.w3.org/2000/svg">
<rect width="53" height="53" transform="matrix(-1 0 0 1 53 0)" fill="#F2CA46"/>
<rect width="53" height="53" transform="matrix(-1 0 0 1 53 477)" fill="#0063BD" fill-opacity="0.8"/>
<rect width="53" height="53" transform="matrix(-1 0 0 1 53 530)" fill="#0063BD"/>
<rect width="53" height="53" transform="matrix(-1 0 0 1 53 424)" fill="#0063BD" fill-opacity="0.6"/>
<rect width="53" height="53" transform="matrix(-1 0 0 1 53 371)" fill="#0063BD" fill-opacity="0.4"/>
<rect width="53" height="53" transform="matrix(-1 0 0 1 53 318)" fill="#0063BD" fill-opacity="0.2"/>
<rect width="53" height="53" transform="matrix(-1 0 0 1 53 212)" fill="#F2CA46" fill-opacity="0.2"/>
<rect width="53" height="53" transform="matrix(-1 0 0 1 53 159)" fill="#F2CA46" fill-opacity="0.4"/>
<rect width="53" height="53" transform="matrix(-1 0 0 1 53 106)" fill="#F2CA46" fill-opacity="0.6"/>
<rect width="53" height="53" transform="matrix(-1 0 0 1 53 53)" fill="#F2CA46" fill-opacity="0.8"/>
<rect width="53" height="53" transform="matrix(1 0 0 -1 0 1113)" fill="#F2CA46"/>
<rect width="53" height="53" transform="matrix(1 0 0 -1 0 636)" fill="#0063BD" fill-opacity="0.8"/>
<rect width="53" height="53" transform="matrix(1 0 0 -1 0 583)" fill="#0063BD"/>
<rect width="53" height="53" transform="matrix(1 0 0 -1 0 689)" fill="#0063BD" fill-opacity="0.6"/>
<rect width="53" height="53" transform="matrix(1 0 0 -1 0 742)" fill="#0063BD" fill-opacity="0.4"/>
<rect width="53" height="53" transform="matrix(1 0 0 -1 0 795)" fill="#0063BD" fill-opacity="0.2"/>
<rect width="53" height="53" transform="matrix(1 0 0 -1 0 901)" fill="#F2CA46" fill-opacity="0.2"/>
<rect width="53" height="53" transform="matrix(1 0 0 -1 0 954)" fill="#F2CA46" fill-opacity="0.4"/>
<rect width="53" height="53" transform="matrix(1 0 0 -1 0 1007)" fill="#F2CA46" fill-opacity="0.6"/>
<rect width="53" height="53" transform="matrix(1 0 0 -1 0 1060)" fill="#F2CA46" fill-opacity="0.8"/>
</svg>
