<svg width="53" height="1113" viewBox="0 0 53 1113" fill="none" xmlns="http://www.w3.org/2000/svg">
<rect width="53" height="53" transform="matrix(-1 0 0 1 53 530)" fill="#F2CA46"/>
<rect width="53" height="53" transform="matrix(-1 0 0 1 53 1007)" fill="#DC5041" fill-opacity="0.8"/>
<rect width="53" height="53" transform="matrix(-1 0 0 1 53 1060)" fill="#DC5041"/>
<rect width="53" height="53" transform="matrix(-1 0 0 1 53 954)" fill="#DC5041" fill-opacity="0.6"/>
<rect width="53" height="53" transform="matrix(-1 0 0 1 53 901)" fill="#DC5041" fill-opacity="0.4"/>
<rect width="53" height="53" transform="matrix(-1 0 0 1 53 848)" fill="#DC5041" fill-opacity="0.2"/>
<rect width="53" height="53" transform="matrix(-1 0 0 1 53 742)" fill="#F2CA46" fill-opacity="0.2"/>
<rect width="53" height="53" transform="matrix(-1 0 0 1 53 689)" fill="#F2CA46" fill-opacity="0.4"/>
<rect width="53" height="53" transform="matrix(-1 0 0 1 53 636)" fill="#F2CA46" fill-opacity="0.6"/>
<rect width="53" height="53" transform="matrix(-1 0 0 1 53 583)" fill="#F2CA46" fill-opacity="0.8"/>
<rect width="53" height="53" transform="matrix(1 0 0 -1 0 583)" fill="#F2CA46"/>
<rect width="53" height="53" transform="matrix(1 0 0 -1 0 106)" fill="#DC5041" fill-opacity="0.8"/>
<rect width="53" height="53" transform="matrix(1 0 0 -1 0 53)" fill="#DC5041"/>
<rect width="53" height="53" transform="matrix(1 0 0 -1 0 159)" fill="#DC5041" fill-opacity="0.6"/>
<rect width="53" height="53" transform="matrix(1 0 0 -1 0 212)" fill="#DC5041" fill-opacity="0.4"/>
<rect width="53" height="53" transform="matrix(1 0 0 -1 0 265)" fill="#DC5041" fill-opacity="0.2"/>
<rect width="53" height="53" transform="matrix(1 0 0 -1 0 371)" fill="#F2CA46" fill-opacity="0.2"/>
<rect width="53" height="53" transform="matrix(1 0 0 -1 0 424)" fill="#F2CA46" fill-opacity="0.4"/>
<rect width="53" height="53" transform="matrix(1 0 0 -1 0 477)" fill="#F2CA46" fill-opacity="0.6"/>
<rect width="53" height="53" transform="matrix(1 0 0 -1 0 530)" fill="#F2CA46" fill-opacity="0.8"/>
</svg>
