<svg width="111" height="133" viewBox="0 0 111 133" fill="none" xmlns="http://www.w3.org/2000/svg">
<path d="M39.8701 16.6447C40.1638 17.3364 40.184 18.1208 39.8361 18.7682C39.8361 18.7682 38.0103 22.1952 32.4539 25.3326C26.9041 28.4663 23.0198 28.2634 23.0198 28.2634C22.22 28.2198 21.4962 27.7179 21.0644 27.0156C21.1201 27.161 21.1862 27.3093 21.2657 27.4501L73.0057 119.076C73.6304 120.182 74.9362 120.638 75.9046 120.091L91.1314 111.493C92.0998 110.947 92.3835 109.593 91.7588 108.487L40.0188 16.8613C39.9772 16.7875 39.9184 16.7146 39.8701 16.6447Z" fill="#F3CA45"/>
<path d="M90.2686 110.499L75.4979 118.839C74.3941 119.463 74.0029 120.879 74.6286 121.987L78.872 129.502C79.2891 130.24 80.0612 130.654 80.8538 130.668C80.9158 130.668 80.9883 130.671 81.0636 130.664C81.1047 130.659 81.1562 130.656 81.1972 130.651C82.7449 130.485 86.2504 129.303 89.9631 127.207C93.629 125.137 96.4089 122.779 97.3871 121.527C97.9971 120.811 98.1419 119.755 97.6527 118.888L93.4093 111.374C92.7874 110.273 91.3724 109.876 90.2686 110.499Z" fill="#EE2638"/>
<path d="M90.2044 105.689L71.4124 116.3L75.8774 124.207L94.6695 113.597L90.2044 105.689Z" fill="#347FC2"/>
<path d="M37.6052 14.2891L24.0835 5.9162C23.796 6.60976 23.2378 7.26136 22.4621 7.69939C21.6863 8.13742 20.8438 8.28552 20.0976 8.16676L20.2842 24.0692C20.2973 25.2483 21.2465 26.2263 22.3935 26.2427C22.3935 26.2427 26.0072 26.3007 31.2837 23.3213C36.5603 20.342 38.377 17.2178 38.377 17.2178C38.9554 16.2272 38.6081 14.9093 37.6052 14.2891Z" fill="#F8F0E7"/>
<path d="M24.0942 5.93458L21.8637 4.54645C20.8607 3.92624 20.0581 4.37942 20.0713 5.55854L20.0975 8.18241C20.84 8.29445 21.6863 8.15306 22.4622 7.71499C23.2447 7.27315 23.8067 6.6282 24.0942 5.93458Z" fill="#333232"/>
</svg>
