<svg xmlns="http://www.w3.org/2000/svg" viewBox="0 0 251.02 288.22"><defs><style>.cls-1,.cls-3{fill:none;}.cls-1,.cls-2,.cls-3,.cls-4{stroke:#fff;}.cls-1,.cls-2{stroke-miterlimit:10;stroke-width:0.5px;}.cls-2{fill:#fff;}.cls-3,.cls-4{stroke-linecap:round;stroke-linejoin:round;stroke-width:4px;}.cls-4{fill:#190d0e;}</style></defs><title>co-lab</title><g id="Layer_2" data-name="Layer 2"><g id="Layer_1-2" data-name="Layer 1"><polygon class="cls-1" points="125.52 2.15 55.55 42.55 125.52 82.94 125.52 2.15"/><polygon class="cls-1" points="195.48 42.55 125.52 2.15 125.52 82.94 195.48 42.55"/><polygon class="cls-1" points="55.55 42.55 55.55 123.33 125.52 82.94 55.55 42.55"/><polygon class="cls-1" points="55.55 123.33 125.51 163.74 125.52 82.94 55.55 123.33"/><polygon class="cls-1" points="125.52 82.94 195.48 123.33 195.48 42.55 125.52 82.94"/><polygon class="cls-1" points="125.51 163.74 195.48 123.33 125.52 82.94 125.51 163.74"/><path class="cls-2" d="M1.89,195h7v26.8h-7Z"/><path class="cls-2" d="M24.48,211.43a39,39,0,0,1-3.85-4,49.47,49.47,0,0,1,.51,5.65v8.73H14.72V194.64h.56l12.38,10.68a35.68,35.68,0,0,1,3.85,4.05s-.41-3.49-.41-5.7V195h6.42v27.21H37Z"/><path class="cls-2" d="M53,211.43a39,39,0,0,1-3.85-4,49.47,49.47,0,0,1,.51,5.65v8.73H43.26V194.64h.57L56.2,205.32a34.65,34.65,0,0,1,3.85,4.05s-.41-3.49-.41-5.7V195h6.42v27.21h-.57Z"/><path class="cls-2" d="M71.14,208.39c0-8.21,6.57-13.85,14.42-13.85S100,200.18,100,208.39s-6.57,13.87-14.43,13.87S71.14,216.51,71.14,208.39Zm21.72,0c0-4.51-3-7.69-7.3-7.69s-7.28,3.18-7.28,7.69,3,7.71,7.28,7.71S92.86,213,92.86,208.39Z"/><path class="cls-2" d="M101,195h7.7l3.44,7.8a45.26,45.26,0,0,1,2.2,6.67,44,44,0,0,1,2.21-6.67L120,195h7.08l-12.68,27.16h-.61Z"/><path class="cls-2" d="M136.13,194.69h.56l12.63,27.11h-7.24l-.92-2.16h-9.91l-.92,2.16h-6.78Zm3.29,20.23-1.13-2.67a55.65,55.65,0,0,1-2-5.65,40.71,40.71,0,0,1-2,5.65l-1.18,2.67Z"/><path class="cls-2" d="M155.64,201.06H148V195h22.23v6.06h-7.6V221.8h-7Z"/><path class="cls-2" d="M175.09,195h7v26.8h-7Z"/><path class="cls-2" d="M187.26,208.39c0-8.21,6.57-13.85,14.43-13.85s14.42,5.64,14.42,13.85-6.57,13.87-14.42,13.87S187.26,216.51,187.26,208.39Zm21.72,0c0-4.51-3-7.69-7.29-7.69s-7.3,3.18-7.3,7.69,3,7.71,7.3,7.71S209,213,209,208.39Z"/><path class="cls-2" d="M231,211.43a39,39,0,0,1-3.85-4,49.47,49.47,0,0,1,.51,5.65v8.73h-6.42V194.64h.57l12.37,10.68a34.65,34.65,0,0,1,3.85,4.05s-.41-3.49-.41-5.7V195H244v27.21h-.57Z"/><path class="cls-2" d="M.25,260.33c0-16.09,12.31-27.54,27.21-27.54,9.94,0,16.31,3.56,21.17,10.37l-3.14,2.37c-4.1-5.61-9.71-9-18-9-13.17,0-22.78,10.37-22.78,23.76s9.61,23.86,22.46,23.86c8.74,0,15.11-3.78,19.22-9.4l3.24,2.38C44.85,284,37.4,288,27.14,288,12.56,288,.25,276.52.25,260.33Z"/><path class="cls-2" d="M52.39,260.33c0-16.2,12.74-27.54,27.86-27.54S108,244.13,108,260.33,95.48,288,80.25,288,52.39,276.52,52.39,260.33Zm51.18,0c0-13.5-9.72-23.76-23.32-23.76s-23.43,10.26-23.43,23.76,9.83,23.86,23.43,23.86S103.57,273.82,103.57,260.33Z"/><path class="cls-2" d="M114.07,260.76H127v3.89H114.07Z"/><path class="cls-2" d="M134.27,233.65h4.32v49.68H159v3.78h-24.7Z"/><path class="cls-2" d="M171.53,277.39l-3.89,9.72h-4.32L185.25,233h1l22,54.1h-4.53l-3.89-9.72m-1.51-3.78-10.47-26.46c-.87-2.16-2.06-7-2.06-7s-1.29,4.86-2.16,7L173,273.61"/><path class="cls-2" d="M213.84,233.65h18c10,0,14.47,5.73,14.47,13.07,0,5.18-2.06,9.07-6.81,10.8a13.78,13.78,0,0,1,11.23,14c0,8.64-5.29,15.55-16.73,15.55h-20.2ZM232.64,256c7,0,9.5-3.78,9.5-9.29s-2.81-9.29-10.7-9.29H218.16V256Zm1,27.32c9.4,0,12.75-4.86,12.75-11.77s-3.78-11.88-12.85-11.88H218.16v23.65Z"/></g><g id="Layer_3" data-name="Layer 3"><path class="cls-3" d="M55.54,42.17,125,2l70.38,40.34L194.7,123l-69.49,40.52L55.36,123.21Z"/><line class="cls-4" x1="55.54" y1="42.17" x2="194.7" y2="123.03"/><line class="cls-4" x1="125.19" y1="2.62" x2="125.36" y2="162.98"/><line class="cls-4" x1="194.62" y1="42.67" x2="55.36" y2="123.21"/></g></g></svg>