<svg enable-background="new 0 0 968.45 97.95" viewBox="0 0 968.45 97.95" xmlns="http://www.w3.org/2000/svg"><g fill="#fff"><path d="m17.72 95.15c-2 0-4.42.14-6.7.29-2.29.14-4.42.29-6.18.29-.71 0-2.56 0-2.56-1.42 0-1.14 1.03-2.42 5.27-3.09 3.09-.57 6.41-1.03 6.41-9.26v-67.06c0-2.71-5.99-2.42-9.69-2.71-3.27-.28-4.27-.28-4.27-1.85 0-2.42 3.85-2.42 5.56-2.42h12.97c3.56 0 6.98-.29 10.55-.43s7.7-.43 12.26-.43c29.94 0 54.16 14.82 54.16 49.17 0 21.38-19.67 38.91-44.18 38.91h-33.6zm8.55-17.81c0 9.97 8.98 14.41 18.24 14.41 11.12 0 37.62-9.26 37.62-38.2 0-29.21-26.23-42.21-43.89-42.21-11.68 0-11.97 2.56-11.97 4.56z"/><path d="m107.57 77.69c0-8.7.29-21.97.29-30.39 0-2-2.43-2.29-4.12-2.71-3.43-.85-4.28-1.14-4.28-2.14 0-1.29 1.56-1.29 3.56-1.29s3.99.29 6.18.29 4.12-.29 6.28-.29c1.85 0 2.14.71 2.14 2.71 0 12.69-.29 25.4-.29 38.09 0 5.85 4.28 9.13 11.27 9.13 15.83 0 16.97-6.7 17.12-12.56 0-10.13.29-20.4.29-30.53 0-1.71-.71-1.71-7.42-3.43-1.14-.29-4.12-1.14-4.12-2.29 0-.85 1.56-1.14 3.09-1.14 2.43 0 4.85.29 7.28.29 2.85 0 5.56-.29 8.42-.29 1.54-.12 2.88 1.03 3 2.57.01.14.01.29 0 .43 0 14.41-.57 28.82-.57 43.23 0 3 2.43 3.43 3.71 3.43 5.56 0 7.42 0 7.42 1.43 0 1.14-.71 1.43-2.85 1.71-9.99 1.56-15.83 2.85-17.12 2.85s-1.14-1.03-1.14-2.29v-3.27c0-1.14-.29-1.71-1.03-1.71-2.29 0-8.42 8.42-19.97 8.42-13.43.01-17.14-8.13-17.14-20.25z"/><path d="m178.91 14.12c0-7.56-6.99-5.15-6.99-7.84 0-1.03 1.03-1.29 3-2l9.68-3.7c.78-.24 1.6-.34 2.42-.29.71 0 1.56.43 1.56 2.56v58.59c0 1.56.29 2.29 1.29 2.29 1.42 0 23.23-12.83 23.23-15.44 0-3.71-5.41-3.71-5.41-5.85 0-.71 1.14-1.42 2-1.42 3 0 7.27.29 10.97.29 3.71 0 7.84-.29 10.7-.29 1.29 0 2.71.29 2.71 1.71s-4.99 2.56-6.99 3.42c-4.12 1.85-27.52 15.44-27.52 16.96.08.8.49 1.53 1.14 2l24.7 22.39c5.85 5.27 11.26 4.85 11.26 6.85 0 .71-1.42 1.42-3.71 1.42-3 0-6.7-.57-10.97-.57-3.71 0-7.12.57-10.55.57-3 0-4.27-.14-4.27-1.42s1.71-1.71 4.12-2c1.42-.14 2.71-1.03 2.71-2 0-.71-.71-1.42-1.56-2.29l-21.52-20.34c-.34-.4-.79-.69-1.29-.85-.57 0-1.03.14-1.03.71v20.25c-.21 2.07 1.09 3.98 3.09 4.56 2.29.71 4.12.71 4.12 2s-1.85 1.42-3.27 1.42c-3.42 0-6.41-.57-9.55-.57-3.42 0-7.84.57-10.29.57-.85 0-3.42-.14-3.42-1.42s1.14-1.56 2.56-2c3.99-1.14 6.99-.71 6.99-6.7z"/><path d="m246.1 62.16c-.29 1.65-.38 3.32-.29 4.99 0 11.99 3.28 23.85 20.7 23.85 10.99 0 11.32-5.71 13.57-5.71.64-.06 1.21.41 1.27 1.04 0 .03 0 .07.01.1 0 1.03-6 11.43-20.85 11.43-15.71 0-24.71-11.14-24.71-28.99 0-13.38 8.23-30.13 25.99-30.13 11.58-.36 21.33 8.57 21.99 20.14 0 2.57-.43 3.28-2.85 3.28zm28.28-11.32c0-4.86-4.57-8.71-10.56-8.71-10.29 0-16.47 10-16.47 14.41 0 1.03.29 1.29 12.42 1.29 12.61.04 14.61-1.81 14.61-6.95z"/><path d="m314.98.28h1.27v97.66h-1.27z"/><path d="m370.95 35.9h-19.99v-35.34h19.99v4.88h-14.21v9.62h13.32v4.83h-13.32v11.1h14.21z"/><path d="m380.86 35.9v-35.34h5.78v30.39h14.96v4.96h-20.74z"/><path d="m428.12 35.9h-19.99v-35.34h19.99v4.88h-14.22v9.62h13.32v4.83h-13.32v11.1h14.21v4.91z"/><path d="m450.82 5c-3.32 0-5.93 1.18-7.83 3.53s-2.85 5.6-2.85 9.74c0 4.33.91 7.61 2.74 9.84 1.83 2.22 4.48 3.34 7.94 3.34 1.5 0 2.95-.15 4.35-.45s2.86-.68 4.38-1.15v4.96c-2.77 1.05-5.92 1.57-9.43 1.57-5.17 0-9.15-1.57-11.92-4.7s-4.16-7.62-4.16-13.45c0-3.67.67-6.89 2.02-9.65s3.29-4.87 5.84-6.33c2.55-1.47 5.54-2.2 8.97-2.2 3.61 0 6.95.76 10.01 2.27l-2.08 4.81c-1.19-.56-2.45-1.06-3.78-1.49-1.34-.42-2.74-.64-4.2-.64z"/><path d="m480.8 35.9h-5.78v-30.39h-10.39v-4.95h26.57v4.96h-10.4z"/><path d="m503.13 21.78v14.12h-5.78v-35.34h9.98c4.56 0 7.94.85 10.13 2.56s3.29 4.29 3.29 7.74c0 4.4-2.29 7.53-6.87 9.4l9.98 15.64h-6.58l-8.46-14.12zm0-4.78h4.01c2.69 0 4.64-.5 5.85-1.5s1.81-2.48 1.81-4.45c0-2-.65-3.43-1.96-4.3s-3.27-1.31-5.9-1.31h-3.82v11.56z"/><path d="m530.88 35.9v-35.34h5.78v35.34z"/><path d="m561.49 5c-3.32 0-5.93 1.18-7.83 3.53s-2.85 5.6-2.85 9.74c0 4.33.91 7.61 2.74 9.84 1.83 2.22 4.48 3.34 7.94 3.34 1.5 0 2.95-.15 4.35-.45s2.86-.68 4.38-1.15v4.96c-2.77 1.05-5.92 1.57-9.43 1.57-5.17 0-9.15-1.57-11.92-4.7s-4.16-7.62-4.16-13.45c0-3.67.67-6.89 2.02-9.65s3.29-4.87 5.84-6.33c2.55-1.47 5.54-2.2 8.97-2.2 3.61 0 6.95.76 10.01 2.27l-2.08 4.81c-1.19-.56-2.45-1.06-3.78-1.49-1.33-.42-2.73-.64-4.2-.64z"/><path d="m600.8 35.9-3.53-9.81h-13.51l-3.46 9.81h-6.09l13.22-35.49h6.29l13.22 35.49zm-5.05-14.8-3.31-9.62c-.24-.64-.58-1.66-1-3.05-.43-1.39-.72-2.4-.88-3.05-.43 1.98-1.07 4.15-1.91 6.5l-3.19 9.21h10.29z"/><path d="m612.79 35.9v-35.34h5.78v30.39h14.96v4.96h-20.74z"/><path d="m652.61 26.54c0-2.11.52-3.95 1.55-5.52s2.89-3.13 5.58-4.68c-1.53-1.79-2.57-3.3-3.13-4.53s-.83-2.51-.83-3.83c0-2.45.87-4.38 2.62-5.8s4.1-2.13 7.05-2.13c2.85 0 5.09.69 6.72 2.07s2.44 3.24 2.44 5.57c0 1.84-.54 3.51-1.63 5-1.09 1.5-2.9 3-5.45 4.5l8.36 8.07c1.31-1.72 2.39-4.25 3.26-7.59h5.85c-1.13 4.58-2.93 8.31-5.42 11.19l7.28 7.04h-7.33l-3.6-3.5c-1.64 1.32-3.4 2.32-5.26 2.99s-3.92 1-6.18 1c-3.71 0-6.62-.88-8.73-2.63s-3.15-4.17-3.15-7.22zm12.19 4.96c2.95 0 5.47-.86 7.57-2.59l-9.26-9.11c-1.71 1.1-2.88 2.12-3.53 3.08s-.97 2.05-.97 3.28c0 1.58.56 2.86 1.68 3.86s2.62 1.48 4.51 1.48zm-3.6-23.33c0 1.02.27 1.97.81 2.88.54.9 1.29 1.86 2.26 2.88 1.82-1.03 3.1-1.99 3.83-2.89s1.1-1.9 1.1-3.01c0-1.05-.35-1.89-1.05-2.51-.7-.63-1.63-.94-2.79-.94-1.27 0-2.28.33-3.03.98-.76.64-1.13 1.52-1.13 2.61z"/><path d="m720 5c-3.32 0-5.93 1.18-7.83 3.53s-2.85 5.6-2.85 9.74c0 4.33.91 7.61 2.74 9.84 1.83 2.22 4.48 3.34 7.94 3.34 1.5 0 2.95-.15 4.35-.45s2.86-.68 4.38-1.15v4.96c-2.77 1.05-5.92 1.57-9.43 1.57-5.17 0-9.15-1.57-11.92-4.7s-4.16-7.62-4.16-13.45c0-3.67.67-6.89 2.02-9.65s3.29-4.87 5.84-6.33c2.55-1.47 5.54-2.2 8.97-2.2 3.61 0 6.95.76 10.01 2.27l-2.08 4.81c-1.19-.56-2.45-1.06-3.78-1.49-1.33-.42-2.73-.64-4.2-.64z"/><path d="m765.99 18.18c0 5.75-1.44 10.23-4.31 13.42-2.88 3.19-6.95 4.79-12.22 4.79-5.33 0-9.43-1.58-12.29-4.75s-4.29-7.67-4.29-13.5 1.44-10.31 4.32-13.44c2.86-3.14 6.97-4.7 12.3-4.7 5.25 0 9.31 1.59 12.18 4.76 2.87 3.18 4.31 7.65 4.31 13.42zm-26.98 0c0 4.35.88 7.65 2.63 9.9s4.36 3.37 7.81 3.37c3.43 0 6.02-1.11 7.77-3.34 1.75-2.22 2.62-5.54 2.62-9.94 0-4.34-.87-7.62-2.6-9.86s-4.32-3.36-7.75-3.36c-3.47 0-6.08 1.12-7.84 3.36s-2.64 5.53-2.64 9.87z"/><path d="m788.26 35.9-10.25-29.52h-.19c.27 4.38.41 8.49.41 12.33v17.19h-5.25v-35.34h8.15l9.82 28.12h.14l10.11-28.12h8.17v35.34h-5.56v-17.48c0-1.76.04-4.04.13-6.87s.17-4.53.23-5.12h-.19l-10.62 29.47z"/><path d="m843.41 11.24c0 3.69-1.21 6.52-3.63 8.49s-5.86 2.95-10.32 2.95h-3.67v13.22h-5.78v-35.34h10.18c4.42 0 7.72.9 9.92 2.71 2.2 1.8 3.3 4.46 3.3 7.97zm-17.62 6.58h3.07c2.96 0 5.14-.52 6.53-1.55s2.08-2.64 2.08-4.83c0-2.03-.62-3.54-1.86-4.54s-3.18-1.5-5.8-1.5h-4.01v12.42z"/><path d="m877.24.56v22.87c0 2.61-.56 4.89-1.68 6.85s-2.74 3.46-4.86 4.52-4.65 1.58-7.6 1.58c-4.38 0-7.79-1.16-10.23-3.48-2.43-2.32-3.65-5.51-3.65-9.57v-22.77h5.8v22.36c0 2.92.68 5.07 2.03 6.45 1.35 1.39 3.43 2.08 6.24 2.08 5.45 0 8.17-2.86 8.17-8.58v-22.31z"/><path d="m898.44 35.9h-5.78v-30.39h-10.39v-4.95h26.57v4.96h-10.39v30.38z"/><path d="m933.99 35.9h-19.99v-35.34h19.99v4.88h-14.21v9.62h13.32v4.83h-13.32v11.1h14.21z"/><path d="m947.7 21.78v14.12h-5.78v-35.34h9.98c4.56 0 7.94.85 10.13 2.56s3.29 4.29 3.29 7.74c0 4.4-2.29 7.53-6.87 9.4l9.98 15.64h-6.58l-8.46-14.12zm0-4.78h4.01c2.69 0 4.64-.5 5.85-1.5s1.81-2.48 1.81-4.45c0-2-.65-3.43-1.96-4.3s-3.27-1.31-5.9-1.31h-3.82v11.56z"/><path d="m370.13 97.46h-20.07v-35.47h20.07v4.9h-14.27v9.66h13.37v4.85h-13.37v11.14h14.27z"/><path d="m412.08 97.46h-7.11l-17.45-28.27h-.19l.12 1.58c.23 3.01.34 5.76.34 8.25v18.44h-5.27v-35.47h7.04l17.4 28.12h.15c-.03-.37-.1-1.73-.19-4.06-.1-2.34-.15-4.16-.15-5.47v-18.59h5.31z"/><path d="m437.69 78.22h13.05v17.81c-2.14.7-4.19 1.19-6.15 1.48s-4.09.44-6.37.44c-5.37 0-9.51-1.59-12.42-4.77s-4.37-7.66-4.37-13.45c0-5.71 1.64-10.18 4.93-13.41 3.28-3.23 7.81-4.84 13.56-4.84 3.7 0 7.21.71 10.53 2.14l-2.04 4.83c-2.88-1.33-5.76-1.99-8.64-1.99-3.79 0-6.78 1.19-8.98 3.57s-3.3 5.63-3.3 9.75c0 4.34.99 7.63 2.97 9.89s4.83 3.38 8.55 3.38c1.88 0 3.88-.23 6.02-.7v-9.15h-7.35v-4.98z"/><path d="m464.98 97.46v-35.47h5.8v35.47z"/><path d="m515.41 97.46h-7.11l-17.45-28.27h-.19l.12 1.58c.23 3.01.34 5.76.34 8.25v18.44h-5.27v-35.47h7.04l17.4 28.12h.15c-.03-.37-.1-1.73-.19-4.06-.1-2.34-.15-4.16-.15-5.47v-18.59h5.31z"/><path d="m549.57 97.46h-20.07v-35.47h20.07v4.9h-14.27v9.66h13.37v4.85h-13.37v11.14h14.27z"/><path d="m582.02 97.46h-20.07v-35.47h20.07v4.9h-14.27v9.66h13.37v4.85h-13.37v11.14h14.27z"/><path d="m599.22 83.29v14.17h-5.8v-35.47h10.02c4.58 0 7.97.86 10.17 2.57s3.3 4.3 3.3 7.76c0 4.42-2.3 7.56-6.89 9.44l10.02 15.7h-6.6l-8.49-14.17zm0-4.8h4.03c2.7 0 4.66-.5 5.87-1.5s1.82-2.49 1.82-4.46c0-2.01-.66-3.45-1.97-4.32s-3.28-1.31-5.92-1.31h-3.83z"/><path d="m630.9 97.46v-35.47h5.8v35.47z"/><path d="m681.33 97.46h-7.11l-17.45-28.27h-.19l.12 1.58c.23 3.01.34 5.76.34 8.25v18.44h-5.27v-35.47h7.04l17.4 28.12h.15c-.03-.37-.1-1.73-.19-4.06-.1-2.34-.15-4.16-.15-5.47v-18.59h5.31z"/><path d="m706.95 78.22h13.05v17.81c-2.14.7-4.19 1.19-6.15 1.48-1.97.29-4.09.44-6.37.44-5.37 0-9.51-1.59-12.42-4.77s-4.37-7.66-4.37-13.45c0-5.71 1.64-10.18 4.93-13.41 3.28-3.23 7.81-4.84 13.56-4.84 3.7 0 7.21.71 10.53 2.14l-2.04 4.83c-2.88-1.33-5.76-1.99-8.64-1.99-3.79 0-6.78 1.19-8.98 3.57s-3.3 5.63-3.3 9.75c0 4.34.99 7.63 2.97 9.89s4.83 3.38 8.55 3.38c1.88 0 3.88-.23 6.02-.7v-9.15h-7.35v-4.98z"/></g></svg>