<svg xmlns="http://www.w3.org/2000/svg" viewBox="0 0 177.5 56.2"><defs><style>.cls-1{fill:#fff;}</style></defs><title>linode</title><g id="Layer_2" data-name="Layer 2"><g id="Layer_1-2" data-name="Layer 1"><path class="cls-1" d="M62.2,13.7l5.1-1.2V36.8q0,4.05,2.4,4.8a4.11,4.11,0,0,1-4,2.2c-2.3,0-3.4-1.6-3.4-4.8V13.7ZM80,43.4V21.7H72.1v4.1h2.8V43.3H80Zm-2.5-30a3,3,0,0,0-2.1,5.1,3,3,0,1,0,4.2-4.2,2.54,2.54,0,0,0-2.1-.9m27.4,30V30.1a9,9,0,0,0-2.2-6.5,8.22,8.22,0,0,0-6.1-2.3,7.62,7.62,0,0,0-6.1,2.4l-.9-2H86V43.3h5.1V27.7a6.69,6.69,0,0,1,2-1.6,5.33,5.33,0,0,1,2.4-.6A4.19,4.19,0,0,1,99,26.8a6.16,6.16,0,0,1,1.1,4V43.3h4.8Zm4-10.9a12.1,12.1,0,0,0,2.7,8.2c1.8,2.1,4.4,3.1,7.7,3.1a9.53,9.53,0,0,0,7.6-3.1c1.9-2,2.8-4.8,2.8-8.2s-.9-6.2-2.7-8.2-4.4-3-7.7-3a9.59,9.59,0,0,0-7.5,3.1,11.2,11.2,0,0,0-2.9,8.1m5.3,0a8.69,8.69,0,0,1,1.4-5.2,4.6,4.6,0,0,1,3.8-1.9c3.4,0,5.1,2.4,5.1,7.1a8.81,8.81,0,0,1-1.4,5.3,4.55,4.55,0,0,1-3.7,1.9c-3.5,0-5.2-2.4-5.2-7.2m38.5,10.9V12.5l-5.1,1.2v8.7a9.33,9.33,0,0,0-4.5-1,10,10,0,0,0-7.5,3.2,11.67,11.67,0,0,0-3,8.4,11.66,11.66,0,0,0,2.6,8,9.12,9.12,0,0,0,7.1,2.9,10.59,10.59,0,0,0,3.1-.5,4.16,4.16,0,0,0,2.1-1.2v1.3h5.2Zm-5-5.2a3.35,3.35,0,0,1-1.4.9,4.54,4.54,0,0,1-1.8.4c-4.3,0-6.5-2.2-6.5-6.7a7.64,7.64,0,0,1,1.6-5.3,6,6,0,0,1,4.7-1.8,5.19,5.19,0,0,1,3.4,1.3Zm29.4-4.1a13,13,0,0,0,.4-2.8,9.43,9.43,0,0,0-2.9-7.2,10.19,10.19,0,0,0-7.6-2.8,10.35,10.35,0,0,0-7.6,3.2,11.31,11.31,0,0,0-3.2,8.3c0,3.5,1,6.2,2.9,8.1a10.57,10.57,0,0,0,7.8,2.9c3.5,0,6.2-.7,8-2.2l-2-3.9a7.24,7.24,0,0,1-5.3,1.8,6.82,6.82,0,0,1-4.4-1.4,5.57,5.57,0,0,1-1.8-4h15.7m-15.3-3.8c.7-3.2,2.5-4.7,5.4-4.7,3.2,0,4.9,1.6,5.3,4.7H161.8M46.9,25h0l-1.1,7.9a.35.35,0,0,1-.1.2l-6,4.8h-.3l-2.2-1.6v-.8L39.3,37l.3-3.3.4-4.1-6-3.8-1.3-.6-.1,3.3-.7-.4.1-3.4v-.2l.1-.1.1-.1h0l6.5-4a.19.19,0,0,1,.3,0l7.7,4.3h0l.1.1v.1c.1.1.1.1.1.2Zm-.8.7-.2.1-5.5,3.9-.5,6-.1,1.2,5.3-4.2Zm-8.8,6.1h0l-.2,3.8v.8l-.2,3.7a.35.35,0,0,1-.1.2l-7.5,5.9h-.2L26,43.6v-.9l3,2.5V37.6l-3.5-2.4-.3-6.5L29,26.4a.3.3,0,0,1,.4,0L32,28.1l.7.4,4.5,3,.1.1h0v.2Zm-.8,3.3.2-2.6-1.9,1.4-.6.4-4.7,3.4v7.6l6.7-5.4.2-4ZM26,48.6a.37.37,0,0,1-.1.3l-9.2,7.3h-.2a.1.1,0,0,1-.1-.1L9.2,48.5a.35.35,0,0,1-.1-.2L7.2,39.9h0v-.2h0a.1.1,0,0,1,.1-.1l1.9-1.2,5.1,4.8h.4l6.6-4.5.6-.4.8-.6,2.7,2.2h0v.2h0l.1,2.5v.9ZM16,55l-.2-1.6L15,47.6,8.2,40.9l1.5,7.4Zm9.4-6.5L25.2,43v-.9l-.1-1.3-.9.5-.6.4-8.1,5.8,1.1,7.8Zm.1-12.7c0,.1-.1.2-.1.3L23,37.7l-.8.6-.6.4-6.8,4.5h-.4L9.3,38.4,6.4,35.7c-.1,0-.1-.1-.1-.2L4,24.5H4v-.3l.1-.1h0l3-1.4,4.7,3.7H12c.1,0,.1,0,.1.2L20.9,22l3.8,2.5v.1l.1.1v.1h0l.2,3.8.3,6.5ZM14.1,42l-.8-5.2v-.6l-.7-4.5L4.9,25.3,7,35.3l3.1,2.9Zm10.7-6.4v-1L24.6,29l-.2-3.7L13.3,31.6l.6,3.9,1,6.7,6.5-4.4.6-.4.4-.2Zm0-16a1.69,1.69,0,0,1-.2.5l-3.5,1.8-8.8,4.6c0-.2-.1-.2-.1-.2H12L7.2,22.7,3.1,19.5c-.1,0-.1-.1-.1-.2L0,4.6V4.4H0V4.3a.1.1,0,0,1,.1-.1h0L13.7,0h.2l9.9,4.8c.1,0,.1,0,.1.1s.1.2.2.3ZM11.6,25.3h0L9.5,10.7.7,5.2,3.5,19l4.4,3.4Zm12.5-5.8L23.5,5.6,10.2,10.7l1.4,9.8.7,5,7.9-4.1Z"/></g></g></svg>