<svg width="224" height="83" viewBox="0 0 224 83" fill="none" xmlns="http://www.w3.org/2000/svg">
<path d="M21.7281 82.3794C9.74648 82.3794 0 73.444 0 62.461C0 51.4781 9.74648 42.54 21.7281 42.54C33.7098 42.54 43.4563 51.4754 43.4563 62.461C43.4563 73.4466 33.7098 82.3794 21.7281 82.3794ZM21.7281 46.1464C11.7359 46.1464 3.60638 53.4649 3.60638 62.461C3.60638 71.4572 11.7359 78.773 21.7281 78.773C31.7203 78.773 39.8499 71.4439 39.8499 62.461C39.8499 53.4781 31.7203 46.1464 21.7281 46.1464Z" fill="white"/>
<path d="M41.6519 62.4612C41.6519 72.4666 32.7324 80.5777 21.7283 80.5777C10.7242 80.5777 1.80469 72.4666 1.80469 62.4612C1.80469 52.4558 10.7242 44.3447 21.7283 44.3447C32.7324 44.3447 41.6519 52.4558 41.6519 62.4612" fill="white"/>
<path d="M30.5818 64.8572C30.2202 64.8566 29.8593 64.823 29.5038 64.7568C28.307 64.5464 27.214 63.9442 26.3968 63.0447C25.976 62.5881 25.6658 62.041 25.4899 61.4455C25.314 60.85 25.2771 60.2221 25.3823 59.6101C25.7548 57.6021 27.6571 56.1992 30.0085 56.1992C30.3692 56.1999 30.7291 56.2335 31.0838 56.2996C33.7892 56.8042 35.6387 59.1107 35.2054 61.441C34.8302 63.4543 32.9279 64.8572 30.5818 64.8572ZM30.0085 59.8188C29.3453 59.8188 28.9517 60.1174 28.9252 60.2838C28.9277 60.3566 28.9446 60.4282 28.975 60.4945C29.0054 60.5607 29.0486 60.6202 29.1023 60.6695C29.3859 60.9626 29.7565 61.1562 30.1591 61.2217C30.2967 61.2479 30.4364 61.2612 30.5765 61.2614C31.237 61.2614 31.6333 60.9628 31.6545 60.7937C31.6994 60.5612 31.2502 60.0011 30.4153 59.8584C30.2813 59.8325 30.145 59.8192 30.0085 59.8188V59.8188Z" fill="white"/>
<path d="M33.4324 61.1164C33.1682 62.4717 31.5698 63.3093 29.8366 62.9843C28.1034 62.6593 26.9013 61.2987 27.1523 59.9433C27.4033 58.5879 29.0176 57.7504 30.7534 58.0754C32.4892 58.4003 33.686 59.761 33.4324 61.1164Z" fill="white"/>
<path d="M14.7957 49.0821C9.24744 51.5709 5.54858 56.7044 5.54858 62.4614C5.54858 70.7124 13.0705 77.4232 22.315 77.4232C31.5595 77.4232 39.084 70.7124 39.084 62.4614C39.084 56.3424 34.9439 51.0689 29.0442 48.7545C29.2611 49.07 29.4179 49.4229 29.5066 49.7954C29.6028 50.1918 29.6191 50.6034 29.5547 51.0062C29.4903 51.409 29.3464 51.7949 29.1314 52.1416C27.9663 54.0068 25.5726 55.3463 22.7218 55.7189C22.3283 55.77 21.9323 55.8009 21.5356 55.8113H21.2714C18.3995 55.8113 15.9873 54.7017 14.6821 52.7704C14.3064 52.2199 14.1175 51.5633 14.1431 50.8974C14.1688 50.2314 14.4078 49.5914 14.8248 49.0715L14.7957 49.0821ZM23.7787 47.5576C23.9362 48.208 24.1267 48.85 24.3493 49.481L24.5924 49.1666C24.9402 48.6425 25.3894 48.1934 25.9134 47.8456C25.2134 47.7078 24.5059 47.6116 23.7945 47.5576H23.7787Z" fill="white" stroke="white" stroke-width="3.41" stroke-miterlimit="10"/>
<path d="M21.728 42.9892C21.3925 42.9892 21.0622 42.9892 20.732 43.013C20.0529 30.0194 24.3648 18.2174 33.1918 8.89103L33.2948 8.80385C36.6238 6.01385 36.6238 6.01385 37.2394 5.57527C37.53 5.36919 37.9554 5.068 38.9065 4.34673L39.0122 4.26746L39.0492 4.138C39.2606 3.41937 38.785 2.28858 38.1694 0.999263C38.0611 0.774689 37.9686 0.573894 37.9052 0.41273C37.8691 0.322572 37.8067 0.245369 37.7261 0.191175C37.6456 0.136982 37.5505 0.108311 37.4534 0.108895C37.2461 0.131431 37.053 0.224743 36.9065 0.373099C36.7323 0.54858 36.508 0.665797 36.2645 0.708638C36.115 0.697427 35.9749 0.631596 35.8708 0.523696C35.837 0.444723 35.7806 0.377513 35.7086 0.330506C35.6367 0.2835 35.5525 0.258794 35.4666 0.259492C35.2473 0.259492 35.036 0.259492 34.1641 1.95832C33.7546 2.42596 29.6726 7.09445 28.7849 8.08785C22.8905 14.1276 17.0569 29.6997 17.6698 43.3511C7.87315 45.0896 0.45166 52.9946 0.45166 62.461C0.45166 73.1983 9.9947 81.9328 21.728 81.9328C33.4613 81.9328 43.0043 73.1983 43.0043 62.461C43.0043 51.7238 33.4587 42.9892 21.728 42.9892ZM21.728 79.2247C11.4875 79.2247 3.17032 71.7081 3.17032 62.461C3.17032 54.3209 9.63274 47.5203 18.1692 46.0143C18.4492 47.7739 18.9908 50.3605 19.5298 51.4305C19.794 51.9589 19.971 52.3922 20.1296 52.733H20.1031C18.5179 52.4688 17.9895 51.7423 17.4928 51.0104C17.0859 50.416 16.5232 49.5573 15.9314 49.9536C15.7899 50.0492 15.6687 50.1717 15.5748 50.3143C15.4809 50.4569 15.4161 50.6167 15.3842 50.7844C15.3522 50.9521 15.3538 51.1245 15.3888 51.2916C15.4237 51.4587 15.4914 51.6173 15.5879 51.7581C16.5998 53.2456 18.5417 54.0646 20.9169 54.0065C21.25 53.9987 21.5825 53.9732 21.9129 53.9299C23.8918 53.6657 26.0292 52.7911 27.0068 51.1954C27.0966 51.0499 27.1567 50.8882 27.1838 50.7195C27.2109 50.5507 27.2043 50.3783 27.1645 50.2121C27.1248 50.0459 27.0525 49.8891 26.952 49.7509C26.8515 49.6127 26.7247 49.4957 26.5788 49.4067C25.9685 49.0315 25.2578 51.0818 23.7994 51.9483C23.5933 52.0699 23.3581 52.2125 23.0913 52.3367C21.9209 50.194 21.3343 47.6445 21.0569 45.9298C21.0569 45.8584 21.0384 45.7845 21.0252 45.7131C21.263 45.7131 21.5008 45.6946 21.7386 45.6946C31.9791 45.6946 40.3095 53.2165 40.3095 62.4584C40.3095 71.7002 31.9685 79.2247 21.728 79.2247" fill="white"/>
<path d="M75.3454 46.7304C74.3361 46.6352 74.2542 46.6273 74.2542 45.0632V37.0684C74.2542 32.577 71.9953 30.4897 67.1418 30.4897C61.6517 30.4897 58.5024 32.6034 58.5024 36.2837C58.4855 36.79 58.5756 37.2941 58.7666 37.7633L58.9172 38.1543L64.5473 36.9178L64.336 36.2917C64.3042 36.2226 64.2854 36.1483 64.2805 36.0724C64.2805 35.4779 65.1841 34.8174 66.4787 34.8174C67.4509 34.8174 68.3492 35.1239 68.3492 37.3485V38.5955L63.2527 40.0645C60.3465 40.9205 59.0466 41.9139 58.3174 43.8743C58.0876 44.5464 57.968 45.2512 57.9634 45.9615C57.966 49.2509 60.5024 51.6287 64.011 51.6287C65.9159 51.6287 67.5064 51.0025 69.2343 49.5521C70.1115 50.992 71.1075 51.383 73.488 51.383H74.9041L75.879 46.77L75.3454 46.7304ZM65.5328 46.8493C64.5658 46.8493 64.0348 46.3208 64.0348 45.3512C64.0394 44.9298 64.1293 44.5137 64.299 44.128L68.3572 42.8069V45.6603C68.0366 45.9233 67.6906 46.1534 67.3241 46.3473C66.7737 46.6597 66.1549 46.8321 65.5223 46.8493H65.5328Z" fill="white"/>
<path d="M91.1105 40.82C90.1514 40.0908 87.2822 38.8305 85.2108 38.1119C83.4855 37.4963 83.1394 37.0551 83.1394 36.5425C83.1394 35.7499 84.2306 35.2215 85.7815 35.2215C87.2604 35.2697 88.7012 35.7032 89.9612 36.4791C90.3231 36.6799 90.7538 36.9599 91.2452 37.2717L91.7393 37.5993L93.6706 32.6666L93.3139 32.4606C91.5464 31.4513 90.8568 31.1871 88.9704 30.8014C87.8957 30.565 86.7999 30.4375 85.6996 30.4209C80.7537 30.4209 77.4326 33.0286 77.4326 36.915C77.4326 39.6786 79.1526 41.6707 82.6824 43.0076L85.9849 44.2863C87.4433 44.8332 87.6124 45.4462 87.6124 45.8583C87.6124 46.7223 86.3046 47.0288 85.0813 47.0288C84.4018 47.0224 83.728 46.9045 83.0866 46.68C81.7656 46.2546 81.0443 45.927 79.0681 44.709L78.5819 44.4105L76.6479 49.3432L77.0337 49.5413C79.1949 50.6404 80.1011 50.9786 81.8898 51.3538C82.9513 51.594 84.0353 51.7215 85.1236 51.7342C89.9929 51.7342 93.2664 49.2084 93.2664 45.4462C93.277 43.573 92.3972 41.7103 91.1105 40.82Z" fill="white"/>
<path d="M119.42 30.8491L116.413 39.7528L116.358 39.98L112.815 30.8491H106.392L113.658 47.5864C112.662 50.4398 112.094 51.6314 110.839 53.5363C109.843 55.1215 109.164 55.9326 107.351 57.8719L106.963 58.2867L111.84 61.473L112.104 61.1322C113.792 59.0185 114.371 58.2259 115.52 56.2629C116.839 54.1891 117.891 51.9575 118.651 49.6208L125.306 30.8491H119.42Z" fill="white"/>
<path d="M171.09 46.8544C170.102 46.7646 169.999 46.754 169.999 45.1873V37.1951C169.999 32.7036 167.74 30.6138 162.887 30.6138C157.396 30.6138 154.25 32.7274 154.25 36.4104C154.234 36.9166 154.324 37.4206 154.514 37.8899L154.657 38.2863L160.284 37.0524L160.076 36.4236C160.044 36.3546 160.025 36.2802 160.02 36.2043C160.02 35.6125 160.921 34.952 162.218 34.952C163.19 34.952 164.091 35.2585 164.091 37.4831V38.7301L158.992 40.1964C156.086 41.0551 154.789 42.0459 154.06 44.0063C153.83 44.6792 153.71 45.385 153.706 46.0961C153.706 49.3828 156.247 51.7659 159.748 51.7659C161.655 51.7659 163.246 51.1398 164.974 49.6893C165.848 51.1292 166.844 51.5176 169.225 51.5176H170.644L171.616 46.9046L171.09 46.8544ZM161.28 46.9759C160.313 46.9759 159.78 46.4475 159.78 45.4779C159.782 45.0563 159.872 44.6398 160.044 44.2546L164.105 42.9336V45.787C163.784 46.0484 163.438 46.2776 163.072 46.4713C162.525 46.7837 161.91 46.957 161.28 46.9759V46.9759Z" fill="white"/>
<path d="M185.595 20.2358V31.4909C185.002 31.1229 184.342 30.8759 183.653 30.7644C183.059 30.6032 182.446 30.5267 181.83 30.5372C176.522 30.5372 172.203 35.557 172.203 41.7315C172.203 47.544 175.714 51.7712 180.551 51.7712C181.915 51.766 183.248 51.3678 184.39 50.6246C184.837 50.3598 185.243 50.0314 185.595 49.6497V51.2349H191.455V20.2358H185.595ZM185.595 39.3008V44.2308C184.515 45.8531 183.149 46.7804 181.83 46.7804C179.783 46.7804 178.353 44.5532 178.353 41.3642C178.353 38.0432 180.184 35.5517 182.615 35.5517C183.923 35.5517 185.109 36.17 185.368 36.9837C185.533 37.7447 185.609 38.5222 185.595 39.3008Z" fill="white"/>
<path d="M210.042 44.3895L209.591 44.6748C207.836 45.7765 207.139 46.1226 206.032 46.437C205.348 46.6509 204.635 46.7552 203.918 46.7462C202.277 46.7462 200.793 45.9535 200.045 44.6774C199.694 44.0671 199.561 43.5625 199.48 42.3445H212.143V39.7632C212.143 34.3154 208.639 30.5161 203.63 30.5161C197.884 30.5161 193.551 35.2956 193.551 41.6285C193.551 47.7528 197.376 51.7106 203.3 51.7106C205.535 51.7128 207.744 51.2343 209.778 50.3076C210.288 50.0751 210.983 49.7422 211.868 49.2508L212.267 49.0315L210.042 44.3895ZM199.794 38.2969C200.272 36.2758 201.501 35.174 203.292 35.174C204.956 35.174 205.982 35.7024 206.198 38.2969H199.794Z" fill="white"/>
<path d="M45.916 34.0249H48.3652V45.5521C48.3652 49.1982 49.8923 49.9115 52.5317 49.9115C53.4852 49.933 54.4335 49.7651 55.3217 49.4175V48.3184C54.9714 48.3656 54.6183 48.3894 54.2649 48.3897C51.9953 48.3897 50.5871 46.9366 50.5871 44.5984V34.0302H55.4089V32.6616H50.5766V27.4146H48.3652V32.6564H45.916V34.0249Z" fill="white" stroke="white" stroke-width="3.41" stroke-miterlimit="10"/>
<path d="M52.0987 51.7106C48.5399 51.7106 46.1303 50.2944 46.1303 45.5467V35.8266H43.6812V30.8517H46.1303V25.6099H51.9428V30.8517H56.7645V35.8266H51.9455V44.5903C51.9455 45.9324 52.5188 46.5824 53.8213 46.5824C54.8246 46.5864 55.8125 46.3365 56.6932 45.8558V50.5216C55.3042 51.3428 53.7116 51.7549 52.0987 51.7106" fill="white"/>
<path d="M96.6987 34.0059H99.1479V45.5278C99.1479 49.1738 100.675 49.8872 103.314 49.8872C104.268 49.9097 105.216 49.7427 106.104 49.3958V48.2967C105.754 48.3419 105.401 48.3648 105.048 48.3654C102.778 48.3654 101.37 46.9123 101.37 44.574V34.0059H106.192V32.6373H101.346V27.3955H99.1347V32.6373H96.6987V34.0059Z" fill="white" stroke="white" stroke-width="3.41" stroke-miterlimit="10"/>
<path d="M102.815 51.692C99.2559 51.692 96.8437 50.2759 96.8437 45.5281V35.8081H94.3945V30.8331H96.8437V25.5913H102.656V30.8331H107.478V35.8081H102.661V44.5744C102.661 45.9139 103.235 46.5638 104.537 46.5638C105.541 46.5679 106.529 46.3179 107.409 45.8373V50.5031C106.02 51.3242 104.428 51.7364 102.815 51.692" fill="white"/>
<path d="M128.163 34.0059H130.612V45.5278C130.612 49.1738 132.139 49.8872 134.778 49.8872C135.732 49.9099 136.68 49.7419 137.568 49.3931V48.2967C137.218 48.3418 136.865 48.3648 136.511 48.3654C134.242 48.3654 132.834 46.9123 132.834 44.574V34.0059H137.65V32.6373H132.823V27.3955H130.612V32.6373H128.163V34.0059Z" fill="white" stroke="white" stroke-width="3.41" stroke-miterlimit="10"/>
<path d="M134.311 51.692C130.752 51.692 128.34 50.2759 128.34 45.5281V35.8081H125.891V30.8331H128.34V25.5913H134.152V30.8331H138.971V35.8081H134.158V44.5744C134.158 45.9139 134.731 46.5638 136.033 46.5638C137.036 46.5675 138.023 46.3176 138.903 45.8373V50.5031C137.515 51.3242 135.923 51.7363 134.311 51.692" fill="white"/>
<path d="M152.47 36.5376C148.604 36.5376 146.232 38.8705 146.232 43.7715V51.3488H140.419V30.8334H146.232V34.9655C147.421 32.1359 149.331 30.2971 152.776 30.4503V36.527L152.47 36.5376Z" fill="white"/>
<path d="M42.1931 62.4612C42.1931 72.4666 33.2736 80.5777 22.2695 80.5777C11.2654 80.5777 2.34326 72.4666 2.34326 62.4612C2.34326 52.4558 11.2654 44.3447 22.2695 44.3447C33.2736 44.3447 42.1931 52.4558 42.1931 62.4612Z" fill="#0965BA"/>
<path d="M33.9742 61.1164C33.71 62.4717 32.1247 63.3093 30.3757 62.9843C28.6267 62.6593 27.4404 61.2987 27.694 59.9433C27.9477 58.5879 29.5567 57.7504 31.2925 58.0754C33.0283 58.4003 34.2252 59.761 33.9742 61.1164Z" fill="white"/>
<path d="M22.2697 42.9892C21.9342 42.9892 21.6013 42.9892 21.2711 43.013C20.6079 30.0194 24.9065 18.2174 33.7336 8.89103L33.8366 8.80385C37.1656 6.01385 37.1656 6.01385 37.7785 5.57527C38.0718 5.36919 38.4972 5.068 39.4456 4.34673L39.554 4.26746L39.591 4.138C39.8023 3.41937 39.3268 2.28858 38.7112 0.999263C38.6028 0.774689 38.5077 0.573894 38.447 0.41273C38.4109 0.322572 38.3485 0.245369 38.2679 0.191175C38.1873 0.136982 38.0923 0.108311 37.9952 0.108895C37.7871 0.131474 37.5932 0.224733 37.4456 0.373099C37.272 0.547962 37.0488 0.665118 36.8062 0.708638C36.6564 0.698675 36.5159 0.632643 36.4126 0.523696C36.3785 0.44493 36.322 0.377912 36.2501 0.330947C36.1783 0.283983 36.0942 0.259138 36.0084 0.259492C35.7864 0.259492 35.5777 0.259492 34.7058 1.95832C34.2963 2.42596 30.2144 7.09445 29.324 8.08785C23.4322 14.1276 17.596 29.6997 18.2116 43.3511C8.41489 45.0896 0.993408 52.9946 0.993408 62.461C0.993408 73.1983 10.5365 81.9328 22.2697 81.9328C34.003 81.9328 43.5461 73.1983 43.5461 62.461C43.5461 51.7238 34.0004 42.9892 22.2697 42.9892ZM22.2697 79.2247C12.0292 79.2247 3.69886 71.7081 3.69886 62.461C3.69886 54.3209 10.1613 47.5203 18.6951 46.0143C18.9778 47.7739 19.5194 50.3605 20.0584 51.4305C20.3226 51.9589 20.4969 52.3922 20.6581 52.733H20.629C19.0438 52.4688 18.5154 51.7423 18.0187 51.0104C17.6145 50.416 17.0517 49.5573 16.4599 49.9536C16.3184 50.0492 16.1972 50.1717 16.1033 50.3143C16.0094 50.4569 15.9446 50.6167 15.9127 50.7844C15.8808 50.9521 15.8823 51.1245 15.9173 51.2916C15.9523 51.4587 16.0199 51.6173 16.1164 51.7581C17.1283 53.2456 19.0702 54.0646 21.4454 54.0065C21.7786 53.9987 22.1111 53.9732 22.4415 53.9299C24.4204 53.6657 26.5578 52.7911 27.5353 51.1954C27.6248 51.0498 27.6846 50.8881 27.7115 50.7194C27.7384 50.5508 27.7318 50.3784 27.692 50.2123C27.6523 50.0462 27.5802 49.8896 27.4798 49.7513C27.3795 49.6131 27.2529 49.496 27.1073 49.4067C26.4944 49.0315 25.7863 51.0818 24.3253 51.9483C24.1218 52.0699 23.8867 52.2125 23.6198 52.3367C22.4468 50.194 21.8629 47.6445 21.5855 45.9298L21.5538 45.7131C21.7915 45.7131 22.0267 45.6946 22.2671 45.6946C32.5076 45.6946 40.838 53.2165 40.838 62.4584C40.838 71.7002 32.5076 79.2247 22.2671 79.2247" fill="white"/>
<path d="M222.954 36.1011C222.658 36.3983 222.306 36.6342 221.919 36.7951C221.531 36.9561 221.116 37.0389 220.696 37.0389C220.277 37.0389 219.862 36.9561 219.474 36.7951C219.087 36.6342 218.735 36.3983 218.439 36.1011C218.139 35.806 217.903 35.4532 217.744 35.064C217.585 34.6747 217.507 34.2572 217.514 33.8369C217.515 33.3124 217.645 32.7963 217.893 32.3342C218.141 31.8721 218.499 31.4784 218.936 31.1877C219.372 30.8971 219.874 30.7187 220.396 30.6681C220.918 30.6176 221.444 30.6966 221.928 30.8982C222.413 31.0997 222.84 31.4175 223.172 31.8235C223.504 32.2294 223.73 32.711 223.832 33.2255C223.933 33.74 223.906 34.2716 223.753 34.7732C223.6 35.2748 223.326 35.7309 222.954 36.1011V36.1011ZM218.761 31.9002C218.251 32.4204 217.965 33.12 217.965 33.8487C217.965 34.5775 218.251 35.2771 218.761 35.7972C219.016 36.0533 219.318 36.2566 219.651 36.3953C219.985 36.534 220.342 36.6054 220.703 36.6054C221.064 36.6054 221.421 36.534 221.755 36.3953C222.088 36.2566 222.391 36.0533 222.645 35.7972C223.158 35.2784 223.446 34.5783 223.446 33.8487C223.446 33.1192 223.158 32.4191 222.645 31.9002C222.391 31.6442 222.088 31.441 221.755 31.3024C221.422 31.1637 221.065 31.0923 220.704 31.0923C220.344 31.0923 219.986 31.1637 219.653 31.3024C219.32 31.441 219.018 31.6442 218.764 31.9002H218.761ZM220.64 32.0773C220.964 32.0608 221.288 32.1038 221.596 32.2041C221.768 32.2761 221.911 32.4011 222.006 32.5609C222.102 32.7207 222.143 32.9068 222.124 33.0918C222.134 33.2267 222.108 33.3618 222.048 33.483C221.988 33.6043 221.897 33.7073 221.784 33.7814C221.629 33.8723 221.457 33.9307 221.279 33.9531C221.397 33.965 221.512 34.0015 221.615 34.0602C221.718 34.1189 221.808 34.1985 221.879 34.2939C221.996 34.4519 222.062 34.6417 222.069 34.8382V35.1024C222.069 35.1816 222.069 35.2688 222.069 35.3666C222.071 35.4284 222.08 35.4897 222.098 35.5489L222.122 35.5938H221.543C221.545 35.5824 221.545 35.5709 221.543 35.5595V35.5198V35.4062V35.1156C221.543 34.7114 221.432 34.4445 221.213 34.323C220.996 34.2316 220.761 34.1927 220.526 34.2094H220.04V35.5885H219.422V32.0773H220.64ZM221.305 32.6294C221.07 32.5272 220.814 32.4828 220.558 32.5H220.029V33.7682H220.587C220.786 33.7772 220.986 33.7504 221.176 33.6889C221.272 33.6429 221.354 33.5735 221.416 33.4872C221.477 33.401 221.516 33.3005 221.529 33.1952C221.542 33.0899 221.527 32.9831 221.488 32.8847C221.448 32.7863 221.385 32.6994 221.303 32.6321L221.305 32.6294Z" fill="white"/>
<path d="M75.888 46.7304C74.8787 46.6352 74.7968 46.6273 74.7968 45.0632V37.0684C74.7968 32.577 72.5352 30.4897 67.6818 30.4897C62.1916 30.4897 59.0449 32.6034 59.0449 36.2837C59.0281 36.79 59.1182 37.2941 59.3092 37.7633L59.4492 38.1622L65.0794 36.9258L64.8706 36.2996C64.8373 36.2309 64.8176 36.1565 64.8125 36.0803C64.8125 35.4858 65.7161 34.8253 67.0133 34.8253C67.9856 34.8253 68.8839 35.1318 68.8839 37.3564V38.6034L63.7874 40.0724C60.8812 40.9284 59.5813 41.9218 58.8521 43.8822C58.6223 44.5543 58.5027 45.2592 58.498 45.9695C58.498 49.2562 61.0397 51.6393 64.5404 51.6393C66.4479 51.6393 68.0384 51.0131 69.7663 49.5626C70.6409 51.0025 71.6396 51.3936 74.02 51.3936H75.4362L76.4111 46.7806L75.888 46.7304ZM66.0754 46.8493C65.1084 46.8493 64.5747 46.3208 64.5747 45.3512C64.5794 44.9298 64.6692 44.5137 64.8389 44.128L68.8998 42.8069V45.6603C68.5792 45.9233 68.2332 46.1534 67.8667 46.3473C67.3194 46.658 66.7045 46.8304 66.0754 46.8493V46.8493Z" fill="white"/>
<path d="M119.973 30.8491L116.966 39.7528L116.91 39.98L113.344 30.8491H106.934L114.2 47.5864C113.204 50.4398 112.636 51.6314 111.381 53.5363C110.385 55.1215 109.706 55.9326 107.893 57.8719L107.505 58.2867L112.382 61.473L112.646 61.1322C114.332 59.0185 114.91 58.2259 116.06 56.2629C117.378 54.1887 118.431 51.9572 119.193 49.6208L125.848 30.8491H119.973Z" fill="white"/>
<path d="M171.632 46.8544C170.644 46.7646 170.541 46.754 170.541 45.1873V37.1951C170.541 32.7036 168.282 30.6138 163.426 30.6138C157.938 30.6138 154.789 32.7274 154.789 36.4104C154.773 36.9166 154.863 37.4206 155.053 37.8899L155.193 38.2863L160.824 37.0524L160.615 36.4236C160.583 36.3546 160.564 36.2802 160.559 36.2043C160.559 35.6125 161.46 34.952 162.757 34.952C163.73 34.952 164.628 35.2585 164.628 37.4831V38.7301L159.532 40.1964C156.625 41.0551 155.328 42.0459 154.599 44.0063C154.368 44.6791 154.248 45.3848 154.242 46.0961C154.242 49.3828 156.784 51.7659 160.285 51.7659C162.192 51.7659 163.783 51.1398 165.51 49.6893C166.388 51.1292 167.384 51.5176 169.764 51.5176H171.204L172.176 46.9046L171.632 46.8544ZM161.822 46.9759C160.853 46.9759 160.322 46.4475 160.322 45.4779C160.325 45.0564 160.415 44.6401 160.586 44.2546L164.647 42.9336V45.787C164.326 46.0497 163.98 46.279 163.614 46.4713C163.067 46.7841 162.452 46.9574 161.822 46.9759V46.9759Z" fill="white"/>
<path d="M182.372 30.5372C177.064 30.5372 172.744 35.557 172.744 41.7315C172.744 47.544 176.255 51.7712 181.093 51.7712C182.46 51.768 183.797 51.3698 184.942 50.6246C185.389 50.3592 185.795 50.0308 186.147 49.6497V51.2349H191.997V20.2358H186.137V31.4909L182.372 30.5372ZM186.137 39.3008V44.2308C185.056 45.8531 183.687 46.7804 182.372 46.7804C180.324 46.7804 178.892 44.5532 178.892 41.3642C178.892 38.0432 180.726 35.5517 183.154 35.5517C184.475 35.5517 185.65 36.17 185.909 36.9837C186.075 37.7447 186.151 38.5222 186.137 39.3008V39.3008Z" fill="white"/>
<path d="M52.6399 51.7106C49.0811 51.7106 46.6689 50.2944 46.6689 45.5467V35.8266H44.2197V30.8517H46.6689V25.6099H52.4814V30.8517H57.3031V35.8266H52.4867V44.5903C52.4867 45.9324 53.06 46.5824 54.3625 46.5824C55.365 46.5867 56.3522 46.3367 57.2318 45.8558V50.5216C55.8436 51.3424 54.2519 51.7546 52.6399 51.7106Z" fill="white"/>
<path d="M103.357 51.692C99.7979 51.692 97.3857 50.2759 97.3857 45.5281V35.8081H94.9365V30.8331H97.3857V25.5913H103.198V30.8331H108.02V35.8081H103.203V44.5744C103.203 45.9139 103.777 46.5638 105.079 46.5638C106.082 46.5675 107.069 46.3176 107.949 45.8373V50.5031C106.561 51.3246 104.969 51.7367 103.357 51.692" fill="white"/>
<path d="M134.852 51.692C131.29 51.692 128.881 50.2759 128.881 45.5281V35.8081H126.432V30.8331H128.881V25.5913H134.693V30.8331H139.515V35.8081H134.696V44.5744C134.696 45.9139 135.272 46.5638 136.572 46.5638C137.575 46.5679 138.563 46.3179 139.444 45.8373V50.5031C138.056 51.3239 136.464 51.736 134.852 51.692" fill="white"/>
<path d="M153.011 36.5376C149.143 36.5376 146.773 38.8705 146.773 43.7715V51.3488H140.961V30.8334H146.773V34.9655C147.96 32.1359 149.873 30.2971 153.318 30.4503V36.527L153.011 36.5376Z" fill="white"/>
<path d="M7.18393 63.9165C5.7863 69.2217 11.0651 74.5719 14.513 76.0699C17.5354 77.3751 23.5144 78.2522 27.7099 75.7053C20.9648 75.0765 11.2765 73.2218 7.36624 63.9244" fill="white"/>
</svg>
